999
"DXF R12 Output" (www.mydxf.blogspot.com)
 0 
SECTION
 2 
HEADER
 9 
$ACADVER
 1 
AC1009
 9 
$EXTMIN
 10 
 0 
 20 
 0 
 9 
$EXTMAX
 10 
 8.5 
 20 
 11 
 0 
ENDSEC
 0 
SECTION
 2 
ENTITIES
0
LINE
8
Layer 1
10
0.846666
20
170.180000
11
-0.846666
21
168.486000
0
LINE
8
Layer 1
10
0.000000
20
170.744000
11
0.000000
21
167.922000
0
LINE
8
Layer 1
10
2.257780
20
168.204000
11
1.128890
21
167.075110
0
LINE
8
Layer 1
10
1.693330
20
168.769000
11
0.564440
21
167.640110
0
LINE
8
Layer 1
10
1.128890
20
169.333000
11
0.000000
21
168.204110
0
LINE
8
Layer 1
10
651.126000
20
148.094000
11
654.384480
21
155.726300
0
LINE
8
Layer 1
10
646.529000
20
15.429800
11
646.529000
21
99.547400
0
LINE
8
Layer 1
10
922.853000
20
111.348000
11
921.705370
21
119.256420
0
LINE
8
Layer 1
10
762.393000
20
237.579000
11
770.622060
21
238.652320
0
LINE
8
Layer 1
10
862.360000
20
-19.746500
11
868.865440
21
-15.105430
0
LINE
8
Layer 1
10
923.543000
20
103.384000
11
922.852657
21
111.348020
0
LINE
8
Layer 1
10
862.360000
20
210.543000
11
855.597990
21
214.801570
0
LINE
8
Layer 1
10
921.705000
20
119.256000
11
920.103640
21
127.085170
0
LINE
8
Layer 1
10
923.775000
20
95.468500
11
923.542929
21
103.383620
0
LINE
8
Layer 1
10
901.368000
20
19.827900
11
905.528690
21
26.650580
0
LINE
8
Layer 1
10
905.529000
20
26.650600
11
909.289690
21
33.701650
0
LINE
8
Layer 1
10
905.529000
20
164.146000
11
901.368000
21
170.969000
0
LINE
8
Layer 1
10
918.054000
20
55.987500
11
920.103750
21
63.711410
0
LINE
8
Layer 1
10
915.563000
20
48.394500
11
918.054310
21
55.987490
0
LINE
8
Layer 1
10
915.563000
20
142.402000
11
912.638000
21
149.839000
0
LINE
8
Layer 1
10
920.104000
20
127.085000
11
918.054250
21
134.808910
0
LINE
8
Layer 1
10
918.054000
20
134.809000
11
915.563000
21
142.402000
0
LINE
8
Layer 1
10
778.899000
20
239.250000
11
787.196920
21
239.369592
0
LINE
8
Layer 1
10
884.712000
20
-8.592180
11
878.555470
21
-14.156990
0
LINE
8
Layer 1
10
787.197000
20
239.370000
11
795.488010
21
239.011330
0
LINE
8
Layer 1
10
746.189000
20
234.021000
11
754.239980
21
236.033810
0
LINE
8
Layer 1
10
803.745000
20
-47.378500
11
795.488400
21
-48.214236
0
LINE
8
Layer 1
10
843.560000
20
-36.195800
11
835.881530
21
-39.343960
0
LINE
8
Layer 1
10
676.925000
20
190.400000
11
682.577960
21
196.475680
0
LINE
8
Layer 1
10
910.162000
20
24.005100
11
905.841210
21
16.919870
0
LINE
8
Layer 1
10
923.169000
20
136.326000
11
925.297600
21
128.304860
0
LINE
8
Layer 1
10
920.582000
20
144.211000
11
923.169210
21
136.325820
0
LINE
8
Layer 1
10
928.153000
20
78.835200
11
926.961200
21
70.622450
0
LINE
8
Layer 1
10
926.961000
20
70.622500
11
925.298010
21
62.492050
0
LINE
8
Layer 1
10
910.162000
20
166.792000
11
914.067440
21
159.469610
0
LINE
8
Layer 1
10
890.537000
20
193.479000
11
896.012500
21
187.242940
0
LINE
8
Layer 1
10
914.068000
20
31.327400
11
910.162560
21
24.005010
0
LINE
8
Layer 1
10
878.555000
20
-14.157000
11
872.088110
21
-19.357870
0
LINE
8
Layer 1
10
878.555000
20
204.954000
11
884.711530
21
199.389190
0
LINE
8
Layer 1
10
890.537000
20
-2.681930
11
884.711320
21
-8.592180
0
LINE
8
Layer 1
10
914.068000
20
159.469000
11
917.545060
21
151.933770
0
LINE
8
Layer 1
10
858.310000
20
219.397000
11
865.332220
21
214.974550
0
LINE
8
Layer 1
10
811.940000
20
236.865000
11
820.045640
21
235.085030
0
LINE
8
Layer 1
10
795.488000
20
239.011000
11
803.744600
21
238.175264
0
LINE
8
Layer 1
10
740.003000
20
226.502000
11
732.524790
21
223.684830
0
LINE
8
Layer 1
10
770.622000
20
238.653000
11
778.899260
21
239.250450
0
LINE
8
Layer 1
10
754.239000
20
236.034000
11
762.392590
21
237.579640
0
LINE
8
Layer 1
10
828.035000
20
-42.044500
11
820.045350
21
-44.288490
0
LINE
8
Layer 1
10
920.582000
20
46.585700
11
917.544810
21
38.862670
0
LINE
8
Layer 1
10
738.267000
20
231.547000
11
746.188630
21
234.020300
0
LINE
8
Layer 1
10
787.159000
20
-48.574600
11
678.848000
21
-48.574600
0
LINE
8
Layer 1
10
835.882000
20
-39.344000
11
828.034930
21
-42.044560
0
LINE
8
Layer 1
10
851.045000
20
-32.610500
11
843.560670
21
-36.195800
0
LINE
8
Layer 1
10
865.332000
20
-24.177500
11
858.309780
21
-28.599950
0
LINE
8
Layer 1
10
678.848000
20
-48.574600
11
678.848000
21
-43.241300
0
LINE
8
Layer 1
10
795.488000
20
-48.214300
11
787.158560
21
-48.574633
0
LINE
8
Layer 1
10
811.940000
20
-46.068500
11
803.745290
21
-47.378520
0
LINE
8
Layer 1
10
820.045000
20
-44.288500
11
811.939360
21
-46.068470
0
LINE
8
Layer 1
10
858.310000
20
-28.600000
11
851.044650
21
-32.610540
0
LINE
8
Layer 1
10
872.088000
20
-19.357900
11
865.332230
21
-24.177570
0
LINE
8
Layer 1
10
896.013000
20
3.554140
11
890.537500
21
-2.681920
0
LINE
8
Layer 1
10
901.120000
20
10.095300
11
896.012850
21
3.554140
0
LINE
8
Layer 1
10
905.842000
20
16.919800
11
901.120200
21
10.095270
0
LINE
8
Layer 1
10
917.545000
20
38.862700
11
914.067940
21
31.327470
0
LINE
8
Layer 1
10
923.169000
20
54.470900
11
920.581790
21
46.585720
0
LINE
8
Layer 1
10
925.298000
20
62.492000
11
923.169400
21
54.470860
0
LINE
8
Layer 1
10
928.869000
20
87.103000
11
928.152325
21
78.835220
0
LINE
8
Layer 1
10
929.111000
20
95.469800
11
928.869785
21
87.102950
0
LINE
8
Layer 1
10
928.870000
20
103.692000
11
929.111102
21
95.469490
0
LINE
8
Layer 1
10
928.153000
20
111.961000
11
928.869787
21
103.691920
0
LINE
8
Layer 1
10
926.961000
20
120.174000
11
928.152800
21
111.961250
0
LINE
8
Layer 1
10
925.298000
20
128.305000
11
926.960990
21
120.174550
0
LINE
8
Layer 1
10
917.545000
20
151.934000
11
920.582190
21
144.210970
0
LINE
8
Layer 1
10
905.842000
20
173.877000
11
910.162000
21
166.792000
0
LINE
8
Layer 1
10
901.120000
20
180.701000
11
905.841800
21
173.876470
0
LINE
8
Layer 1
10
896.013000
20
187.243000
11
901.120150
21
180.701840
0
LINE
8
Layer 1
10
884.712000
20
199.389000
11
890.537680
21
193.478750
0
LINE
8
Layer 1
10
872.088000
20
210.155000
11
878.554890
21
204.954130
0
LINE
8
Layer 1
10
865.332000
20
214.974000
11
872.087770
21
210.154330
0
LINE
8
Layer 1
10
851.045000
20
223.407000
11
858.310350
21
219.396460
0
LINE
8
Layer 1
10
843.560000
20
226.992000
11
851.044330
21
223.406700
0
LINE
8
Layer 1
10
835.882000
20
230.141000
11
843.560470
21
226.992840
0
LINE
8
Layer 1
10
828.035000
20
232.841000
11
835.882070
21
230.140440
0
LINE
8
Layer 1
10
820.045000
20
235.085000
11
828.034650
21
232.841010
0
LINE
8
Layer 1
10
803.745000
20
238.175000
11
811.939710
21
236.864980
0
LINE
8
Layer 1
10
730.501000
20
228.622000
11
738.267020
21
231.547580
0
LINE
8
Layer 1
10
722.916000
20
225.254000
11
730.500550
21
228.622130
0
LINE
8
Layer 1
10
715.538000
20
221.454000
11
722.915900
21
225.253500
0
LINE
8
Layer 1
10
708.392000
20
217.236000
11
715.538760
21
221.454250
0
LINE
8
Layer 1
10
701.500000
20
212.613000
11
708.391860
21
217.235970
0
LINE
8
Layer 1
10
694.886000
20
207.601000
11
701.500070
21
212.613350
0
LINE
8
Layer 1
10
688.571000
20
202.216000
11
694.885320
21
207.601080
0
LINE
8
Layer 1
10
682.578000
20
196.476000
11
688.571580
21
202.215910
0
LINE
8
Layer 1
10
671.631000
20
184.009000
11
676.924530
21
190.400270
0
LINE
8
Layer 1
10
666.715000
20
177.323000
11
671.631500
21
184.008620
0
LINE
8
Layer 1
10
662.192000
20
170.365000
11
666.715200
21
177.322770
0
LINE
8
Layer 1
10
658.077000
20
163.159000
11
662.191800
21
170.365800
0
LINE
8
Layer 1
10
654.384000
20
155.727000
11
658.077000
21
163.159000
0
LINE
8
Layer 1
10
648.312000
20
140.287000
11
651.125390
21
148.094350
0
LINE
8
Layer 1
10
645.953000
20
132.331000
11
648.311870
21
140.287460
0
LINE
8
Layer 1
10
644.057000
20
124.251000
11
645.953590
21
132.330150
0
LINE
8
Layer 1
10
642.629000
20
116.076000
11
644.056990
21
124.251000
0
LINE
8
Layer 1
10
641.674000
20
107.833000
11
642.628644
21
116.076690
0
LINE
8
Layer 1
10
641.196000
20
99.547400
11
641.674112
21
107.832740
0
LINE
8
Layer 1
10
641.195000
20
15.427900
11
641.195000
21
99.547400
0
LINE
8
Layer 1
10
641.195000
20
15.427900
11
646.528910
21
15.429876
0
LINE
8
Layer 1
10
646.990000
20
107.372000
11
646.529583
21
99.547420
0
LINE
8
Layer 1
10
647.909000
20
115.310000
11
646.989747
21
107.371790
0
LINE
8
Layer 1
10
649.284000
20
123.182000
11
647.908930
21
115.309940
0
LINE
8
Layer 1
10
651.110000
20
130.962000
11
649.283680
21
123.182230
0
LINE
8
Layer 1
10
653.382000
20
138.624000
11
651.110540
21
130.962370
0
LINE
8
Layer 1
10
656.091000
20
146.142000
11
653.381890
21
138.623960
0
LINE
8
Layer 1
10
659.229000
20
153.491000
11
656.091260
21
146.141520
0
LINE
8
Layer 1
10
662.785000
20
160.648000
11
659.229060
21
153.491500
0
LINE
8
Layer 1
10
666.747000
20
167.587000
11
662.784660
21
160.647250
0
LINE
8
Layer 1
10
671.103000
20
174.287000
11
666.747000
21
167.587000
0
LINE
8
Layer 1
10
675.837000
20
180.725000
11
671.102670
21
174.287120
0
LINE
8
Layer 1
10
680.934000
20
186.880000
11
675.836650
21
180.725570
0
LINE
8
Layer 1
10
686.378000
20
192.730000
11
680.934530
21
186.879460
0
LINE
8
Layer 1
10
692.149000
20
198.257000
11
686.377500
21
192.729790
0
LINE
8
Layer 1
10
698.230000
20
203.443000
11
692.149670
21
198.257470
0
LINE
8
Layer 1
10
704.598000
20
208.270000
11
698.229010
21
203.443390
0
LINE
8
Layer 1
10
711.235000
20
212.721000
11
704.598520
21
208.269330
0
LINE
8
Layer 1
10
718.117000
20
216.783000
11
711.235070
21
212.721070
0
LINE
8
Layer 1
10
725.221000
20
220.442000
11
718.116480
21
216.783300
0
LINE
8
Layer 1
10
732.525000
20
223.685000
11
725.221490
21
220.441680
0
LINE
8
Layer 1
10
747.631000
20
228.884000
11
740.002880
21
226.502350
0
LINE
8
Layer 1
10
755.384000
20
230.822000
11
747.631360
21
228.883770
0
LINE
8
Layer 1
10
763.235000
20
232.311000
11
755.383580
21
230.822640
0
LINE
8
Layer 1
10
771.159000
20
233.344000
11
763.234860
21
232.310450
0
LINE
8
Layer 1
10
779.130000
20
233.919000
11
771.159460
21
233.343688
0
LINE
8
Layer 1
10
787.120000
20
234.035000
11
779.129590
21
233.919842
0
LINE
8
Layer 1
10
795.104000
20
233.689000
11
787.120190
21
234.034378
0
LINE
8
Layer 1
10
803.055000
20
232.884000
11
795.104380
21
233.688767
0
LINE
8
Layer 1
10
810.946000
20
231.623000
11
803.054930
21
232.884480
0
LINE
8
Layer 1
10
818.751000
20
229.909000
11
810.945730
21
231.623000
0
LINE
8
Layer 1
10
826.445000
20
227.748000
11
818.751430
21
229.908840
0
LINE
8
Layer 1
10
834.001000
20
225.148000
11
826.444700
21
227.748490
0
LINE
8
Layer 1
10
841.395000
20
222.116000
11
834.001070
21
225.147500
0
LINE
8
Layer 1
10
848.602000
20
218.664000
11
841.394980
21
222.116450
0
LINE
8
Layer 1
10
855.598000
20
214.802000
11
848.601890
21
218.663920
0
LINE
8
Layer 1
10
868.866000
20
205.902000
11
862.360560
21
210.543070
0
LINE
8
Layer 1
10
875.093000
20
200.894000
11
868.865770
21
205.902150
0
LINE
8
Layer 1
10
881.021000
20
195.535000
11
875.092620
21
200.893600
0
LINE
8
Layer 1
10
886.631000
20
189.844000
11
881.021000
21
195.535000
0
LINE
8
Layer 1
10
891.904000
20
183.839000
11
886.631390
21
189.843980
0
LINE
8
Layer 1
10
896.821000
20
177.540000
11
891.903110
21
183.838770
0
LINE
8
Layer 1
10
901.368000
20
170.969000
11
896.821150
21
177.540640
0
LINE
8
Layer 1
10
909.290000
20
157.095000
11
905.529000
21
164.146000
0
LINE
8
Layer 1
10
912.638000
20
149.839000
11
909.290000
21
157.095000
0
LINE
8
Layer 1
10
923.543000
20
87.410400
11
923.775297
21
95.468540
0
LINE
8
Layer 1
10
922.853000
20
79.449000
11
923.543117
21
87.410410
0
LINE
8
Layer 1
10
921.705000
20
71.540600
11
922.852630
21
79.449020
0
LINE
8
Layer 1
10
920.104000
20
63.711400
11
921.705360
21
71.540570
0
LINE
8
Layer 1
10
912.638000
20
40.957700
11
915.562670
21
48.394550
0
LINE
8
Layer 1
10
909.290000
20
33.701700
11
912.638230
21
40.957700
0
LINE
8
Layer 1
10
896.821000
20
13.256300
11
901.367850
21
19.827940
0
LINE
8
Layer 1
10
891.904000
20
6.957510
11
896.821890
21
13.256280
0
LINE
8
Layer 1
10
886.631000
20
0.952528
11
891.903610
21
6.957508
0
LINE
8
Layer 1
10
881.021000
20
-4.738710
11
886.630810
21
0.952530
0
LINE
8
Layer 1
10
875.093000
20
-10.097300
11
881.021380
21
-4.738700
0
LINE
8
Layer 1
10
868.866000
20
-15.105500
11
875.093230
21
-10.097350
0
LINE
8
Layer 1
10
855.598000
20
-24.005100
11
862.360010
21
-19.746530
0
LINE
8
Layer 1
10
848.602000
20
-27.867000
11
855.598110
21
-24.005080
0
LINE
8
Layer 1
10
841.395000
20
-31.319500
11
848.602020
21
-27.867050
0
LINE
8
Layer 1
10
834.001000
20
-34.351000
11
841.394930
21
-31.319500
0
LINE
8
Layer 1
10
826.445000
20
-36.951500
11
834.001300
21
-34.351010
0
LINE
8
Layer 1
10
818.751000
20
-39.112300
11
826.444570
21
-36.951460
0
LINE
8
Layer 1
10
810.946000
20
-40.826300
11
818.751270
21
-39.112300
0
LINE
8
Layer 1
10
803.055000
20
-42.087800
11
810.946070
21
-40.826320
0
LINE
8
Layer 1
10
795.104000
20
-42.892600
11
803.054620
21
-42.087833
0
LINE
8
Layer 1
10
787.044000
20
-43.241300
11
795.104630
21
-42.892598
0
LINE
8
Layer 1
10
678.848000
20
-43.241300
11
787.044000
21
-43.241300
0
LINE
8
Layer 1
10
-277.095000
20
190.274000
11
-284.573230
21
187.456830
0
LINE
8
Layer 1
10
-371.145000
20
96.102100
11
-368.786100
21
104.058560
0
LINE
8
Layer 1
10
-361.007000
20
109.913000
11
-363.716110
21
102.394960
0
LINE
8
Layer 1
10
-101.536000
20
12.166000
11
-99.044670
21
19.758990
0
LINE
8
Layer 1
10
-370.566000
20
-20.799000
11
-370.569104
21
63.318900
0
LINE
8
Layer 1
10
-375.900000
20
-20.800900
11
-370.566060
21
-20.798924
0
LINE
8
Layer 1
10
-375.900000
20
-20.800900
11
-375.902822
21
63.318900
0
LINE
8
Layer 1
10
-375.902000
20
63.318900
11
-375.423859
21
71.604240
0
LINE
8
Layer 1
10
-375.424000
20
71.604200
11
-374.469356
21
79.847890
0
LINE
8
Layer 1
10
-374.470000
20
79.847900
11
-373.042040
21
88.022900
0
LINE
8
Layer 1
10
-373.042000
20
88.022900
11
-371.145410
21
96.102050
0
LINE
8
Layer 1
10
-368.786000
20
104.059000
11
-365.972640
21
111.866350
0
LINE
8
Layer 1
10
-365.973000
20
111.866000
11
-362.714520
21
119.498300
0
LINE
8
Layer 1
10
-362.714000
20
119.498000
11
-359.021210
21
126.929890
0
LINE
8
Layer 1
10
-359.022000
20
126.930000
11
-354.907180
21
134.136800
0
LINE
8
Layer 1
10
-354.907000
20
134.137000
11
-350.383830
21
141.094770
0
LINE
8
Layer 1
10
-350.384000
20
141.095000
11
-345.467470
21
147.780620
0
LINE
8
Layer 1
10
-345.467000
20
147.780000
11
-340.173000
21
154.172000
0
LINE
8
Layer 1
10
-340.173000
20
154.172000
11
-334.520070
21
160.247680
0
LINE
8
Layer 1
10
-334.521000
20
160.247000
11
-328.527390
21
165.986910
0
LINE
8
Layer 1
10
-328.527000
20
165.987000
11
-322.212680
21
171.372080
0
LINE
8
Layer 1
10
-322.213000
20
171.372000
11
-315.598930
21
176.384350
0
LINE
8
Layer 1
10
-315.599000
20
176.385000
11
-308.707140
21
181.007980
0
LINE
8
Layer 1
10
-308.707000
20
181.008000
11
-301.560240
21
185.226240
0
LINE
8
Layer 1
10
-301.560000
20
185.226000
11
-294.182100
21
189.025500
0
LINE
8
Layer 1
10
-294.182000
20
189.025000
11
-286.597450
21
192.393130
0
LINE
8
Layer 1
10
-286.597000
20
192.393000
11
-278.831000
21
195.318580
0
LINE
8
Layer 1
10
-278.831000
20
195.319000
11
-270.909350
21
197.792300
0
LINE
8
Layer 1
10
-270.910000
20
197.792000
11
-262.859020
21
199.804810
0
LINE
8
Layer 1
10
-262.859000
20
199.805000
11
-254.705430
21
201.350640
0
LINE
8
Layer 1
10
-254.705000
20
201.351000
11
-246.475930
21
202.424330
0
LINE
8
Layer 1
10
-246.476000
20
202.424000
11
-238.198760
21
203.021450
0
LINE
8
Layer 1
10
-238.199000
20
203.022000
11
-229.901080
21
203.141589
0
LINE
8
Layer 1
10
-229.901000
20
203.141000
11
-221.609980
21
202.782333
0
LINE
8
Layer 1
10
-221.610000
20
202.782000
11
-213.353410
21
201.946264
0
LINE
8
Layer 1
10
-213.353000
20
201.947000
11
-205.158280
21
200.636970
0
LINE
8
Layer 1
10
-205.159000
20
200.637000
11
-197.053360
21
198.857040
0
LINE
8
Layer 1
10
-197.053000
20
198.857000
11
-189.063370
21
196.613010
0
LINE
8
Layer 1
10
-189.063000
20
196.613000
11
-181.215920
21
193.912440
0
LINE
8
Layer 1
10
-181.216000
20
193.912000
11
-173.537540
21
190.763840
0
LINE
8
Layer 1
10
-173.538000
20
190.764000
11
-166.053660
21
187.178700
0
LINE
8
Layer 1
10
-166.054000
20
187.179000
11
-158.788650
21
183.168460
0
LINE
8
Layer 1
10
-158.788000
20
183.168000
11
-151.765770
21
178.745550
0
LINE
8
Layer 1
10
-151.766000
20
178.746000
11
-145.010220
21
173.926330
0
LINE
8
Layer 1
10
-145.010000
20
173.926000
11
-138.543110
21
168.725130
0
LINE
8
Layer 1
10
-138.543000
20
168.725000
11
-132.386490
21
163.160190
0
LINE
8
Layer 1
10
-132.387000
20
163.160000
11
-126.561310
21
157.249750
0
LINE
8
Layer 1
10
-126.561000
20
157.250000
11
-121.085490
21
151.013940
0
LINE
8
Layer 1
10
-121.086000
20
151.014000
11
-115.978860
21
144.472840
0
LINE
8
Layer 1
10
-115.978000
20
144.473000
11
-111.256190
21
137.648470
0
LINE
8
Layer 1
10
-111.257000
20
137.648000
11
-106.936210
21
130.562770
0
LINE
8
Layer 1
10
-106.936000
20
130.563000
11
-103.030580
21
123.240610
0
LINE
8
Layer 1
10
-103.030000
20
123.241000
11
-99.552920
21
115.705770
0
LINE
8
Layer 1
10
-99.553300
20
115.706000
11
-96.516110
21
107.982970
0
LINE
8
Layer 1
10
-96.516100
20
107.982000
11
-93.928900
21
100.096820
0
LINE
8
Layer 1
10
-93.928900
20
100.097000
11
-91.800280
21
92.075860
0
LINE
8
Layer 1
10
-91.800300
20
92.076200
11
-90.137330
21
83.945750
0
LINE
8
Layer 1
10
-90.137400
20
83.945700
11
-88.945600
21
75.732950
0
LINE
8
Layer 1
10
-88.945600
20
75.732900
11
-88.228821
21
67.463820
0
LINE
8
Layer 1
10
-88.228800
20
67.463900
11
-87.987698
21
59.241390
0
LINE
8
Layer 1
10
-87.987700
20
59.241400
11
-88.228915
21
50.874550
0
LINE
8
Layer 1
10
-88.228900
20
50.874500
11
-88.945566
21
42.606730
0
LINE
8
Layer 1
10
-88.945600
20
42.606700
11
-90.137400
21
34.393940
0
LINE
8
Layer 1
10
-90.137400
20
34.394000
11
-91.800370
21
26.263550
0
LINE
8
Layer 1
10
-91.800300
20
26.263500
11
-93.928920
21
18.242360
0
LINE
8
Layer 1
10
-93.928900
20
18.242400
11
-96.516100
21
10.357220
0
LINE
8
Layer 1
10
-96.516100
20
10.357200
11
-99.553290
21
2.634170
0
LINE
8
Layer 1
10
-99.553300
20
2.634180
11
-103.030380
21
-4.901050
0
LINE
8
Layer 1
10
-103.030000
20
-4.901050
11
-106.935420
21
-12.223440
0
LINE
8
Layer 1
10
-106.936000
20
-12.223400
11
-111.256790
21
-19.308630
0
LINE
8
Layer 1
10
-111.257000
20
-19.308700
11
-115.978810
21
-26.133230
0
LINE
8
Layer 1
10
-115.978000
20
-26.133200
11
-121.085140
21
-32.674360
0
LINE
8
Layer 1
10
-121.086000
20
-32.674400
11
-126.561510
21
-38.910460
0
LINE
8
Layer 1
10
-126.561000
20
-38.910400
11
-132.386690
21
-44.820650
0
LINE
8
Layer 1
10
-132.387000
20
-44.820700
11
-138.543510
21
-50.385510
0
LINE
8
Layer 1
10
-138.543000
20
-50.385500
11
-145.010000
21
-55.586400
0
LINE
8
Layer 1
10
-145.010000
20
-55.586400
11
-151.765780
21
-60.406060
0
LINE
8
Layer 1
10
-151.766000
20
-60.406000
11
-158.788230
21
-64.828450
0
LINE
8
Layer 1
10
-158.788000
20
-64.828500
11
-166.053350
21
-68.839040
0
LINE
8
Layer 1
10
-166.054000
20
-68.839000
11
-173.538340
21
-72.424300
0
LINE
8
Layer 1
10
-173.538000
20
-72.424300
11
-181.216460
21
-75.572460
0
LINE
8
Layer 1
10
-181.216000
20
-75.572500
11
-189.063080
21
-78.273060
0
LINE
8
Layer 1
10
-189.063000
20
-78.273000
11
-197.052630
21
-80.516990
0
LINE
8
Layer 1
10
-197.053000
20
-80.517000
11
-205.158640
21
-82.296970
0
LINE
8
Layer 1
10
-205.159000
20
-82.297000
11
-213.353720
21
-83.607020
0
LINE
8
Layer 1
10
-213.353000
20
-83.607000
11
-221.609590
21
-84.442736
0
LINE
8
Layer 1
10
-221.610000
20
-84.442700
11
-229.939440
21
-84.803030
0
LINE
8
Layer 1
10
-229.939000
20
-84.803100
11
-338.249000
21
-84.803382
0
LINE
8
Layer 1
10
-338.250000
20
-84.803400
11
-338.250000
21
-79.470100
0
LINE
8
Layer 1
10
-338.250000
20
-79.470100
11
-230.055000
21
-79.469818
0
LINE
8
Layer 1
10
-230.055000
20
-79.469700
11
-221.994370
21
-79.120998
0
LINE
8
Layer 1
10
-221.994000
20
-79.121000
11
-214.043370
21
-78.316233
0
LINE
8
Layer 1
10
-214.043000
20
-78.316300
11
-206.151940
21
-77.054820
0
LINE
8
Layer 1
10
-206.152000
20
-77.054800
11
-198.346720
21
-75.340800
0
LINE
8
Layer 1
10
-198.347000
20
-75.340800
11
-190.653430
21
-73.179960
0
LINE
8
Layer 1
10
-190.654000
20
-73.180000
11
-183.097700
21
-70.579510
0
LINE
8
Layer 1
10
-183.097000
20
-70.579500
11
-175.703070
21
-67.548000
0
LINE
8
Layer 1
10
-175.703000
20
-67.548000
11
-168.496000
21
-64.095550
0
LINE
8
Layer 1
10
-168.496000
20
-64.095500
11
-161.499870
21
-60.233580
0
LINE
8
Layer 1
10
-161.500000
20
-60.233600
11
-154.737990
21
-55.975030
0
LINE
8
Layer 1
10
-154.738000
20
-55.975000
11
-148.232560
21
-51.333930
0
LINE
8
Layer 1
10
-148.233000
20
-51.334000
11
-142.005750
21
-46.325850
0
LINE
8
Layer 1
10
-142.006000
20
-46.325800
11
-136.077620
21
-40.967200
0
LINE
8
Layer 1
10
-136.077000
20
-40.967200
11
-130.467190
21
-35.275960
0
LINE
8
Layer 1
10
-130.467000
20
-35.276000
11
-125.194390
21
-29.271020
0
LINE
8
Layer 1
10
-125.195000
20
-29.271000
11
-120.277110
21
-22.972230
0
LINE
8
Layer 1
10
-120.277000
20
-22.972200
11
-115.730160
21
-16.400560
0
LINE
8
Layer 1
10
-115.730000
20
-16.400600
11
-111.569320
21
-9.577920
0
LINE
8
Layer 1
10
-111.569000
20
-9.577890
11
-107.808300
21
-2.526840
0
LINE
8
Layer 1
10
-107.809000
20
-2.526840
11
-104.460770
21
4.729160
0
LINE
8
Layer 1
10
-104.460000
20
4.729160
11
-101.535360
21
12.166010
0
LINE
8
Layer 1
10
-99.044400
20
19.759000
11
-96.994660
21
27.482910
0
LINE
8
Layer 1
10
-96.994700
20
27.482900
11
-95.393350
21
35.312070
0
LINE
8
Layer 1
10
-95.393300
20
35.312100
11
-94.245660
21
43.220520
0
LINE
8
Layer 1
10
-94.245700
20
43.220500
11
-93.555591
21
51.181910
0
LINE
8
Layer 1
10
-93.555600
20
51.181900
11
-93.323283
21
59.240040
0
LINE
8
Layer 1
10
-93.323300
20
59.240000
11
-93.555391
21
67.155120
0
LINE
8
Layer 1
10
-93.555300
20
67.155200
11
-94.245635
21
75.119220
0
LINE
8
Layer 1
10
-94.245700
20
75.119200
11
-95.393340
21
83.027620
0
LINE
8
Layer 1
10
-95.393300
20
83.027600
11
-96.994650
21
90.856770
0
LINE
8
Layer 1
10
-96.994700
20
90.856800
11
-99.044440
21
98.580710
0
LINE
8
Layer 1
10
-99.044400
20
98.580700
11
-101.535730
21
106.173690
0
LINE
8
Layer 1
10
-101.536000
20
106.174000
11
-104.460000
21
113.611000
0
LINE
8
Layer 1
10
-104.460000
20
113.611000
11
-107.808230
21
120.867000
0
LINE
8
Layer 1
10
-107.809000
20
120.867000
11
-111.569700
21
127.918050
0
LINE
8
Layer 1
10
-111.569000
20
127.918000
11
-115.729680
21
134.740680
0
LINE
8
Layer 1
10
-115.730000
20
134.740000
11
-120.277000
21
141.312000
0
LINE
8
Layer 1
10
-120.277000
20
141.312000
11
-125.195000
21
147.611000
0
LINE
8
Layer 1
10
-125.195000
20
147.611000
11
-130.467610
21
153.615980
0
LINE
8
Layer 1
10
-130.467000
20
153.616000
11
-136.076810
21
159.307240
0
LINE
8
Layer 1
10
-136.077000
20
159.307000
11
-142.006000
21
164.665000
0
LINE
8
Layer 1
10
-142.006000
20
164.665000
11
-148.233250
21
169.673150
0
LINE
8
Layer 1
10
-148.233000
20
169.674000
11
-154.738440
21
174.315070
0
LINE
8
Layer 1
10
-154.738000
20
174.315000
11
-161.500010
21
178.573570
0
LINE
8
Layer 1
10
-161.500000
20
178.573000
11
-168.496130
21
182.434920
0
LINE
8
Layer 1
10
-168.496000
20
182.435000
11
-175.703000
21
185.887450
0
LINE
8
Layer 1
10
-175.703000
20
185.888000
11
-183.096930
21
188.919500
0
LINE
8
Layer 1
10
-183.097000
20
188.919000
11
-190.653300
21
191.519490
0
LINE
8
Layer 1
10
-190.654000
20
191.520000
11
-198.347570
21
193.680840
0
LINE
8
Layer 1
10
-198.347000
20
193.680000
11
-206.152280
21
195.394010
0
LINE
8
Layer 1
10
-206.152000
20
195.394000
11
-214.043060
21
196.655480
0
LINE
8
Layer 1
10
-214.043000
20
196.656000
11
-221.993630
21
197.460766
0
LINE
8
Layer 1
10
-221.994000
20
197.461000
11
-229.977790
21
197.806377
0
LINE
8
Layer 1
10
-229.978000
20
197.806000
11
-237.968430
21
197.690842
0
LINE
8
Layer 1
10
-237.968000
20
197.691000
11
-245.938520
21
197.115690
0
LINE
8
Layer 1
10
-245.939000
20
197.116000
11
-253.863140
21
196.082450
0
LINE
8
Layer 1
10
-253.863000
20
196.082000
11
-261.714430
21
194.593640
0
LINE
8
Layer 1
10
-261.714000
20
194.594000
11
-269.466640
21
192.655770
0
LINE
8
Layer 1
10
-269.467000
20
192.655000
11
-277.095100
21
190.273350
0
LINE
8
Layer 1
10
-284.573000
20
187.457000
11
-291.876480
21
184.213680
0
LINE
8
Layer 1
10
-291.877000
20
184.213000
11
-298.981520
21
180.554300
0
LINE
8
Layer 1
10
-298.981000
20
180.555000
11
-305.862930
21
176.493070
0
LINE
8
Layer 1
10
-305.863000
20
176.493000
11
-312.499480
21
172.041330
0
LINE
8
Layer 1
10
-312.500000
20
172.041000
11
-318.868990
21
167.214390
0
LINE
8
Layer 1
10
-318.869000
20
167.214000
11
-324.949330
21
162.028470
0
LINE
8
Layer 1
10
-324.949000
20
162.029000
11
-330.720500
21
156.501790
0
LINE
8
Layer 1
10
-330.721000
20
156.502000
11
-336.164470
21
150.651460
0
LINE
8
Layer 1
10
-336.164000
20
150.651000
11
-341.261380
21
144.496570
0
LINE
8
Layer 1
10
-341.261000
20
144.497000
11
-345.995330
21
138.059120
0
LINE
8
Layer 1
10
-345.996000
20
138.059000
11
-350.351560
21
131.359060
0
LINE
8
Layer 1
10
-350.351000
20
131.359000
11
-354.313340
21
124.419250
0
LINE
8
Layer 1
10
-354.314000
20
124.419000
11
-357.869940
21
117.262500
0
LINE
8
Layer 1
10
-357.870000
20
117.263000
11
-361.007740
21
109.913520
0
LINE
8
Layer 1
10
-363.717000
20
102.395000
11
-365.988490
21
94.733370
0
LINE
8
Layer 1
10
-365.988000
20
94.733500
11
-367.814290
21
86.953730
0
LINE
8
Layer 1
10
-367.814000
20
86.953700
11
-369.189070
21
79.081640
0
LINE
8
Layer 1
10
-369.189000
20
79.081700
11
-370.108253
21
71.143490
0
LINE
8
Layer 1
10
-370.109000
20
71.143500
11
-370.569417
21
63.318920
0
LINE
8
Layer 1
10
548.542000
20
-233.619000
11
547.428210
21
-231.357560
0
LINE
8
Layer 1
10
546.064000
20
-229.238000
11
544.466310
21
-227.288130
0
LINE
8
Layer 1
10
550.250000
20
-240.953000
11
549.962218
21
-238.448650
0
LINE
8
Layer 1
10
549.962000
20
-245.978000
11
550.249782
21
-243.473620
0
LINE
8
Layer 1
10
544.466000
20
-338.787000
11
544.466000
21
-257.138000
0
LINE
8
Layer 1
10
549.962000
20
-238.448000
11
549.390218
21
-235.992870
0
LINE
8
Layer 1
10
549.391000
20
-248.433000
11
549.962782
21
-245.977870
0
LINE
8
Layer 1
10
547.428000
20
-231.358000
11
546.063340
21
-229.238480
0
LINE
8
Layer 1
10
550.250000
20
-243.474000
11
550.250000
21
-240.953000
0
LINE
8
Layer 1
10
555.133000
20
-159.081000
11
555.133000
21
-338.787000
0
LINE
8
Layer 1
10
547.428000
20
-253.068000
11
548.541790
21
-250.806560
0
LINE
8
Layer 1
10
544.466000
20
-257.138000
11
546.063690
21
-255.188130
0
LINE
8
Layer 1
10
546.064000
20
-255.188000
11
547.428660
21
-253.068480
0
LINE
8
Layer 1
10
548.542000
20
-250.807000
11
549.390331
21
-248.433200
0
LINE
8
Layer 1
10
549.391000
20
-235.993000
11
548.542669
21
-233.619200
0
LINE
8
Layer 1
10
544.466000
20
-227.289000
11
544.466000
21
-159.081000
0
LINE
8
Layer 1
10
544.466000
20
-159.081000
11
555.133000
21
-159.081000
0
LINE
8
Layer 1
10
555.133000
20
-338.787000
11
544.466000
21
-338.787000
0
LINE
8
Layer 1
10
589.815000
20
-322.172000
11
579.135000
21
-322.172000
0
LINE
8
Layer 1
10
579.135000
20
-322.172000
11
579.135000
21
-181.879000
0
LINE
8
Layer 1
10
579.135000
20
-181.879000
11
589.815000
21
-181.879000
0
LINE
8
Layer 1
10
589.815000
20
-181.879000
11
589.815000
21
-322.172000
0
LINE
8
Layer 1
10
625.591000
20
-245.656000
11
625.591000
21
-256.323000
0
LINE
8
Layer 1
10
929.589000
20
-256.323000
11
929.589000
21
-245.656000
0
LINE
8
Layer 1
10
625.591000
20
-256.323000
11
929.589000
21
-256.323000
0
LINE
8
Layer 1
10
929.589000
20
-245.656000
11
625.591000
21
-245.656000
0
LINE
8
Layer 1
10
741.608000
20
-306.476000
11
741.608000
21
-317.143000
0
LINE
8
Layer 1
10
741.608000
20
-317.143000
11
609.079000
21
-317.143000
0
LINE
8
Layer 1
10
609.079000
20
-317.143000
11
609.079000
21
-306.476000
0
LINE
8
Layer 1
10
609.079000
20
-306.476000
11
741.608000
21
-306.476000
0
LINE
8
Layer 1
10
727.991000
20
-96.627600
11
717.324300
21
-96.629858
0
LINE
8
Layer 1
10
717.325000
20
-96.629800
11
717.338264
21
-160.629800
0
LINE
8
Layer 1
10
717.338000
20
-160.630000
11
728.004600
21
-160.627178
0
LINE
8
Layer 1
10
728.005000
20
-160.628000
11
727.991736
21
-96.628100
0
LINE
8
Layer 1
10
698.277000
20
-88.955500
11
708.943700
21
-88.957758
0
LINE
8
Layer 1
10
708.944000
20
-88.957700
11
708.925938
21
-175.628000
0
LINE
8
Layer 1
10
708.926000
20
-175.628000
11
698.259300
21
-175.625178
0
LINE
8
Layer 1
10
698.259000
20
-175.626000
11
698.277062
21
-88.955700
0
LINE
8
Layer 1
10
668.531000
20
-101.436000
11
668.516324
21
-172.106800
0
LINE
8
Layer 1
10
657.850000
20
-172.104000
11
657.864675
21
-101.433200
0
LINE
8
Layer 1
10
668.516000
20
-172.107000
11
657.849300
21
-172.104178
0
LINE
8
Layer 1
10
657.864000
20
-101.434000
11
668.530700
21
-101.436258
0
LINE
8
Layer 1
10
631.310000
20
-175.466000
11
620.643300
21
-175.463178
0
LINE
8
Layer 1
10
620.657000
20
-111.464000
11
631.323700
21
-111.466258
0
LINE
8
Layer 1
10
631.323000
20
-111.466000
11
631.309736
21
-175.466000
0
LINE
8
Layer 1
10
620.643000
20
-175.464000
11
620.656264
21
-111.464100
0
LINE
8
Layer 1
10
-46.806100
20
-392.181000
11
-46.806100
21
-386.846000
0
LINE
8
Layer 1
10
-88.219500
20
-448.830000
11
-93.531000
21
-448.830000
0
LINE
8
Layer 1
10
-4.155650
20
-548.180000
11
37.262150
21
-548.188467
0
LINE
8
Layer 1
10
-4.155650
20
-548.180000
11
-4.155927
21
-553.513350
0
LINE
8
Layer 1
10
-88.207700
20
-392.164000
11
-88.219469
21
-448.830300
0
LINE
8
Layer 1
10
-88.228300
20
-491.497000
11
-88.240069
21
-548.163300
0
LINE
8
Layer 1
10
37.262200
20
-548.189000
11
37.273969
21
-491.522700
0
LINE
8
Layer 1
10
-46.806100
20
-392.181000
11
-88.207700
21
-392.163502
0
LINE
8
Layer 1
10
37.278400
20
-448.856000
11
37.294628
21
-392.189700
0
LINE
8
Layer 1
10
-88.228300
20
-491.497000
11
-93.539900
21
-491.497000
0
LINE
8
Layer 1
10
-46.822300
20
-548.180000
11
-46.822577
21
-553.513350
0
LINE
8
Layer 1
10
-88.240100
20
-548.163000
11
-46.822300
21
-548.180498
0
LINE
8
Layer 1
10
-4.155930
20
-553.514000
11
-46.822600
21
-553.514000
0
LINE
8
Layer 1
10
37.274000
20
-491.523000
11
31.940600
21
-491.523000
0
LINE
8
Layer 1
10
37.278400
20
-448.856000
11
31.945100
21
-448.856000
0
LINE
8
Layer 1
10
-4.139440
20
-392.181000
11
-4.139440
21
-386.846000
0
LINE
8
Layer 1
10
-4.139440
20
-386.846000
11
-46.806100
21
-386.846000
0
LINE
8
Layer 1
10
-93.531000
20
-448.829000
11
-93.539862
21
-491.495600
0
LINE
8
Layer 1
10
-4.139440
20
-392.181000
11
37.294660
21
-392.189749
0
LINE
8
Layer 1
10
31.945100
20
-448.855000
11
31.940669
21
-491.521600
0
LINE
8
Layer 1
10
-138.951000
20
-478.048000
11
-138.950994
21
-375.369000
0
LINE
8
Layer 1
10
-490.949000
20
-520.731000
11
-490.949000
21
-478.065000
0
LINE
8
Layer 1
10
-496.282000
20
-520.731000
11
-490.949000
21
-520.731000
0
LINE
8
Layer 1
10
-496.282000
20
-478.065000
11
-490.949000
21
-478.065000
0
LINE
8
Layer 1
10
-292.142000
20
-562.116000
11
-292.142000
21
-567.449000
0
LINE
8
Layer 1
10
-144.284000
20
-520.714000
11
-144.284000
21
-478.048000
0
LINE
8
Layer 1
10
-474.949000
20
-457.874000
11
-475.039847
21
-457.183798
0
LINE
8
Layer 1
10
-358.069000
20
-554.649000
11
-358.069000
21
-488.192000
0
LINE
8
Layer 1
10
-138.951000
20
-562.116000
11
-138.951006
21
-520.714800
0
LINE
8
Layer 1
10
-496.282000
20
-375.369000
11
-138.951000
21
-375.369000
0
LINE
8
Layer 1
10
-496.282000
20
-478.065000
11
-496.282000
21
-375.369000
0
LINE
8
Layer 1
10
-496.282000
20
-562.116000
11
-496.282000
21
-520.731000
0
LINE
8
Layer 1
10
-419.728000
20
-562.116000
11
-496.282000
21
-562.116000
0
LINE
8
Layer 1
10
-419.728000
20
-562.116000
11
-419.728000
21
-567.449000
0
LINE
8
Layer 1
10
-402.666000
20
-567.449000
11
-419.728000
21
-567.449000
0
LINE
8
Layer 1
10
-402.666000
20
-562.116000
11
-402.666028
21
-567.449320
0
LINE
8
Layer 1
10
-292.142000
20
-562.116000
11
-402.666000
21
-562.116000
0
LINE
8
Layer 1
10
-249.475000
20
-567.449000
11
-292.142000
21
-567.449000
0
LINE
8
Layer 1
10
-249.475000
20
-562.116000
11
-249.475000
21
-567.449000
0
LINE
8
Layer 1
10
-138.951000
20
-562.116000
11
-249.475000
21
-562.116000
0
LINE
8
Layer 1
10
-138.951000
20
-520.714000
11
-144.284000
21
-520.714000
0
LINE
8
Layer 1
10
-138.951000
20
-478.048000
11
-144.284000
21
-478.048000
0
LINE
8
Layer 1
10
-368.116000
20
-463.285000
11
-368.585335
21
-463.223222
0
LINE
8
Layer 1
10
-368.585000
20
-463.223000
11
-369.022331
21
-463.041842
0
LINE
8
Layer 1
10
-369.023000
20
-463.042000
11
-369.398553
21
-462.753823
0
LINE
8
Layer 1
10
-369.398000
20
-462.754000
11
-369.686177
21
-462.378447
0
LINE
8
Layer 1
10
-369.686000
20
-462.378000
11
-369.867158
21
-461.940669
0
LINE
8
Layer 1
10
-369.868000
20
-461.941000
11
-369.929778
21
-461.471665
0
LINE
8
Layer 1
10
-369.929000
20
-461.471000
11
-369.867222
21
-461.001693
0
LINE
8
Layer 1
10
-369.868000
20
-461.002000
11
-369.686842
21
-460.564641
0
LINE
8
Layer 1
10
-369.686000
20
-460.565000
11
-369.397823
21
-460.189447
0
LINE
8
Layer 1
10
-369.398000
20
-460.189000
11
-369.022447
21
-459.900851
0
LINE
8
Layer 1
10
-369.023000
20
-459.901000
11
-368.585669
21
-459.719842
0
LINE
8
Layer 1
10
-368.585000
20
-459.720000
11
-368.115665
21
-459.658193
0
LINE
8
Layer 1
10
-368.116000
20
-459.658000
11
-367.646665
21
-459.719807
0
LINE
8
Layer 1
10
-367.647000
20
-459.720000
11
-367.209669
21
-459.901158
0
LINE
8
Layer 1
10
-367.209000
20
-459.901000
11
-366.833447
21
-460.189149
0
LINE
8
Layer 1
10
-366.834000
20
-460.189000
11
-366.545823
21
-460.564553
0
LINE
8
Layer 1
10
-366.546000
20
-460.565000
11
-366.364842
21
-461.002359
0
LINE
8
Layer 1
10
-366.365000
20
-461.002000
11
-366.303222
21
-461.471307
0
LINE
8
Layer 1
10
-366.303000
20
-461.471000
11
-366.364778
21
-461.940335
0
LINE
8
Layer 1
10
-366.365000
20
-461.941000
11
-366.546158
21
-462.378331
0
LINE
8
Layer 1
10
-366.546000
20
-462.378000
11
-366.834177
21
-462.753553
0
LINE
8
Layer 1
10
-366.834000
20
-462.754000
11
-367.209553
21
-463.042177
0
LINE
8
Layer 1
10
-367.209000
20
-463.042000
11
-367.646331
21
-463.223158
0
LINE
8
Layer 1
10
-367.647000
20
-463.223000
11
-368.116335
21
-463.284778
0
LINE
8
Layer 1
10
-445.221000
20
-459.658000
11
-444.751665
21
-459.719807
0
LINE
8
Layer 1
10
-444.752000
20
-459.720000
11
-444.314669
21
-459.901158
0
LINE
8
Layer 1
10
-444.314000
20
-459.901000
11
-443.938447
21
-460.189149
0
LINE
8
Layer 1
10
-443.939000
20
-460.189000
11
-443.650823
21
-460.564553
0
LINE
8
Layer 1
10
-443.650000
20
-460.565000
11
-443.468842
21
-461.002359
0
LINE
8
Layer 1
10
-443.469000
20
-461.002000
11
-443.407222
21
-461.471307
0
LINE
8
Layer 1
10
-443.408000
20
-461.471000
11
-443.469778
21
-461.940335
0
LINE
8
Layer 1
10
-443.469000
20
-461.941000
11
-443.650158
21
-462.378331
0
LINE
8
Layer 1
10
-443.650000
20
-462.378000
11
-443.938177
21
-462.753553
0
LINE
8
Layer 1
10
-443.939000
20
-462.754000
11
-444.314553
21
-463.042177
0
LINE
8
Layer 1
10
-444.314000
20
-463.042000
11
-444.751331
21
-463.223158
0
LINE
8
Layer 1
10
-444.752000
20
-463.223000
11
-445.221335
21
-463.284778
0
LINE
8
Layer 1
10
-445.221000
20
-463.285000
11
-445.690335
21
-463.223222
0
LINE
8
Layer 1
10
-445.690000
20
-463.223000
11
-446.127331
21
-463.041842
0
LINE
8
Layer 1
10
-446.128000
20
-463.042000
11
-446.503553
21
-462.753823
0
LINE
8
Layer 1
10
-446.503000
20
-462.754000
11
-446.791177
21
-462.378447
0
LINE
8
Layer 1
10
-446.791000
20
-462.378000
11
-446.972158
21
-461.940669
0
LINE
8
Layer 1
10
-446.972000
20
-461.941000
11
-447.033778
21
-461.471665
0
LINE
8
Layer 1
10
-447.034000
20
-461.471000
11
-446.972222
21
-461.001693
0
LINE
8
Layer 1
10
-446.972000
20
-461.002000
11
-446.790842
21
-460.564641
0
LINE
8
Layer 1
10
-446.791000
20
-460.565000
11
-446.502823
21
-460.189447
0
LINE
8
Layer 1
10
-446.503000
20
-460.189000
11
-446.127447
21
-459.900851
0
LINE
8
Layer 1
10
-446.128000
20
-459.901000
11
-445.690669
21
-459.719842
0
LINE
8
Layer 1
10
-445.690000
20
-459.720000
11
-445.220665
21
-459.658193
0
LINE
8
Layer 1
10
-242.727000
20
-383.983000
11
-242.665213
21
-384.452335
0
LINE
8
Layer 1
10
-242.665000
20
-384.452000
11
-242.726787
21
-384.921335
0
LINE
8
Layer 1
10
-242.727000
20
-384.922000
11
-242.908153
21
-385.359331
0
LINE
8
Layer 1
10
-242.908000
20
-385.359000
11
-243.196171
21
-385.734553
0
LINE
8
Layer 1
10
-243.196000
20
-385.735000
11
-243.571553
21
-386.023177
0
LINE
8
Layer 1
10
-243.571000
20
-386.023000
11
-244.008343
21
-386.204158
0
LINE
8
Layer 1
10
-244.009000
20
-386.204000
11
-244.478324
21
-386.265778
0
LINE
8
Layer 1
10
-244.478000
20
-386.266000
11
-244.947327
21
-386.204222
0
LINE
8
Layer 1
10
-244.947000
20
-386.204000
11
-245.384340
21
-386.022842
0
LINE
8
Layer 1
10
-245.385000
20
-386.023000
11
-245.760553
21
-385.734823
0
LINE
8
Layer 1
10
-245.760000
20
-385.735000
11
-246.048174
21
-385.359447
0
LINE
8
Layer 1
10
-246.049000
20
-385.359000
11
-246.230153
21
-384.921669
0
LINE
8
Layer 1
10
-246.230000
20
-384.922000
11
-246.291787
21
-384.452665
0
LINE
8
Layer 1
10
-246.291000
20
-384.452000
11
-246.229213
21
-383.982665
0
LINE
8
Layer 1
10
-246.230000
20
-383.983000
11
-246.048847
21
-383.545669
0
LINE
8
Layer 1
10
-246.049000
20
-383.546000
11
-245.760826
21
-383.170447
0
LINE
8
Layer 1
10
-245.760000
20
-383.170000
11
-245.384447
21
-382.881823
0
LINE
8
Layer 1
10
-245.385000
20
-382.882000
11
-244.947660
21
-382.700842
0
LINE
8
Layer 1
10
-244.947000
20
-382.701000
11
-244.477673
21
-382.639222
0
LINE
8
Layer 1
10
-244.478000
20
-382.639000
11
-244.008676
21
-382.700778
0
LINE
8
Layer 1
10
-244.009000
20
-382.701000
11
-243.571657
21
-382.882158
0
LINE
8
Layer 1
10
-243.571000
20
-382.882000
11
-243.195447
21
-383.170177
0
LINE
8
Layer 1
10
-243.196000
20
-383.170000
11
-242.907829
21
-383.545553
0
LINE
8
Layer 1
10
-242.908000
20
-383.546000
11
-242.726847
21
-383.983331
0
LINE
8
Layer 1
10
-161.830000
20
-465.676000
11
-161.356827
21
-465.662171
0
LINE
8
Layer 1
10
-161.357000
20
-465.662000
11
-160.896394
21
-465.771192
0
LINE
8
Layer 1
10
-160.896000
20
-465.772000
11
-160.479350
21
-465.996705
0
LINE
8
Layer 1
10
-160.479000
20
-465.996000
11
-160.134706
21
-466.320866
0
LINE
8
Layer 1
10
-160.135000
20
-466.321000
11
-159.886520
21
-466.723928
0
LINE
8
Layer 1
10
-159.887000
20
-466.724000
11
-159.751268
21
-467.177503
0
LINE
8
Layer 1
10
-159.751000
20
-467.178000
11
-159.737284
21
-467.651173
0
LINE
8
Layer 1
10
-159.737000
20
-467.651000
11
-159.846203
21
-468.111586
0
LINE
8
Layer 1
10
-159.846000
20
-468.111000
11
-160.070694
21
-468.527644
0
LINE
8
Layer 1
10
-160.071000
20
-468.528000
11
-160.395877
21
-468.872311
0
LINE
8
Layer 1
10
-160.396000
20
-468.872000
11
-160.798914
21
-469.120468
0
LINE
8
Layer 1
10
-160.799000
20
-469.121000
11
-161.252500
21
-469.256749
0
LINE
8
Layer 1
10
-161.252000
20
-469.257000
11
-161.725176
21
-469.270829
0
LINE
8
Layer 1
10
-161.726000
20
-469.270000
11
-162.186606
21
-469.160808
0
LINE
8
Layer 1
10
-162.186000
20
-469.161000
11
-162.602647
21
-468.936295
0
LINE
8
Layer 1
10
-162.603000
20
-468.936000
11
-162.947294
21
-468.611134
0
LINE
8
Layer 1
10
-162.947000
20
-468.612000
11
-163.195482
21
-468.209072
0
LINE
8
Layer 1
10
-163.196000
20
-468.209000
11
-163.331729
21
-467.755497
0
LINE
8
Layer 1
10
-163.331000
20
-467.755000
11
-163.344744
21
-467.281827
0
LINE
8
Layer 1
10
-163.345000
20
-467.282000
11
-163.235797
21
-466.821414
0
LINE
8
Layer 1
10
-163.236000
20
-466.821000
11
-163.011303
21
-466.404356
0
LINE
8
Layer 1
10
-163.011000
20
-466.405000
11
-162.686126
21
-466.060689
0
LINE
8
Layer 1
10
-162.686000
20
-466.060000
11
-162.283083
21
-465.811532
0
LINE
8
Layer 1
10
-162.283000
20
-465.812000
11
-161.829500
21
-465.676251
0
LINE
8
Layer 1
10
-244.769000
20
-552.302000
11
-245.228079
21
-552.186543
0
LINE
8
Layer 1
10
-245.228000
20
-552.186000
11
-245.641557
21
-551.955650
0
LINE
8
Layer 1
10
-245.642000
20
-551.956000
11
-245.981852
21
-551.626478
0
LINE
8
Layer 1
10
-245.981000
20
-551.626000
11
-246.223982
21
-551.219741
0
LINE
8
Layer 1
10
-246.224000
20
-551.220000
11
-246.353560
21
-550.764719
0
LINE
8
Layer 1
10
-246.354000
20
-550.765000
11
-246.361310
21
-550.291685
0
LINE
8
Layer 1
10
-246.361000
20
-550.291000
11
-246.245549
21
-549.831909
0
LINE
8
Layer 1
10
-246.246000
20
-549.832000
11
-246.015667
21
-549.418432
0
LINE
8
Layer 1
10
-246.015000
20
-549.419000
11
-245.685475
21
-549.079148
0
LINE
8
Layer 1
10
-245.686000
20
-549.079000
11
-245.279747
21
-548.836035
0
LINE
8
Layer 1
10
-245.280000
20
-548.836000
11
-244.824700
21
-548.706432
0
LINE
8
Layer 1
10
-244.824000
20
-548.706000
11
-244.350683
21
-548.698662
0
LINE
8
Layer 1
10
-244.351000
20
-548.699000
11
-243.891918
21
-548.814457
0
LINE
8
Layer 1
10
-243.892000
20
-548.815000
11
-243.478443
21
-549.045350
0
LINE
8
Layer 1
10
-243.478000
20
-549.045000
11
-243.138151
21
-549.374522
0
LINE
8
Layer 1
10
-243.139000
20
-549.374000
11
-242.896015
21
-549.780259
0
LINE
8
Layer 1
10
-242.896000
20
-549.781000
11
-242.766443
21
-550.236281
0
LINE
8
Layer 1
10
-242.766000
20
-550.236000
11
-242.758690
21
-550.709315
0
LINE
8
Layer 1
10
-242.759000
20
-550.709000
11
-242.874451
21
-551.168091
0
LINE
8
Layer 1
10
-242.874000
20
-551.168000
11
-243.104335
21
-551.581568
0
LINE
8
Layer 1
10
-243.105000
20
-551.582000
11
-243.434522
21
-551.921852
0
LINE
8
Layer 1
10
-243.434000
20
-551.922000
11
-243.840256
21
-552.164965
0
LINE
8
Layer 1
10
-243.840000
20
-552.165000
11
-244.295300
21
-552.294568
0
LINE
8
Layer 1
10
-244.296000
20
-552.294000
11
-244.769317
21
-552.301338
0
LINE
8
Layer 1
10
-329.347000
20
-467.010000
11
-329.169115
21
-466.571314
0
LINE
8
Layer 1
10
-329.169000
20
-466.571000
11
-328.883617
21
-466.193302
0
LINE
8
Layer 1
10
-328.883000
20
-466.194000
11
-328.509620
21
-465.903057
0
LINE
8
Layer 1
10
-328.510000
20
-465.903000
11
-328.074023
21
-465.718596
0
LINE
8
Layer 1
10
-328.074000
20
-465.718000
11
-327.605145
21
-465.652694
0
LINE
8
Layer 1
10
-327.605000
20
-465.653000
11
-327.135213
21
-465.711307
0
LINE
8
Layer 1
10
-327.135000
20
-465.711000
11
-326.696314
21
-465.888885
0
LINE
8
Layer 1
10
-326.697000
20
-465.889000
11
-326.319331
21
-466.174355
0
LINE
8
Layer 1
10
-326.319000
20
-466.175000
11
-326.028029
21
-466.548408
0
LINE
8
Layer 1
10
-326.028000
20
-466.548000
11
-325.843596
21
-466.983977
0
LINE
8
Layer 1
10
-325.844000
20
-466.984000
11
-325.778722
21
-467.452855
0
LINE
8
Layer 1
10
-325.778000
20
-467.453000
11
-325.836279
21
-467.922759
0
LINE
8
Layer 1
10
-325.837000
20
-467.923000
11
-326.014885
21
-468.361686
0
LINE
8
Layer 1
10
-326.015000
20
-468.361000
11
-326.300383
21
-468.738698
0
LINE
8
Layer 1
10
-326.300000
20
-468.739000
11
-326.673380
21
-469.029943
0
LINE
8
Layer 1
10
-326.673000
20
-469.030000
11
-327.108977
21
-469.214432
0
LINE
8
Layer 1
10
-327.109000
20
-469.214000
11
-327.577855
21
-469.279278
0
LINE
8
Layer 1
10
-327.578000
20
-469.280000
11
-328.047787
21
-469.221693
0
LINE
8
Layer 1
10
-328.048000
20
-469.221000
11
-328.486658
21
-469.043115
0
LINE
8
Layer 1
10
-328.487000
20
-469.043000
11
-328.864698
21
-468.757645
0
LINE
8
Layer 1
10
-328.864000
20
-468.758000
11
-329.154971
21
-468.384592
0
LINE
8
Layer 1
10
-329.155000
20
-468.385000
11
-329.339404
21
-467.949023
0
LINE
8
Layer 1
10
-329.340000
20
-467.949000
11
-329.405278
21
-467.480145
0
LINE
8
Layer 1
10
-329.405000
20
-467.480000
11
-329.346721
21
-467.010241
0
LINE
8
Layer 1
10
-270.443000
20
-531.384000
11
-272.688450
21
-527.465860
0
LINE
8
Layer 1
10
-272.688000
20
-527.466000
11
-274.339040
21
-523.262640
0
LINE
8
Layer 1
10
-274.339000
20
-523.262000
11
-275.360430
21
-518.863060
0
LINE
8
Layer 1
10
-275.360000
20
-518.863000
11
-275.730055
21
-514.362210
0
LINE
8
Layer 1
10
-275.731000
20
-514.363000
11
-275.441793
21
-509.856310
0
LINE
8
Layer 1
10
-275.441000
20
-509.856000
11
-274.498692
21
-505.439420
0
LINE
8
Layer 1
10
-274.499000
20
-505.439000
11
-272.923680
21
-501.206710
0
LINE
8
Layer 1
10
-272.924000
20
-501.207000
11
-270.749240
21
-497.249150
0
LINE
8
Layer 1
10
-270.749000
20
-497.249000
11
-268.021150
21
-493.649990
0
LINE
8
Layer 1
10
-268.021000
20
-493.650000
11
-264.798200
21
-490.486550
0
LINE
8
Layer 1
10
-264.798000
20
-490.487000
11
-261.148930
21
-487.826460
0
LINE
8
Layer 1
10
-261.149000
20
-487.826000
11
-257.151450
21
-485.725170
0
LINE
8
Layer 1
10
-257.152000
20
-485.725000
11
-252.891160
21
-484.228570
0
LINE
8
Layer 1
10
-252.891000
20
-484.229000
11
-248.457690
21
-483.368900
0
LINE
8
Layer 1
10
-248.458000
20
-483.369000
11
-243.946700
21
-483.163571
0
LINE
8
Layer 1
10
-243.946000
20
-483.163000
11
-239.452860
21
-483.616615
0
LINE
8
Layer 1
10
-239.453000
20
-483.617000
11
-235.073800
21
-484.719980
0
LINE
8
Layer 1
10
-235.074000
20
-484.720000
11
-230.902060
21
-486.448840
0
LINE
8
Layer 1
10
-230.902000
20
-486.449000
11
-227.026240
21
-488.766860
0
LINE
8
Layer 1
10
-227.026000
20
-488.767000
11
-223.529020
21
-491.624470
0
LINE
8
Layer 1
10
-223.529000
20
-491.624000
11
-220.485340
21
-494.960200
0
LINE
8
Layer 1
10
-220.486000
20
-494.960000
11
-217.960530
21
-498.703790
0
LINE
8
Layer 1
10
-217.960000
20
-498.704000
11
-216.006540
21
-502.775620
0
LINE
8
Layer 1
10
-216.007000
20
-502.776000
11
-214.667190
21
-507.088630
0
LINE
8
Layer 1
10
-214.667000
20
-507.088000
11
-213.969395
21
-511.549760
0
LINE
8
Layer 1
10
-213.969000
20
-511.550000
11
-213.928467
21
-516.065810
0
LINE
8
Layer 1
10
-213.929000
20
-516.066000
11
-214.546406
21
-520.539560
0
LINE
8
Layer 1
10
-214.546000
20
-520.539000
11
-215.808180
21
-524.875000
0
LINE
8
Layer 1
10
-215.808000
20
-524.875000
11
-217.688060
21
-528.981020
0
LINE
8
Layer 1
10
-217.688000
20
-528.982000
11
-220.145870
21
-532.770520
0
LINE
8
Layer 1
10
-220.146000
20
-532.770000
11
-223.129280
21
-536.160300
0
LINE
8
Layer 1
10
-223.129000
20
-536.160000
11
-226.574120
21
-539.079780
0
LINE
8
Layer 1
10
-226.575000
20
-539.080000
11
-230.408530
21
-541.467060
0
LINE
8
Layer 1
10
-230.408000
20
-541.467000
11
-234.548240
21
-543.270430
0
LINE
8
Layer 1
10
-234.548000
20
-543.271000
11
-238.906700
21
-544.452410
0
LINE
8
Layer 1
10
-238.907000
20
-544.452000
11
-243.391270
21
-544.986190
0
LINE
8
Layer 1
10
-243.391000
20
-544.986000
11
-247.905260
21
-544.861597
0
LINE
8
Layer 1
10
-247.906000
20
-544.862000
11
-252.354040
21
-544.081600
0
LINE
8
Layer 1
10
-252.354000
20
-544.081000
11
-256.641010
21
-542.661310
0
LINE
8
Layer 1
10
-256.641000
20
-542.662000
11
-260.675620
21
-540.633250
0
LINE
8
Layer 1
10
-260.675000
20
-540.633000
11
-264.371230
21
-538.038390
0
LINE
8
Layer 1
10
-264.371000
20
-538.038000
11
-267.650070
21
-534.932880
0
LINE
8
Layer 1
10
-267.651000
20
-534.933000
11
-270.443010
21
-531.383550
0
LINE
8
Layer 1
10
-242.194000
20
-458.167000
11
-240.865410
21
-458.613193
0
LINE
8
Layer 1
10
-240.865000
20
-458.613000
11
-239.615540
21
-459.247858
0
LINE
8
Layer 1
10
-239.616000
20
-459.248000
11
-238.472290
21
-460.058034
0
LINE
8
Layer 1
10
-238.472000
20
-460.058000
11
-237.458420
21
-461.025937
0
LINE
8
Layer 1
10
-237.458000
20
-461.026000
11
-236.596153
21
-462.131180
0
LINE
8
Layer 1
10
-236.596000
20
-462.131000
11
-235.904254
21
-463.349920
0
LINE
8
Layer 1
10
-235.905000
20
-463.350000
11
-235.398098
21
-464.656600
0
LINE
8
Layer 1
10
-235.398000
20
-464.657000
11
-235.086746
21
-466.023520
0
LINE
8
Layer 1
10
-235.087000
20
-466.023000
11
-234.978028
21
-467.420280
0
LINE
8
Layer 1
10
-234.978000
20
-467.421000
11
-235.073634
21
-468.819240
0
LINE
8
Layer 1
10
-235.073000
20
-468.819000
11
-235.371201
21
-470.188400
0
LINE
8
Layer 1
10
-235.371000
20
-470.188000
11
-235.865411
21
-471.499400
0
LINE
8
Layer 1
10
-235.866000
20
-471.500000
11
-236.546084
21
-472.725460
0
LINE
8
Layer 1
10
-236.546000
20
-472.725000
11
-237.397263
21
-473.838370
0
LINE
8
Layer 1
10
-237.397000
20
-473.838000
11
-238.401300
21
-474.815532
0
LINE
8
Layer 1
10
-238.402000
20
-474.816000
11
-239.537930
21
-475.636927
0
LINE
8
Layer 1
10
-239.537000
20
-475.637000
11
-240.780350
21
-476.283768
0
LINE
8
Layer 1
10
-240.781000
20
-476.284000
11
-242.105270
21
-476.742837
0
LINE
8
Layer 1
10
-242.105000
20
-476.742000
11
-243.481960
21
-477.003140
0
LINE
8
Layer 1
10
-243.482000
20
-477.004000
11
-244.882320
21
-477.061856
0
LINE
8
Layer 1
10
-244.882000
20
-477.061000
11
-246.275820
21
-476.914386
0
LINE
8
Layer 1
10
-246.276000
20
-476.915000
11
-247.633610
21
-476.566964
0
LINE
8
Layer 1
10
-247.634000
20
-476.567000
11
-248.926470
21
-476.025021
0
LINE
8
Layer 1
10
-248.926000
20
-476.025000
11
-250.125790
21
-475.300621
0
LINE
8
Layer 1
10
-250.126000
20
-475.300000
11
-251.207530
21
-474.408658
0
LINE
8
Layer 1
10
-251.208000
20
-474.409000
11
-252.148223
21
-473.369660
0
LINE
8
Layer 1
10
-252.148000
20
-473.370000
11
-252.926876
21
-472.204850
0
LINE
8
Layer 1
10
-252.927000
20
-472.205000
11
-253.527927
21
-470.938870
0
LINE
8
Layer 1
10
-253.528000
20
-470.939000
11
-253.938170
21
-469.598840
0
LINE
8
Layer 1
10
-253.938000
20
-469.598000
11
-254.148676
21
-468.212430
0
LINE
8
Layer 1
10
-254.148000
20
-468.213000
11
-254.154689
21
-466.811490
0
LINE
8
Layer 1
10
-254.155000
20
-466.811000
11
-253.957555
21
-465.423480
0
LINE
8
Layer 1
10
-253.958000
20
-465.424000
11
-253.560634
21
-464.080000
0
LINE
8
Layer 1
10
-253.560000
20
-464.080000
11
-252.971180
21
-462.808170
0
LINE
8
Layer 1
10
-252.971000
20
-462.808000
11
-252.203280
21
-461.635480
0
LINE
8
Layer 1
10
-252.204000
20
-461.635000
11
-251.273737
21
-460.586740
0
LINE
8
Layer 1
10
-251.274000
20
-460.587000
11
-250.201020
21
-459.685357
0
LINE
8
Layer 1
10
-250.201000
20
-459.686000
11
-249.008180
21
-458.950219
0
LINE
8
Layer 1
10
-249.008000
20
-458.950000
11
-247.720760
21
-458.395688
0
LINE
8
Layer 1
10
-247.720000
20
-458.395000
11
-246.365770
21
-458.034066
0
LINE
8
Layer 1
10
-246.366000
20
-458.034000
11
-244.973650
21
-457.874065
0
LINE
8
Layer 1
10
-244.974000
20
-457.875000
11
-243.573200
21
-457.919506
0
LINE
8
Layer 1
10
-243.573000
20
-457.919000
11
-242.193610
21
-458.166988
0
LINE
8
Layer 1
10
-377.518000
20
-478.680000
11
-377.518000
21
-444.476000
0
LINE
8
Layer 1
10
-440.101000
20
-478.680000
11
-377.518000
21
-478.680000
0
LINE
8
Layer 1
10
-440.101000
20
-478.680000
11
-440.101000
21
-444.476000
0
LINE
8
Layer 1
10
-440.101000
20
-444.476000
11
-377.518000
21
-444.476000
0
LINE
8
Layer 1
10
-434.367000
20
-544.923000
11
-433.953799
21
-545.765800
0
LINE
8
Layer 1
10
-433.954000
20
-545.766000
11
-434.017528
21
-546.702497
0
LINE
8
Layer 1
10
-434.017000
20
-546.703000
11
-434.540296
21
-547.482271
0
LINE
8
Layer 1
10
-434.541000
20
-547.482000
11
-435.383800
21
-547.895201
0
LINE
8
Layer 1
10
-435.384000
20
-547.895000
11
-436.320497
21
-547.831472
0
LINE
8
Layer 1
10
-436.320000
20
-547.831000
11
-437.099243
21
-547.307704
0
LINE
8
Layer 1
10
-437.099000
20
-547.308000
11
-437.512229
21
-546.465200
0
LINE
8
Layer 1
10
-437.513000
20
-546.465000
11
-437.449444
21
-545.528503
0
LINE
8
Layer 1
10
-437.449000
20
-545.529000
11
-436.925732
21
-544.749757
0
LINE
8
Layer 1
10
-436.926000
20
-544.750000
11
-436.083172
21
-544.336771
0
LINE
8
Layer 1
10
-436.083000
20
-544.336000
11
-435.146531
21
-544.399556
0
LINE
8
Layer 1
10
-435.146000
20
-544.400000
11
-434.366729
21
-544.923268
0
LINE
8
Layer 1
10
-405.867000
20
-554.649000
11
-358.069000
21
-554.649000
0
LINE
8
Layer 1
10
-405.867000
20
-488.192000
11
-405.867000
21
-554.649000
0
LINE
8
Layer 1
10
-358.069000
20
-488.192000
11
-405.867000
21
-488.192000
0
LINE
8
Layer 1
10
-316.853000
20
-539.785000
11
-316.581785
21
-540.138455
0
LINE
8
Layer 1
10
-316.582000
20
-540.139000
11
-316.411481
21
-540.550621
0
LINE
8
Layer 1
10
-316.411000
20
-540.551000
11
-316.352862
21
-540.992734
0
LINE
8
Layer 1
10
-316.353000
20
-540.992000
11
-316.411138
21
-541.433706
0
LINE
8
Layer 1
10
-316.411000
20
-541.434000
11
-316.581519
21
-541.845621
0
LINE
8
Layer 1
10
-316.582000
20
-541.846000
11
-316.853215
21
-542.199455
0
LINE
8
Layer 1
10
-316.853000
20
-542.199000
11
-317.206455
21
-542.470215
0
LINE
8
Layer 1
10
-317.206000
20
-542.470000
11
-317.617621
21
-542.640519
0
LINE
8
Layer 1
10
-317.618000
20
-542.641000
11
-318.059706
21
-542.699138
0
LINE
8
Layer 1
10
-318.060000
20
-542.699000
11
-318.501734
21
-542.640862
0
LINE
8
Layer 1
10
-318.501000
20
-542.641000
11
-318.912593
21
-542.470481
0
LINE
8
Layer 1
10
-318.913000
20
-542.470000
11
-319.266483
21
-542.198785
0
LINE
8
Layer 1
10
-319.266000
20
-542.199000
11
-319.537215
21
-541.845545
0
LINE
8
Layer 1
10
-319.538000
20
-541.846000
11
-319.708490
21
-541.434379
0
LINE
8
Layer 1
10
-319.708000
20
-541.434000
11
-319.766166
21
-540.992294
0
LINE
8
Layer 1
10
-319.766000
20
-540.992000
11
-319.707834
21
-540.550266
0
LINE
8
Layer 1
10
-319.708000
20
-540.551000
11
-319.537510
21
-540.139379
0
LINE
8
Layer 1
10
-319.538000
20
-540.139000
11
-319.266785
21
-539.785545
0
LINE
8
Layer 1
10
-319.266000
20
-539.785000
11
-318.912517
21
-539.513785
0
LINE
8
Layer 1
10
-318.913000
20
-539.514000
11
-318.501407
21
-539.343510
0
LINE
8
Layer 1
10
-318.501000
20
-539.344000
11
-318.059266
21
-539.285834
0
LINE
8
Layer 1
10
-318.060000
20
-539.286000
11
-317.618294
21
-539.344166
0
LINE
8
Layer 1
10
-317.618000
20
-539.344000
11
-317.206379
21
-539.514490
0
LINE
8
Layer 1
10
-317.206000
20
-539.514000
11
-316.852545
21
-539.785215
0
LINE
8
Layer 1
10
-475.039000
20
-457.183000
11
-475.305418
21
-456.539873
0
LINE
8
Layer 1
10
-475.039000
20
-458.564000
11
-474.948153
21
-457.873826
0
LINE
8
Layer 1
10
-475.306000
20
-459.207000
11
-475.039582
21
-458.563844
0
LINE
8
Layer 1
10
-475.730000
20
-459.759000
11
-475.306215
21
-459.206720
0
LINE
8
Layer 1
10
-476.282000
20
-460.183000
11
-475.729720
21
-459.759215
0
LINE
8
Layer 1
10
-476.925000
20
-460.449000
11
-476.281844
21
-460.182611
0
LINE
8
Layer 1
10
-477.615000
20
-460.540000
11
-476.924826
21
-460.449125
0
LINE
8
Layer 1
10
-478.305000
20
-460.449000
11
-477.614826
21
-460.539875
0
LINE
8
Layer 1
10
-478.949000
20
-460.183000
11
-478.305844
21
-460.449389
0
LINE
8
Layer 1
10
-479.501000
20
-459.759000
11
-478.948720
21
-460.182785
0
LINE
8
Layer 1
10
-479.925000
20
-459.207000
11
-479.501215
21
-459.759280
0
LINE
8
Layer 1
10
-480.191000
20
-458.564000
11
-479.924582
21
-459.207156
0
LINE
8
Layer 1
10
-480.282000
20
-457.874000
11
-480.191153
21
-458.564174
0
LINE
8
Layer 1
10
-480.191000
20
-457.183000
11
-480.281847
21
-457.873202
0
LINE
8
Layer 1
10
-479.925000
20
-456.540000
11
-480.191418
21
-457.183127
0
LINE
8
Layer 1
10
-479.501000
20
-455.988000
11
-479.924785
21
-456.540308
0
LINE
8
Layer 1
10
-478.949000
20
-455.564000
11
-479.501280
21
-455.987756
0
LINE
8
Layer 1
10
-478.305000
20
-455.298000
11
-478.948156
21
-455.564418
0
LINE
8
Layer 1
10
-477.615000
20
-455.207000
11
-478.305174
21
-455.297847
0
LINE
8
Layer 1
10
-476.925000
20
-455.298000
11
-477.615174
21
-455.207153
0
LINE
8
Layer 1
10
-476.282000
20
-455.564000
11
-476.925156
21
-455.297582
0
LINE
8
Layer 1
10
-475.730000
20
-455.988000
11
-476.282280
21
-455.564244
0
LINE
8
Layer 1
10
-475.306000
20
-456.540000
11
-475.729785
21
-455.987692
0
LINE
8
Layer 1
10
192.768000
20
-510.277000
11
190.531800
21
-509.982586
0
LINE
8
Layer 1
10
153.553000
20
-441.477000
11
158.886000
21
-441.477000
0
LINE
8
Layer 1
10
510.884000
20
-379.504000
11
510.884000
21
-441.504000
0
LINE
8
Layer 1
10
505.551000
20
-441.504000
11
505.551000
21
-489.671000
0
LINE
8
Layer 1
10
153.553000
20
-441.477000
11
153.553000
21
-379.504000
0
LINE
8
Layer 1
10
400.360000
20
-546.170000
11
400.360000
21
-540.837000
0
LINE
8
Layer 1
10
357.693000
20
-546.170000
11
357.693000
21
-540.837000
0
LINE
8
Layer 1
10
230.106000
20
-469.369000
11
230.106000
21
-546.170000
0
LINE
8
Layer 1
10
184.423000
20
-499.400000
11
185.286136
21
-497.316190
0
LINE
8
Layer 1
10
185.286000
20
-505.957000
11
184.422864
21
-503.873210
0
LINE
8
Layer 1
10
510.884000
20
-546.170000
11
400.360000
21
-546.170056
0
LINE
8
Layer 1
10
510.884000
20
-441.504000
11
505.551000
21
-441.504000
0
LINE
8
Layer 1
10
332.219000
20
-379.504000
11
510.884000
21
-379.504000
0
LINE
8
Layer 1
10
332.219000
20
-379.504000
11
332.219000
21
-384.837000
0
LINE
8
Layer 1
10
289.551000
20
-384.829000
11
332.217500
21
-384.837184
0
LINE
8
Layer 1
10
289.552000
20
-379.496000
11
289.552000
21
-384.829000
0
LINE
8
Layer 1
10
153.553000
20
-379.504000
11
289.552000
21
-379.495816
0
LINE
8
Layer 1
10
158.886000
20
-484.144000
11
158.886000
21
-441.477000
0
LINE
8
Layer 1
10
153.553000
20
-484.144000
11
158.886000
21
-484.144000
0
LINE
8
Layer 1
10
153.553000
20
-546.170000
11
153.553000
21
-484.144000
0
LINE
8
Layer 1
10
230.106000
20
-546.170000
11
153.553000
21
-546.170000
0
LINE
8
Layer 1
10
247.169000
20
-469.369000
11
230.106000
21
-469.369000
0
LINE
8
Layer 1
10
247.169000
20
-546.170000
11
247.169000
21
-469.369000
0
LINE
8
Layer 1
10
357.693000
20
-546.170000
11
247.169000
21
-546.169944
0
LINE
8
Layer 1
10
400.360000
20
-540.837000
11
357.693000
21
-540.837000
0
LINE
8
Layer 1
10
192.768000
20
-492.997000
11
195.004190
21
-493.291414
0
LINE
8
Layer 1
10
195.005000
20
-493.291000
11
197.088800
21
-494.154148
0
LINE
8
Layer 1
10
197.088000
20
-494.154000
11
198.877400
21
-495.527040
0
LINE
8
Layer 1
10
198.878000
20
-495.527000
11
200.251060
21
-497.316400
0
LINE
8
Layer 1
10
200.251000
20
-497.317000
11
201.114139
21
-499.400810
0
LINE
8
Layer 1
10
201.114000
20
-499.400000
11
201.408400
21
-501.636190
0
LINE
8
Layer 1
10
201.408000
20
-501.637000
11
201.113600
21
-503.873210
0
LINE
8
Layer 1
10
201.114000
20
-503.873000
11
200.250861
21
-505.956790
0
LINE
8
Layer 1
10
200.251000
20
-505.957000
11
198.877940
21
-507.746400
0
LINE
8
Layer 1
10
198.878000
20
-507.746000
11
197.088600
21
-509.119070
0
LINE
8
Layer 1
10
197.088000
20
-509.119000
11
195.004200
21
-509.982120
0
LINE
8
Layer 1
10
195.005000
20
-509.982000
11
192.768810
21
-510.276414
0
LINE
8
Layer 1
10
190.532000
20
-509.982000
11
188.448200
21
-509.118880
0
LINE
8
Layer 1
10
188.448000
20
-509.119000
11
186.658600
21
-507.745930
0
LINE
8
Layer 1
10
186.659000
20
-507.746000
11
185.285940
21
-505.956600
0
LINE
8
Layer 1
10
184.423000
20
-503.873000
11
184.128597
21
-501.636790
0
LINE
8
Layer 1
10
184.128000
20
-501.637000
11
184.422403
21
-499.400810
0
LINE
8
Layer 1
10
185.286000
20
-497.317000
11
186.659060
21
-495.527600
0
LINE
8
Layer 1
10
186.659000
20
-495.527000
11
188.448400
21
-494.153960
0
LINE
8
Layer 1
10
188.448000
20
-494.154000
11
190.531800
21
-493.290852
0
LINE
8
Layer 1
10
190.532000
20
-493.291000
11
192.768200
21
-492.996586
0
LINE
8
Layer 1
10
510.882000
20
-489.502000
11
505.550710
21
-489.502169
0
LINE
8
Layer 1
10
510.884000
20
-546.170000
11
510.881178
21
-489.502500
0
LINE
8
Layer 1
10
201.175000
20
-302.690000
11
201.727148
21
-302.617300
0
LINE
8
Layer 1
10
187.402000
20
-317.823000
11
186.734861
21
-317.320250
0
LINE
8
Layer 1
10
202.683000
20
-302.065000
11
203.022028
21
-301.623153
0
LINE
8
Layer 1
10
490.111000
20
-261.125000
11
490.324106
21
-260.610481
0
LINE
8
Layer 1
10
486.416000
20
-244.058000
11
486.202894
21
-244.572519
0
LINE
8
Layer 1
10
203.022000
20
-251.490000
11
202.682972
21
-251.048181
0
LINE
8
Layer 1
10
453.063000
20
-260.058000
11
453.063000
21
-245.125000
0
LINE
8
Layer 1
10
489.772000
20
-243.617000
11
489.330181
21
-243.277995
0
LINE
8
Layer 1
10
489.772000
20
-294.634000
11
490.111005
21
-294.192153
0
LINE
8
Layer 1
10
453.349000
20
-294.192000
11
453.688033
21
-294.633847
0
LINE
8
Layer 1
10
486.755000
20
-294.634000
11
487.196847
21
-294.973033
0
LINE
8
Layer 1
10
219.770000
20
-315.164000
11
221.370000
21
-315.592723
0
LINE
8
Layer 1
10
222.588000
20
-234.653000
11
222.900290
21
-235.724000
0
LINE
8
Layer 1
10
225.787000
20
-239.015000
11
226.808160
21
-239.464185
0
LINE
8
Layer 1
10
183.535000
20
-317.348000
11
182.876706
21
-317.862293
0
LINE
8
Layer 1
10
228.725000
20
-227.005000
11
227.616050
21
-227.126581
0
LINE
8
Layer 1
10
453.349000
20
-261.125000
11
453.688033
21
-261.566819
0
LINE
8
Layer 1
10
411.874000
20
-294.370000
11
412.055158
21
-294.807359
0
LINE
8
Layer 1
10
413.157000
20
-295.652000
11
413.626335
21
-295.713807
0
LINE
8
Layer 1
10
203.235000
20
-285.071000
11
203.021880
21
-284.556481
0
LINE
8
Layer 1
10
168.108000
20
-269.623000
11
168.660148
21
-269.550300
0
LINE
8
Layer 1
10
169.616000
20
-251.048000
11
169.649209
21
-251.091265
0
LINE
8
Layer 1
10
329.591000
20
-310.928000
11
330.048059
21
-310.804754
0
LINE
8
Layer 1
10
201.727000
20
-283.563000
11
201.174852
21
-283.490328
0
LINE
8
Layer 1
10
167.042000
20
-283.776000
11
166.600173
21
-284.115033
0
LINE
8
Layer 1
10
201.175000
20
-250.423000
11
200.622855
21
-250.495672
0
LINE
8
Layer 1
10
203.022000
20
-284.557000
11
202.682972
21
-284.115181
0
LINE
8
Layer 1
10
200.623000
20
-302.617000
11
201.175145
21
-302.689700
0
LINE
8
Layer 1
10
201.727000
20
-250.496000
11
201.174852
21
-250.423328
0
LINE
8
Layer 1
10
176.207000
20
-298.022000
11
178.747510
21
-299.971390
0
LINE
8
Layer 1
10
465.836000
20
-292.540000
11
468.794480
21
-293.765440
0
LINE
8
Layer 1
10
328.611000
20
-311.911000
11
328.847022
21
-311.500677
0
LINE
8
Layer 1
10
168.660000
20
-302.617000
11
169.174519
21
-302.403894
0
LINE
8
Layer 1
10
169.175000
20
-250.709000
11
168.660481
21
-250.495866
0
LINE
8
Layer 1
10
169.175000
20
-269.338000
11
169.616827
21
-268.998995
0
LINE
8
Layer 1
10
200.108000
20
-283.776000
11
199.666170
21
-284.115033
0
LINE
8
Layer 1
10
167.041000
20
-250.709000
11
166.599173
21
-251.048033
0
LINE
8
Layer 1
10
169.956000
20
-284.557000
11
169.616975
21
-284.115181
0
LINE
8
Layer 1
10
194.592000
20
-258.281000
11
192.321560
21
-256.022800
0
LINE
8
Layer 1
10
328.613000
20
-313.299000
11
328.489754
21
-312.841941
0
LINE
8
Layer 1
10
331.394000
20
-314.039000
11
330.984439
21
-314.276320
0
LINE
8
Layer 1
10
167.556000
20
-302.617000
11
168.108148
21
-302.689700
0
LINE
8
Layer 1
10
311.714000
20
-226.908000
11
311.023826
21
-226.817124
0
LINE
8
Layer 1
10
168.108000
20
-302.690000
11
168.660148
21
-302.617300
0
LINE
8
Layer 1
10
170.169000
20
-268.042000
11
170.241689
21
-267.489861
0
LINE
8
Layer 1
10
196.730000
20
-292.523000
11
197.147976
21
-289.348140
0
LINE
8
Layer 1
10
454.644000
20
-262.119000
11
455.196139
21
-262.191672
0
LINE
8
Layer 1
10
456.263000
20
-276.344000
11
455.748481
21
-276.130866
0
LINE
8
Layer 1
10
448.219000
20
-311.326000
11
447.438148
21
-310.545148
0
LINE
8
Layer 1
10
490.324000
20
-244.573000
11
490.110894
21
-244.058481
0
LINE
8
Layer 1
10
490.111000
20
-244.058000
11
489.771967
21
-243.616153
0
LINE
8
Layer 1
10
486.755000
20
-261.567000
11
487.196819
21
-261.906033
0
LINE
8
Layer 1
10
489.772000
20
-276.683000
11
489.330153
21
-276.343967
0
LINE
8
Layer 1
10
490.111000
20
-277.125000
11
489.771995
21
-276.683181
0
LINE
8
Layer 1
10
490.324000
20
-293.677000
11
490.396700
21
-293.124861
0
LINE
8
Layer 1
10
489.330000
20
-294.973000
11
489.771847
21
-294.633967
0
LINE
8
Layer 1
10
481.681000
20
-250.849000
11
479.410550
21
-248.590800
0
LINE
8
Layer 1
10
157.398000
20
-213.591000
11
504.063000
21
-213.590944
0
LINE
8
Layer 1
10
453.688000
20
-294.634000
11
454.129819
21
-294.973005
0
LINE
8
Layer 1
10
486.130000
20
-260.058000
11
486.202700
21
-260.610139
0
LINE
8
Layer 1
10
224.054000
20
-237.624000
11
224.859947
21
-238.395369
0
LINE
8
Layer 1
10
457.257000
20
-293.677000
11
457.329700
21
-293.124861
0
LINE
8
Layer 1
10
454.644000
20
-295.186000
11
455.196139
21
-295.258700
0
LINE
8
Layer 1
10
454.130000
20
-294.973000
11
454.644519
21
-295.186134
0
LINE
8
Layer 1
10
224.860000
20
-238.395000
11
225.787650
21
-239.014703
0
LINE
8
Layer 1
10
487.196000
20
-294.973000
11
487.710519
21
-295.186106
0
LINE
8
Layer 1
10
413.387000
20
-239.320000
11
413.350847
21
-237.918970
0
LINE
8
Layer 1
10
455.749000
20
-276.131000
11
455.196861
21
-276.058328
0
LINE
8
Layer 1
10
169.616000
20
-268.999000
11
169.955025
21
-268.557153
0
LINE
8
Layer 1
10
199.114000
20
-301.109000
11
199.327120
21
-301.623519
0
LINE
8
Layer 1
10
395.658000
20
-233.778000
11
395.003838
21
-235.017460
0
LINE
8
Layer 1
10
199.327000
20
-301.623000
11
199.666025
21
-302.064847
0
LINE
8
Layer 1
10
331.389000
20
-311.162000
11
331.724252
21
-311.496179
0
LINE
8
Layer 1
10
170.242000
20
-285.623000
11
170.169311
21
-285.070833
0
LINE
8
Layer 1
10
330.054000
20
-314.401000
11
329.596546
21
-314.279221
0
LINE
8
Layer 1
10
222.804000
20
-231.347000
11
222.538957
21
-232.430650
0
LINE
8
Layer 1
10
199.327000
20
-284.557000
11
199.113880
21
-285.071519
0
LINE
8
Layer 1
10
223.254000
20
-230.326000
11
222.804807
21
-231.347160
0
LINE
8
Layer 1
10
462.217000
20
-250.902000
11
460.623380
21
-253.679540
0
LINE
8
Layer 1
10
488.815000
20
-243.064000
11
488.262861
21
-242.991300
0
LINE
8
Layer 1
10
455.197000
20
-295.258000
11
455.749139
21
-295.185300
0
LINE
8
Layer 1
10
447.438000
20
-310.545000
11
446.371340
21
-310.259194
0
LINE
8
Layer 1
10
456.263000
20
-243.278000
11
455.748481
21
-243.064866
0
LINE
8
Layer 1
10
395.004000
20
-235.017000
11
394.537289
21
-236.338530
0
LINE
8
Layer 1
10
169.956000
20
-301.623000
11
170.169123
21
-301.108481
0
LINE
8
Layer 1
10
191.014000
20
-299.971000
11
193.554510
21
-298.021610
0
LINE
8
Layer 1
10
167.042000
20
-302.404000
11
167.556519
21
-302.617106
0
LINE
8
Layer 1
10
200.623000
20
-250.496000
11
200.108478
21
-250.709134
0
LINE
8
Layer 1
10
232.870000
20
-228.412000
11
231.942353
21
-227.792325
0
LINE
8
Layer 1
10
165.975000
20
-300.557000
11
166.047692
21
-301.109167
0
LINE
8
Layer 1
10
166.261000
20
-301.623000
11
166.600025
21
-302.064819
0
LINE
8
Layer 1
10
168.660000
20
-283.563000
11
168.107852
21
-283.490300
0
LINE
8
Layer 1
10
167.556000
20
-283.563000
11
167.041481
21
-283.776106
0
LINE
8
Layer 1
10
232.186000
20
-238.874000
11
233.085594
21
-238.214250
0
LINE
8
Layer 1
10
221.370000
20
-315.593000
11
222.970000
21
-315.164277
0
LINE
8
Layer 1
10
229.838000
20
-227.078000
11
228.724790
21
-227.005158
0
LINE
8
Layer 1
10
169.617000
20
-302.065000
11
169.956025
21
-301.623181
0
LINE
8
Layer 1
10
330.527000
20
-314.400000
11
330.054000
21
-314.400000
0
LINE
8
Layer 1
10
201.727000
20
-269.551000
11
202.241519
21
-269.337894
0
LINE
8
Layer 1
10
170.169000
20
-301.109000
11
170.241689
21
-300.556833
0
LINE
8
Layer 1
10
221.370000
20
-309.193000
11
219.770000
21
-309.621723
0
LINE
8
Layer 1
10
400.273000
20
-247.796000
11
401.610680
21
-248.214140
0
LINE
8
Layer 1
10
166.600000
20
-284.115000
11
166.260975
21
-284.556819
0
LINE
8
Layer 1
10
170.169000
20
-285.071000
11
169.955877
21
-284.556481
0
LINE
8
Layer 1
10
329.181000
20
-311.166000
11
329.590589
21
-310.928651
0
LINE
8
Layer 1
10
181.959000
20
-320.133000
11
182.075236
21
-320.960221
0
LINE
8
Layer 1
10
167.556000
20
-269.551000
11
168.108148
21
-269.623700
0
LINE
8
Layer 1
10
456.705000
20
-276.683000
11
456.263153
21
-276.343967
0
LINE
8
Layer 1
10
453.136000
20
-293.677000
11
453.349134
21
-294.191519
0
LINE
8
Layer 1
10
457.044000
20
-277.125000
11
456.704967
21
-276.683181
0
LINE
8
Layer 1
10
453.136000
20
-260.611000
11
453.349106
21
-261.125519
0
LINE
8
Layer 1
10
453.688000
20
-261.567000
11
454.129819
21
-261.906033
0
LINE
8
Layer 1
10
490.324000
20
-277.640000
11
490.110866
21
-277.125481
0
LINE
8
Layer 1
10
227.616000
20
-227.126000
11
226.545010
21
-227.438279
0
LINE
8
Layer 1
10
454.130000
20
-243.278000
11
453.688181
21
-243.617005
0
LINE
8
Layer 1
10
407.131000
20
-247.869000
11
408.406300
21
-247.287792
0
LINE
8
Layer 1
10
454.644000
20
-276.131000
11
454.129481
21
-276.344134
0
LINE
8
Layer 1
10
467.244000
20
-247.023000
11
464.475120
21
-248.631610
0
LINE
8
Layer 1
10
454.130000
20
-261.906000
11
454.644519
21
-262.119134
0
LINE
8
Layer 1
10
454.130000
20
-276.344000
11
453.688181
21
-276.683033
0
LINE
8
Layer 1
10
460.121000
20
-285.091000
11
461.346440
21
-288.049510
0
LINE
8
Layer 1
10
470.335000
20
-246.186000
11
467.244100
21
-247.023155
0
LINE
8
Layer 1
10
222.467000
20
-233.544000
11
222.588570
21
-234.652930
0
LINE
8
Layer 1
10
461.346000
20
-288.050000
11
463.295420
21
-290.590510
0
LINE
8
Layer 1
10
199.114000
20
-285.071000
11
199.041308
21
-285.623139
0
LINE
8
Layer 1
10
188.242000
20
-319.250000
11
187.915619
21
-318.481030
0
LINE
8
Layer 1
10
165.975000
20
-267.490000
11
166.047692
21
-268.042139
0
LINE
8
Layer 1
10
184.357000
20
-323.204000
11
185.186137
21
-323.305826
0
LINE
8
Layer 1
10
181.706000
20
-301.197000
11
184.880850
21
-301.614999
0
LINE
8
Layer 1
10
169.616000
20
-251.048000
11
169.174173
21
-250.708967
0
LINE
8
Layer 1
10
202.241000
20
-302.404000
11
202.682827
21
-302.064995
0
LINE
8
Layer 1
10
199.666000
20
-284.115000
11
199.326975
21
-284.556819
0
LINE
8
Layer 1
10
188.358000
20
-320.078000
11
188.241764
21
-319.250779
0
LINE
8
Layer 1
10
169.175000
20
-302.404000
11
169.616827
21
-302.064967
0
LINE
8
Layer 1
10
312.357000
20
-231.793000
11
312.909280
21
-231.369215
0
LINE
8
Layer 1
10
184.304000
20
-317.022000
11
183.535033
21
-317.348362
0
LINE
8
Layer 1
10
407.966000
20
-230.219000
11
406.662420
21
-229.704340
0
LINE
8
Layer 1
10
199.327000
20
-251.490000
11
199.113880
21
-252.004519
0
LINE
8
Layer 1
10
202.241000
20
-250.709000
11
201.726481
21
-250.495866
0
LINE
8
Layer 1
10
473.537000
20
-246.177000
11
470.334800
21
-246.185749
0
LINE
8
Layer 1
10
199.666000
20
-268.999000
11
200.107827
21
-269.338033
0
LINE
8
Layer 1
10
166.260000
20
-251.490000
11
166.046880
21
-252.004519
0
LINE
8
Layer 1
10
227.892000
20
-239.729000
11
229.005210
21
-239.801842
0
LINE
8
Layer 1
10
203.235000
20
-252.005000
11
203.021880
21
-251.490481
0
LINE
8
Layer 1
10
167.556000
20
-250.496000
11
167.041481
21
-250.709134
0
LINE
8
Layer 1
10
203.308000
20
-285.623000
11
203.308000
21
-300.557000
0
LINE
8
Layer 1
10
328.489000
20
-312.369000
11
328.610807
21
-311.911546
0
LINE
8
Layer 1
10
173.535000
20
-261.111000
11
172.714569
21
-264.206350
0
LINE
8
Layer 1
10
166.600000
20
-268.999000
11
167.041827
21
-269.338005
0
LINE
8
Layer 1
10
187.441000
20
-322.348000
11
187.943756
21
-321.680855
0
LINE
8
Layer 1
10
201.175000
20
-269.623000
11
201.727148
21
-269.550300
0
LINE
8
Layer 1
10
226.808000
20
-239.464000
11
227.891650
21
-239.729035
0
LINE
8
Layer 1
10
330.048000
20
-310.805000
11
330.521000
21
-310.805000
0
LINE
8
Layer 1
10
166.047000
20
-268.042000
11
166.260120
21
-268.556519
0
LINE
8
Layer 1
10
484.127000
20
-256.709000
11
483.289817
21
-253.618130
0
LINE
8
Layer 1
10
459.703000
20
-281.916000
11
460.120971
21
-285.090830
0
LINE
8
Layer 1
10
332.085000
20
-312.363000
11
332.085000
21
-312.836000
0
LINE
8
Layer 1
10
199.666000
20
-251.048000
11
199.326975
21
-251.489819
0
LINE
8
Layer 1
10
167.041000
20
-269.338000
11
167.555519
21
-269.551134
0
LINE
8
Layer 1
10
486.755000
20
-276.683000
11
486.415995
21
-277.124819
0
LINE
8
Layer 1
10
224.570000
20
-312.393000
11
224.141282
21
-310.793000
0
LINE
8
Layer 1
10
331.962000
20
-311.906000
11
332.085246
21
-312.363030
0
LINE
8
Layer 1
10
478.103000
20
-292.540000
11
480.643530
21
-290.590610
0
LINE
8
Layer 1
10
313.333000
20
-228.150000
11
312.909215
21
-227.597692
0
LINE
8
Layer 1
10
172.614000
20
-289.348000
11
173.031976
21
-292.522860
0
LINE
8
Layer 1
10
405.298000
20
-229.384000
11
403.901420
21
-229.266709
0
LINE
8
Layer 1
10
219.770000
20
-309.621000
11
218.598720
21
-310.792280
0
LINE
8
Layer 1
10
309.138000
20
-227.598000
11
308.714215
21
-228.150308
0
LINE
8
Layer 1
10
231.185000
20
-239.368000
11
232.185490
21
-238.874478
0
LINE
8
Layer 1
10
168.660000
20
-269.551000
11
169.174519
21
-269.337866
0
LINE
8
Layer 1
10
233.085000
20
-238.215000
11
233.856358
21
-237.409059
0
LINE
8
Layer 1
10
476.633000
20
-246.997000
11
473.537650
21
-246.176581
0
LINE
8
Layer 1
10
172.614000
20
-289.348000
11
172.714657
21
-264.206500
0
LINE
8
Layer 1
10
328.850000
20
-313.709000
11
328.612651
21
-313.299439
0
LINE
8
Layer 1
10
183.583000
20
-322.891000
11
184.357530
21
-323.203956
0
LINE
8
Layer 1
10
453.063000
20
-260.058000
11
453.135700
21
-260.610139
0
LINE
8
Layer 1
10
487.711000
20
-276.131000
11
487.196481
21
-276.344134
0
LINE
8
Layer 1
10
457.330000
20
-278.192000
11
457.257300
21
-277.639861
0
LINE
8
Layer 1
10
410.637000
20
-245.603000
11
411.545021
21
-244.535410
0
LINE
8
Layer 1
10
486.416000
20
-277.125000
11
486.202866
21
-277.639519
0
LINE
8
Layer 1
10
455.749000
20
-295.186000
11
456.263519
21
-294.972866
0
LINE
8
Layer 1
10
454.644000
20
-243.064000
11
454.129481
21
-243.277134
0
LINE
8
Layer 1
10
453.688000
20
-276.683000
11
453.348967
21
-277.124819
0
LINE
8
Layer 1
10
309.691000
20
-227.174000
11
309.138720
21
-227.597785
0
LINE
8
Layer 1
10
331.728000
20
-313.704000
11
331.393793
21
-314.039280
0
LINE
8
Layer 1
10
504.063000
20
-333.726000
11
157.398000
21
-333.725944
0
LINE
8
Layer 1
10
200.108000
20
-302.404000
11
200.622519
21
-302.617134
0
LINE
8
Layer 1
10
444.524000
20
-313.459000
11
445.304852
21
-314.239852
0
LINE
8
Layer 1
10
312.910000
20
-227.598000
11
312.357720
21
-227.174215
0
LINE
8
Layer 1
10
199.114000
20
-268.042000
11
199.327120
21
-268.556519
0
LINE
8
Layer 1
10
166.047000
20
-252.005000
11
165.974308
21
-252.557139
0
LINE
8
Layer 1
10
404.396000
20
-248.448000
11
405.784670
21
-248.258827
0
LINE
8
Layer 1
10
233.857000
20
-237.409000
11
234.476692
21
-236.481336
0
LINE
8
Layer 1
10
201.727000
20
-302.617000
11
202.241519
21
-302.403866
0
LINE
8
Layer 1
10
203.022000
20
-268.557000
11
203.235120
21
-268.042481
0
LINE
8
Layer 1
10
486.202000
20
-260.611000
11
486.415106
21
-261.125519
0
LINE
8
Layer 1
10
223.394000
20
-236.724000
11
224.053759
21
-237.623583
0
LINE
8
Layer 1
10
457.330000
20
-245.125000
11
457.257300
21
-244.572861
0
LINE
8
Layer 1
10
456.705000
20
-261.567000
11
457.044033
21
-261.125181
0
LINE
8
Layer 1
10
488.815000
20
-276.131000
11
488.262861
21
-276.058328
0
LINE
8
Layer 1
10
488.263000
20
-276.058000
11
487.710861
21
-276.130672
0
LINE
8
Layer 1
10
456.705000
20
-294.634000
11
457.044033
21
-294.192153
0
LINE
8
Layer 1
10
457.257000
20
-244.573000
11
457.043894
21
-244.058481
0
LINE
8
Layer 1
10
222.900000
20
-235.724000
11
223.393522
21
-236.724480
0
LINE
8
Layer 1
10
455.749000
20
-262.119000
11
456.263519
21
-261.905866
0
LINE
8
Layer 1
10
229.005000
20
-239.802000
11
230.113950
21
-239.680447
0
LINE
8
Layer 1
10
489.330000
20
-261.906000
11
489.771819
21
-261.566967
0
LINE
8
Layer 1
10
486.416000
20
-261.125000
11
486.755033
21
-261.566819
0
LINE
8
Layer 1
10
456.263000
20
-261.906000
11
456.704819
21
-261.566967
0
LINE
8
Layer 1
10
189.544000
20
-254.429000
11
186.448640
21
-253.608552
0
LINE
8
Layer 1
10
187.916000
20
-318.481000
11
187.401715
21
-317.822689
0
LINE
8
Layer 1
10
457.257000
20
-260.611000
11
457.329700
21
-260.058861
0
LINE
8
Layer 1
10
225.544000
20
-227.932000
11
224.644409
21
-228.591750
0
LINE
8
Layer 1
10
446.372000
20
-314.526000
11
447.438660
21
-314.240166
0
LINE
8
Layer 1
10
455.749000
20
-243.064000
11
455.196833
21
-242.991300
0
LINE
8
Layer 1
10
488.815000
20
-295.186000
11
489.329519
21
-294.972894
0
LINE
8
Layer 1
10
455.197000
20
-242.992000
11
454.644861
21
-243.064700
0
LINE
8
Layer 1
10
488.263000
20
-295.258000
11
488.815139
21
-295.185300
0
LINE
8
Layer 1
10
487.711000
20
-295.186000
11
488.263139
21
-295.258700
0
LINE
8
Layer 1
10
490.111000
20
-294.192000
11
490.324134
21
-293.677481
0
LINE
8
Layer 1
10
457.044000
20
-294.192000
11
457.257106
21
-293.677481
0
LINE
8
Layer 1
10
456.263000
20
-294.973000
11
456.704847
21
-294.633995
0
LINE
8
Layer 1
10
223.873000
20
-229.398000
11
223.253311
21
-230.325664
0
LINE
8
Layer 1
10
484.127000
20
-256.709000
11
484.236305
21
-281.916300
0
LINE
8
Layer 1
10
457.044000
20
-261.125000
11
457.257106
21
-260.610481
0
LINE
8
Layer 1
10
489.330000
20
-276.344000
11
488.815481
21
-276.130866
0
LINE
8
Layer 1
10
453.349000
20
-277.125000
11
453.135866
21
-277.639519
0
LINE
8
Layer 1
10
222.539000
20
-232.430000
11
222.466158
21
-233.543220
0
LINE
8
Layer 1
10
186.734000
20
-317.320000
11
185.959470
21
-317.007044
0
LINE
8
Layer 1
10
200.623000
20
-283.563000
11
200.108481
21
-283.776134
0
LINE
8
Layer 1
10
475.144000
20
-293.765000
11
478.102480
21
-292.539560
0
LINE
8
Layer 1
10
453.136000
20
-277.640000
11
453.063328
21
-278.192139
0
LINE
8
Layer 1
10
157.398000
20
-333.726000
11
157.397997
21
-213.591000
0
LINE
8
Layer 1
10
504.063000
20
-213.590000
11
504.063000
21
-333.726000
0
LINE
8
Layer 1
10
224.645000
20
-228.592000
11
223.873639
21
-229.397941
0
LINE
8
Layer 1
10
226.545000
20
-227.439000
11
225.544510
21
-227.932522
0
LINE
8
Layer 1
10
230.922000
20
-227.343000
11
229.838350
21
-227.077965
0
LINE
8
Layer 1
10
231.943000
20
-227.792000
11
230.921840
21
-227.342787
0
LINE
8
Layer 1
10
233.676000
20
-229.183000
11
232.870053
21
-228.411631
0
LINE
8
Layer 1
10
234.336000
20
-230.083000
11
233.676241
21
-229.183417
0
LINE
8
Layer 1
10
234.830000
20
-231.083000
11
234.336478
21
-230.082490
0
LINE
8
Layer 1
10
235.142000
20
-232.154000
11
234.829710
21
-231.083020
0
LINE
8
Layer 1
10
235.264000
20
-233.263000
11
235.142427
21
-232.154040
0
LINE
8
Layer 1
10
235.191000
20
-234.376000
11
235.263844
21
-233.262800
0
LINE
8
Layer 1
10
234.926000
20
-235.460000
11
235.191043
21
-234.376350
0
LINE
8
Layer 1
10
234.476000
20
-236.481000
11
234.925190
21
-235.459840
0
LINE
8
Layer 1
10
230.114000
20
-239.680000
11
231.184990
21
-239.367693
0
LINE
8
Layer 1
10
177.387000
20
-256.063000
11
175.128810
21
-258.333450
0
LINE
8
Layer 1
10
180.156000
20
-254.454000
11
177.387120
21
-256.062610
0
LINE
8
Layer 1
10
183.247000
20
-253.617000
11
180.156130
21
-254.454183
0
LINE
8
Layer 1
10
186.449000
20
-253.609000
11
183.246770
21
-253.617749
0
LINE
8
Layer 1
10
192.322000
20
-256.023000
11
189.544460
21
-254.429410
0
LINE
8
Layer 1
10
196.201000
20
-261.050000
11
194.592390
21
-258.281120
0
LINE
8
Layer 1
10
197.038000
20
-264.141000
11
196.200834
21
-261.050130
0
LINE
8
Layer 1
10
197.038000
20
-264.141000
11
197.147319
21
-289.348300
0
LINE
8
Layer 1
10
195.504000
20
-295.481000
11
196.729440
21
-292.522520
0
LINE
8
Layer 1
10
193.555000
20
-298.022000
11
195.504400
21
-295.481490
0
LINE
8
Layer 1
10
188.056000
20
-301.197000
11
191.014480
21
-299.971560
0
LINE
8
Layer 1
10
184.881000
20
-301.615000
11
188.055850
21
-301.197001
0
LINE
8
Layer 1
10
178.748000
20
-299.971000
11
181.706480
21
-301.196440
0
LINE
8
Layer 1
10
174.258000
20
-295.481000
11
176.207400
21
-298.021510
0
LINE
8
Layer 1
10
173.032000
20
-292.523000
11
174.257440
21
-295.481480
0
LINE
8
Layer 1
10
202.683000
20
-251.048000
11
202.241173
21
-250.708967
0
LINE
8
Layer 1
10
203.308000
20
-252.557000
11
203.235308
21
-252.004861
0
LINE
8
Layer 1
10
203.235000
20
-268.042000
11
203.307692
21
-267.489861
0
LINE
8
Layer 1
10
202.683000
20
-268.999000
11
203.022028
21
-268.557153
0
LINE
8
Layer 1
10
202.241000
20
-269.338000
11
202.682827
21
-268.998967
0
LINE
8
Layer 1
10
200.623000
20
-269.551000
11
201.175145
21
-269.623700
0
LINE
8
Layer 1
10
200.108000
20
-269.338000
11
200.622522
21
-269.551106
0
LINE
8
Layer 1
10
199.327000
20
-268.557000
11
199.666025
21
-268.998847
0
LINE
8
Layer 1
10
199.041000
20
-267.490000
11
199.113692
21
-268.042139
0
LINE
8
Layer 1
10
199.114000
20
-252.005000
11
199.041308
21
-252.557139
0
LINE
8
Layer 1
10
200.108000
20
-250.709000
11
199.666173
21
-251.048033
0
LINE
8
Layer 1
10
199.041000
20
-285.623000
11
199.041000
21
-300.557000
0
LINE
8
Layer 1
10
201.175000
20
-283.490000
11
200.622855
21
-283.562672
0
LINE
8
Layer 1
10
202.241000
20
-283.776000
11
201.726481
21
-283.562866
0
LINE
8
Layer 1
10
202.683000
20
-284.115000
11
202.241173
21
-283.775967
0
LINE
8
Layer 1
10
203.308000
20
-285.623000
11
203.235308
21
-285.070861
0
LINE
8
Layer 1
10
203.235000
20
-301.109000
11
203.307692
21
-300.556861
0
LINE
8
Layer 1
10
203.022000
20
-301.623000
11
203.235120
21
-301.108481
0
LINE
8
Layer 1
10
199.666000
20
-302.065000
11
200.107830
21
-302.404005
0
LINE
8
Layer 1
10
199.041000
20
-300.557000
11
199.113692
21
-301.109139
0
LINE
8
Layer 1
10
413.351000
20
-237.919000
11
413.111224
21
-236.538140
0
LINE
8
Layer 1
10
413.219000
20
-240.711000
11
413.387233
21
-239.319620
0
LINE
8
Layer 1
10
412.850000
20
-242.064000
11
413.219005
21
-240.711930
0
LINE
8
Layer 1
10
412.288000
20
-243.347000
11
412.849932
21
-242.063090
0
LINE
8
Layer 1
10
411.545000
20
-244.536000
11
412.287893
21
-243.347590
0
LINE
8
Layer 1
10
409.584000
20
-246.527000
11
410.637760
21
-245.602977
0
LINE
8
Layer 1
10
408.407000
20
-247.288000
11
409.584090
21
-246.527271
0
LINE
8
Layer 1
10
405.785000
20
-248.259000
11
407.131340
21
-247.869618
0
LINE
8
Layer 1
10
402.995000
20
-248.433000
11
404.396430
21
-248.447958
0
LINE
8
Layer 1
10
401.611000
20
-248.214000
11
402.995300
21
-248.432920
0
LINE
8
Layer 1
10
399.010000
20
-247.187000
11
400.272550
21
-247.795471
0
LINE
8
Layer 1
10
397.850000
20
-246.402000
11
399.010500
21
-247.187791
0
LINE
8
Layer 1
10
396.816000
20
-245.455000
11
397.849720
21
-246.401403
0
LINE
8
Layer 1
10
395.931000
20
-244.368000
11
396.815879
21
-245.454810
0
LINE
8
Layer 1
10
395.214000
20
-243.164000
11
395.931239
21
-244.368070
0
LINE
8
Layer 1
10
394.680000
20
-241.869000
11
395.214274
21
-243.164680
0
LINE
8
Layer 1
10
394.340000
20
-240.509000
11
394.679908
21
-241.868660
0
LINE
8
Layer 1
10
394.201000
20
-239.114000
11
394.339345
21
-240.508680
0
LINE
8
Layer 1
10
394.268000
20
-237.714000
11
394.201791
21
-239.113930
0
LINE
8
Layer 1
10
394.537000
20
-236.339000
11
394.267676
21
-237.714380
0
LINE
8
Layer 1
10
396.486000
20
-232.647000
11
395.658328
21
-233.778030
0
LINE
8
Layer 1
10
397.469000
20
-231.648000
11
396.485485
21
-232.646445
0
LINE
8
Layer 1
10
398.587000
20
-230.804000
11
397.468580
21
-231.648634
0
LINE
8
Layer 1
10
399.817000
20
-230.131000
11
398.587530
21
-230.803761
0
LINE
8
Layer 1
10
401.131000
20
-229.644000
11
399.816660
21
-230.130607
0
LINE
8
Layer 1
10
402.502000
20
-229.354000
11
401.130850
21
-229.644040
0
LINE
8
Layer 1
10
403.901000
20
-229.267000
11
402.502190
21
-229.354291
0
LINE
8
Layer 1
10
406.662000
20
-229.704000
11
405.297370
21
-229.384609
0
LINE
8
Layer 1
10
409.181000
20
-230.918000
11
407.966230
21
-230.218993
0
LINE
8
Layer 1
10
410.281000
20
-231.786000
11
409.180960
21
-230.917603
0
LINE
8
Layer 1
10
411.243000
20
-232.805000
11
410.281131
21
-231.785670
0
LINE
8
Layer 1
10
412.046000
20
-233.954000
11
411.242796
21
-232.805470
0
LINE
8
Layer 1
10
412.673000
20
-235.207000
11
412.045564
21
-233.953790
0
LINE
8
Layer 1
10
413.112000
20
-236.538000
11
412.673737
21
-235.206790
0
LINE
8
Layer 1
10
218.599000
20
-313.993000
11
219.770280
21
-315.164280
0
LINE
8
Layer 1
10
218.170000
20
-312.393000
11
218.598718
21
-313.993000
0
LINE
8
Layer 1
10
218.599000
20
-310.793000
11
218.170282
21
-312.393000
0
LINE
8
Layer 1
10
222.970000
20
-309.621000
11
221.370000
21
-309.192277
0
LINE
8
Layer 1
10
224.142000
20
-310.793000
11
222.970720
21
-309.621720
0
LINE
8
Layer 1
10
224.142000
20
-313.993000
11
224.570718
21
-312.393000
0
LINE
8
Layer 1
10
222.970000
20
-315.164000
11
224.141280
21
-313.992720
0
LINE
8
Layer 1
10
445.305000
20
-314.240000
11
446.371660
21
-314.525834
0
LINE
8
Layer 1
10
444.238000
20
-312.393000
11
444.523834
21
-313.459660
0
LINE
8
Layer 1
10
444.524000
20
-311.326000
11
444.238166
21
-312.392660
0
LINE
8
Layer 1
10
445.305000
20
-310.545000
11
444.524148
21
-311.325852
0
LINE
8
Layer 1
10
446.372000
20
-310.259000
11
445.305340
21
-310.544806
0
LINE
8
Layer 1
10
448.505000
20
-312.393000
11
448.219166
21
-311.326340
0
LINE
8
Layer 1
10
448.219000
20
-313.459000
11
448.504834
21
-312.392340
0
LINE
8
Layer 1
10
447.438000
20
-314.240000
11
448.218852
21
-313.459148
0
LINE
8
Layer 1
10
182.916000
20
-322.388000
11
183.583139
21
-322.890750
0
LINE
8
Layer 1
10
182.401000
20
-321.730000
11
182.915282
21
-322.388311
0
LINE
8
Layer 1
10
182.075000
20
-320.961000
11
182.401384
21
-321.729970
0
LINE
8
Layer 1
10
182.061000
20
-319.304000
11
181.959169
21
-320.133140
0
LINE
8
Layer 1
10
182.373000
20
-318.530000
11
182.060044
21
-319.304530
0
LINE
8
Layer 1
10
182.876000
20
-317.863000
11
182.373244
21
-318.530145
0
LINE
8
Layer 1
10
185.131000
20
-316.906000
11
184.303759
21
-317.022247
0
LINE
8
Layer 1
10
185.960000
20
-317.007000
11
185.130863
21
-316.905174
0
LINE
8
Layer 1
10
188.257000
20
-320.907000
11
188.358829
21
-320.077860
0
LINE
8
Layer 1
10
187.944000
20
-321.681000
11
188.256959
21
-320.906470
0
LINE
8
Layer 1
10
186.783000
20
-322.863000
11
187.441291
21
-322.348707
0
LINE
8
Layer 1
10
186.014000
20
-323.189000
11
186.782970
21
-322.862610
0
LINE
8
Layer 1
10
185.186000
20
-323.305000
11
186.013241
21
-323.188781
0
LINE
8
Layer 1
10
471.969000
20
-294.183000
11
475.143830
21
-293.765029
0
LINE
8
Layer 1
10
468.794000
20
-293.765000
11
471.968860
21
-294.182971
0
LINE
8
Layer 1
10
463.295000
20
-290.590000
11
465.835510
21
-292.539390
0
LINE
8
Layer 1
10
459.703000
20
-281.916000
11
459.803669
21
-256.774500
0
LINE
8
Layer 1
10
460.624000
20
-253.679000
11
459.803581
21
-256.774350
0
LINE
8
Layer 1
10
464.475000
20
-248.631000
11
462.216830
21
-250.901450
0
LINE
8
Layer 1
10
479.410000
20
-248.591000
11
476.632460
21
-246.997380
0
LINE
8
Layer 1
10
483.289000
20
-253.618000
11
481.680390
21
-250.849120
0
LINE
8
Layer 1
10
483.818000
20
-285.091000
11
484.235971
21
-281.916170
0
LINE
8
Layer 1
10
482.593000
20
-288.050000
11
483.818440
21
-285.091490
0
LINE
8
Layer 1
10
480.643000
20
-290.590000
11
482.592390
21
-288.049490
0
LINE
8
Layer 1
10
489.772000
20
-261.567000
11
490.111033
21
-261.125181
0
LINE
8
Layer 1
10
488.815000
20
-262.119000
11
489.329519
21
-261.905866
0
LINE
8
Layer 1
10
488.263000
20
-262.192000
11
488.815139
21
-262.119328
0
LINE
8
Layer 1
10
487.711000
20
-262.119000
11
488.263167
21
-262.191672
0
LINE
8
Layer 1
10
487.196000
20
-261.906000
11
487.710519
21
-262.119134
0
LINE
8
Layer 1
10
486.202000
20
-244.573000
11
486.129300
21
-245.125139
0
LINE
8
Layer 1
10
486.755000
20
-243.617000
11
486.415967
21
-244.058847
0
LINE
8
Layer 1
10
487.196000
20
-243.278000
11
486.754181
21
-243.617005
0
LINE
8
Layer 1
10
487.711000
20
-243.064000
11
487.196481
21
-243.277134
0
LINE
8
Layer 1
10
488.263000
20
-242.992000
11
487.710833
21
-243.064700
0
LINE
8
Layer 1
10
489.330000
20
-243.278000
11
488.815481
21
-243.064866
0
LINE
8
Layer 1
10
490.396000
20
-245.125000
11
490.323300
21
-244.572861
0
LINE
8
Layer 1
10
486.416000
20
-294.192000
11
486.755005
21
-294.633847
0
LINE
8
Layer 1
10
486.202000
20
-293.677000
11
486.415134
21
-294.191519
0
LINE
8
Layer 1
10
486.130000
20
-293.125000
11
486.202700
21
-293.677139
0
LINE
8
Layer 1
10
486.202000
20
-277.640000
11
486.129300
21
-278.192139
0
LINE
8
Layer 1
10
487.196000
20
-276.344000
11
486.754153
21
-276.683033
0
LINE
8
Layer 1
10
490.396000
20
-278.192000
11
490.323300
21
-277.639861
0
LINE
8
Layer 1
10
453.063000
20
-293.125000
11
453.135672
21
-293.677139
0
LINE
8
Layer 1
10
453.063000
20
-278.192000
11
453.063000
21
-293.125000
0
LINE
8
Layer 1
10
455.197000
20
-276.058000
11
454.644861
21
-276.130672
0
LINE
8
Layer 1
10
457.257000
20
-277.640000
11
457.043894
21
-277.125481
0
LINE
8
Layer 1
10
453.136000
20
-244.573000
11
453.063300
21
-245.125139
0
LINE
8
Layer 1
10
453.349000
20
-244.058000
11
453.135894
21
-244.572519
0
LINE
8
Layer 1
10
453.688000
20
-243.617000
11
453.348967
21
-244.058847
0
LINE
8
Layer 1
10
456.705000
20
-243.617000
11
456.263181
21
-243.277995
0
LINE
8
Layer 1
10
457.044000
20
-244.058000
11
456.704967
21
-243.616153
0
LINE
8
Layer 1
10
457.330000
20
-245.125000
11
457.330000
21
-260.058000
0
LINE
8
Layer 1
10
455.197000
20
-262.192000
11
455.749167
21
-262.119328
0
LINE
8
Layer 1
10
166.600000
20
-251.048000
11
166.260972
21
-251.489819
0
LINE
8
Layer 1
10
168.108000
20
-250.423000
11
167.555852
21
-250.495672
0
LINE
8
Layer 1
10
168.660000
20
-250.496000
11
168.107852
21
-250.423328
0
LINE
8
Layer 1
10
169.650000
20
-251.092000
11
169.886169
21
-252.084208
0
LINE
8
Layer 1
10
169.886000
20
-252.084000
11
170.241459
21
-252.974495
0
LINE
8
Layer 1
10
169.956000
20
-268.557000
11
170.169123
21
-268.042481
0
LINE
8
Layer 1
10
166.260000
20
-268.557000
11
166.599028
21
-268.998847
0
LINE
8
Layer 1
10
166.048000
20
-285.071000
11
165.975308
21
-285.623167
0
LINE
8
Layer 1
10
166.261000
20
-284.557000
11
166.047877
21
-285.071519
0
LINE
8
Layer 1
10
168.108000
20
-283.490000
11
167.555852
21
-283.562700
0
LINE
8
Layer 1
10
169.175000
20
-283.776000
11
168.660481
21
-283.562894
0
LINE
8
Layer 1
10
169.617000
20
-284.115000
11
169.175173
21
-283.775967
0
LINE
8
Layer 1
10
166.600000
20
-302.065000
11
167.041827
21
-302.404033
0
LINE
8
Layer 1
10
166.048000
20
-301.109000
11
166.261123
21
-301.623519
0
LINE
8
Layer 1
10
330.521000
20
-310.804000
11
330.978425
21
-310.925779
0
LINE
8
Layer 1
10
330.979000
20
-310.926000
11
331.389351
21
-311.162050
0
LINE
8
Layer 1
10
331.724000
20
-311.496000
11
331.961349
21
-311.905589
0
LINE
8
Layer 1
10
332.086000
20
-312.836000
11
331.964221
21
-313.293425
0
LINE
8
Layer 1
10
331.964000
20
-313.294000
11
331.727978
21
-313.704323
0
LINE
8
Layer 1
10
330.984000
20
-314.277000
11
330.526941
21
-314.400246
0
LINE
8
Layer 1
10
329.596000
20
-314.279000
11
329.185677
21
-314.042978
0
LINE
8
Layer 1
10
329.186000
20
-314.043000
11
328.850748
21
-313.708793
0
LINE
8
Layer 1
10
328.490000
20
-312.842000
11
328.490000
21
-312.369000
0
LINE
8
Layer 1
10
328.847000
20
-311.501000
11
329.181179
21
-311.165748
0
LINE
8
Layer 1
10
310.334000
20
-226.908000
11
309.690844
21
-227.174389
0
LINE
8
Layer 1
10
311.024000
20
-226.817000
11
310.333826
21
-226.907876
0
LINE
8
Layer 1
10
312.357000
20
-227.174000
11
311.713844
21
-226.907611
0
LINE
8
Layer 1
10
313.600000
20
-228.794000
11
313.333582
21
-228.150873
0
LINE
8
Layer 1
10
313.691000
20
-229.484000
11
313.600153
21
-228.793798
0
LINE
8
Layer 1
10
313.600000
20
-230.174000
11
313.690847
21
-229.483826
0
LINE
8
Layer 1
10
313.333000
20
-230.817000
11
313.599418
21
-230.173844
0
LINE
8
Layer 1
10
312.910000
20
-231.369000
11
313.333785
21
-230.816720
0
LINE
8
Layer 1
10
311.714000
20
-232.060000
11
312.357156
21
-231.793611
0
LINE
8
Layer 1
10
311.024000
20
-232.150000
11
311.714174
21
-232.059124
0
LINE
8
Layer 1
10
310.334000
20
-232.060000
11
311.024174
21
-232.150876
0
LINE
8
Layer 1
10
309.691000
20
-231.793000
11
310.334156
21
-232.059389
0
LINE
8
Layer 1
10
309.138000
20
-231.369000
11
309.690280
21
-231.792785
0
LINE
8
Layer 1
10
308.715000
20
-230.817000
11
309.138785
21
-231.369280
0
LINE
8
Layer 1
10
308.448000
20
-230.174000
11
308.714389
21
-230.817156
0
LINE
8
Layer 1
10
308.357000
20
-229.484000
11
308.447876
21
-230.174174
0
LINE
8
Layer 1
10
308.448000
20
-228.794000
11
308.357124
21
-229.484202
0
LINE
8
Layer 1
10
308.715000
20
-228.150000
11
308.448611
21
-228.793127
0
LINE
8
Layer 1
10
439.160000
20
-262.442000
11
439.098222
21
-261.972665
0
LINE
8
Layer 1
10
439.160000
20
-262.442000
11
439.160000
21
-283.775000
0
LINE
8
Layer 1
10
439.098000
20
-284.244000
11
439.159778
21
-283.774665
0
LINE
8
Layer 1
10
438.917000
20
-284.682000
11
439.098158
21
-284.244669
0
LINE
8
Layer 1
10
438.629000
20
-285.057000
11
438.917177
21
-284.681447
0
LINE
8
Layer 1
10
438.254000
20
-285.345000
11
438.629553
21
-285.056823
0
LINE
8
Layer 1
10
437.816000
20
-285.526000
11
438.253331
21
-285.344842
0
LINE
8
Layer 1
10
437.347000
20
-285.588000
11
437.816335
21
-285.526222
0
LINE
8
Layer 1
10
436.878000
20
-285.526000
11
437.347307
21
-285.587778
0
LINE
8
Layer 1
10
436.440000
20
-285.345000
11
436.877359
21
-285.526158
0
LINE
8
Layer 1
10
436.065000
20
-285.057000
11
436.440553
21
-285.345177
0
LINE
8
Layer 1
10
435.777000
20
-284.682000
11
436.065177
21
-285.057553
0
LINE
8
Layer 1
10
435.595000
20
-284.244000
11
435.776130
21
-284.681331
0
LINE
8
Layer 1
10
435.534000
20
-283.775000
11
435.595807
21
-284.244335
0
LINE
8
Layer 1
10
435.534000
20
-262.442000
11
435.534000
21
-283.775000
0
LINE
8
Layer 1
10
435.595000
20
-261.972000
11
435.533193
21
-262.441335
0
LINE
8
Layer 1
10
435.777000
20
-261.535000
11
435.595870
21
-261.972331
0
LINE
8
Layer 1
10
436.065000
20
-261.159000
11
435.776823
21
-261.534553
0
LINE
8
Layer 1
10
436.440000
20
-260.871000
11
436.064447
21
-261.159177
0
LINE
8
Layer 1
10
436.878000
20
-260.690000
11
436.440641
21
-260.871158
0
LINE
8
Layer 1
10
437.347000
20
-260.628000
11
436.877693
21
-260.689778
0
LINE
8
Layer 1
10
437.816000
20
-260.690000
11
437.346665
21
-260.628222
0
LINE
8
Layer 1
10
438.254000
20
-260.871000
11
437.816669
21
-260.689842
0
LINE
8
Layer 1
10
438.629000
20
-261.159000
11
438.253447
21
-260.870823
0
LINE
8
Layer 1
10
438.917000
20
-261.535000
11
438.628823
21
-261.159447
0
LINE
8
Layer 1
10
439.098000
20
-261.972000
11
438.916842
21
-261.534669
0
LINE
8
Layer 1
10
411.813000
20
-293.901000
11
411.874778
21
-294.370307
0
LINE
8
Layer 1
10
411.813000
20
-293.901000
11
411.813000
21
-272.567000
0
LINE
8
Layer 1
10
411.874000
20
-272.098000
11
411.812222
21
-272.567335
0
LINE
8
Layer 1
10
412.055000
20
-271.661000
11
411.873842
21
-272.098331
0
LINE
8
Layer 1
10
412.344000
20
-271.285000
11
412.055823
21
-271.660553
0
LINE
8
Layer 1
10
412.719000
20
-270.997000
11
412.343447
21
-271.285177
0
LINE
8
Layer 1
10
413.157000
20
-270.816000
11
412.719669
21
-270.997158
0
LINE
8
Layer 1
10
413.626000
20
-270.754000
11
413.156665
21
-270.815778
0
LINE
8
Layer 1
10
414.095000
20
-270.816000
11
413.625693
21
-270.754222
0
LINE
8
Layer 1
10
414.533000
20
-270.997000
11
414.095641
21
-270.815842
0
LINE
8
Layer 1
10
414.908000
20
-271.285000
11
414.532447
21
-270.996823
0
LINE
8
Layer 1
10
415.196000
20
-271.661000
11
414.907851
21
-271.285447
0
LINE
8
Layer 1
10
415.377000
20
-272.098000
11
415.195842
21
-271.660669
0
LINE
8
Layer 1
10
415.439000
20
-272.567000
11
415.377193
21
-272.097665
0
LINE
8
Layer 1
10
415.439000
20
-272.567000
11
415.439000
21
-293.901000
0
LINE
8
Layer 1
10
415.377000
20
-294.370000
11
415.438807
21
-293.900693
0
LINE
8
Layer 1
10
415.196000
20
-294.807000
11
415.377158
21
-294.369641
0
LINE
8
Layer 1
10
414.908000
20
-295.183000
11
415.196149
21
-294.807447
0
LINE
8
Layer 1
10
414.533000
20
-295.471000
11
414.908553
21
-295.182851
0
LINE
8
Layer 1
10
414.095000
20
-295.652000
11
414.532359
21
-295.470842
0
LINE
8
Layer 1
10
413.626000
20
-295.714000
11
414.095307
21
-295.652193
0
LINE
8
Layer 1
10
412.719000
20
-295.471000
11
413.156331
21
-295.652158
0
LINE
8
Layer 1
10
412.344000
20
-295.183000
11
412.719553
21
-295.471149
0
LINE
8
Layer 1
10
412.055000
20
-294.807000
11
412.343177
21
-295.182553
0
LINE
8
Layer 1
10
490.396000
20
-260.058000
11
490.323300
21
-260.610139
0
LINE
8
Layer 1
10
490.396000
20
-293.125000
11
490.396000
21
-278.192000
0
LINE
8
Layer 1
10
486.130000
20
-278.192000
11
486.130000
21
-293.125000
0
LINE
8
Layer 1
10
165.975000
20
-285.623000
11
165.975000
21
-300.557000
0
LINE
8
Layer 1
10
199.041000
20
-252.557000
11
199.041000
21
-267.490000
0
LINE
8
Layer 1
10
165.975000
20
-252.557000
11
165.975000
21
-267.490000
0
LINE
8
Layer 1
10
486.130000
20
-260.058000
11
486.130000
21
-245.125000
0
LINE
8
Layer 1
10
170.242000
20
-285.623000
11
170.242000
21
-300.557000
0
LINE
8
Layer 1
10
170.241000
20
-252.974000
11
170.241000
21
-267.490000
0
LINE
8
Layer 1
10
457.330000
20
-293.125000
11
457.330000
21
-278.192000
0
LINE
8
Layer 1
10
173.535000
20
-261.111000
11
175.128610
21
-258.333460
0
LINE
8
Layer 1
10
203.308000
20
-252.557000
11
203.308000
21
-267.490000
0
LINE
8
Layer 1
10
490.396000
20
-260.058000
11
490.396000
21
-245.125000
0
LINE
8
Layer 1
10
645.344000
20
45.612800
11
645.987156
21
45.346411
0
LINE
8
Layer 1
10
709.519000
20
66.588900
11
709.519000
21
61.255600
0
LINE
8
Layer 1
10
648.549000
20
-270.190000
11
647.996720
21
-269.766215
0
LINE
8
Layer 1
10
666.853000
20
66.589000
11
666.853000
21
61.255700
0
LINE
8
Layer 1
10
648.010000
20
50.231600
11
647.366844
21
50.497989
0
LINE
8
Layer 1
10
644.101000
20
47.232000
11
644.367389
21
46.588844
0
LINE
8
Layer 1
10
644.101000
20
48.612400
11
644.010124
21
47.922198
0
LINE
8
Layer 1
10
644.354000
20
-273.409000
11
644.777785
21
-273.961280
0
LINE
8
Layer 1
10
648.563000
20
49.807900
11
648.010720
21
50.231685
0
LINE
8
Layer 1
10
646.664000
20
-269.409000
11
645.973798
21
-269.499847
0
LINE
8
Layer 1
10
648.973000
20
-273.409000
11
649.239389
21
-272.765844
0
LINE
8
Layer 1
10
666.853000
20
61.255700
11
709.519200
21
61.255644
0
LINE
8
Layer 1
10
647.354000
20
-274.651000
11
647.997156
21
-274.384611
0
LINE
8
Layer 1
10
625.450000
20
-290.742000
11
625.450000
21
66.588900
0
LINE
8
Layer 1
10
666.852000
20
-290.742000
11
625.450000
21
-290.742000
0
LINE
8
Layer 1
10
666.852000
20
-290.742000
11
666.852000
21
-285.409000
0
LINE
8
Layer 1
10
709.518000
20
-285.409000
11
666.852000
21
-285.409000
0
LINE
8
Layer 1
10
709.518000
20
-290.742000
11
709.518000
21
-285.409000
0
LINE
8
Layer 1
10
750.920000
20
-290.742000
11
709.518000
21
-290.742000
0
LINE
8
Layer 1
10
750.920000
20
-112.077000
11
756.254000
21
-112.077000
0
LINE
8
Layer 1
10
756.254000
20
-69.410000
11
756.254000
21
-112.077000
0
LINE
8
Layer 1
10
750.920000
20
-69.410000
11
756.254000
21
-69.410000
0
LINE
8
Layer 1
10
750.920000
20
66.588900
11
750.920000
21
-69.410000
0
LINE
8
Layer 1
10
709.519000
20
66.588900
11
750.920500
21
66.588872
0
LINE
8
Layer 1
10
625.450000
20
66.588900
11
666.852200
21
66.588985
0
LINE
8
Layer 1
10
644.088000
20
-272.766000
11
644.354389
21
-273.409156
0
LINE
8
Layer 1
10
643.997000
20
-272.076000
11
644.087875
21
-272.766174
0
LINE
8
Layer 1
10
644.088000
20
-271.385000
11
643.997124
21
-272.075202
0
LINE
8
Layer 1
10
644.354000
20
-270.742000
11
644.087611
21
-271.385127
0
LINE
8
Layer 1
10
644.778000
20
-270.190000
11
644.354215
21
-270.742280
0
LINE
8
Layer 1
10
645.330000
20
-269.766000
11
644.777692
21
-270.189785
0
LINE
8
Layer 1
10
645.974000
20
-269.500000
11
645.330873
21
-269.766418
0
LINE
8
Layer 1
10
647.354000
20
-269.500000
11
646.663826
21
-269.409153
0
LINE
8
Layer 1
10
647.997000
20
-269.766000
11
647.353844
21
-269.499582
0
LINE
8
Layer 1
10
648.973000
20
-270.742000
11
648.549215
21
-270.189720
0
LINE
8
Layer 1
10
649.239000
20
-271.385000
11
648.972611
21
-270.741873
0
LINE
8
Layer 1
10
649.330000
20
-272.076000
11
649.239125
21
-271.385798
0
LINE
8
Layer 1
10
649.239000
20
-272.766000
11
649.329876
21
-272.075826
0
LINE
8
Layer 1
10
648.549000
20
-273.961000
11
648.972785
21
-273.408720
0
LINE
8
Layer 1
10
647.997000
20
-274.385000
11
648.549280
21
-273.961215
0
LINE
8
Layer 1
10
646.664000
20
-274.742000
11
647.354174
21
-274.651125
0
LINE
8
Layer 1
10
645.974000
20
-274.651000
11
646.664202
21
-274.741875
0
LINE
8
Layer 1
10
645.330000
20
-274.385000
11
645.973127
21
-274.651389
0
LINE
8
Layer 1
10
644.778000
20
-273.961000
11
645.330308
21
-274.384785
0
LINE
8
Layer 1
10
648.986000
20
46.588900
11
649.252418
21
47.232056
0
LINE
8
Layer 1
10
648.563000
20
46.036600
11
648.986785
21
46.588880
0
LINE
8
Layer 1
10
648.010000
20
45.612800
11
648.562280
21
46.036585
0
LINE
8
Layer 1
10
647.367000
20
45.346400
11
648.010156
21
45.612789
0
LINE
8
Layer 1
10
646.677000
20
45.255600
11
647.367174
21
45.346476
0
LINE
8
Layer 1
10
645.987000
20
45.346400
11
646.677174
21
45.255524
0
LINE
8
Layer 1
10
644.791000
20
46.036600
11
645.343280
21
45.612815
0
LINE
8
Layer 1
10
644.368000
20
46.588900
11
644.791785
21
46.036620
0
LINE
8
Layer 1
10
644.010000
20
47.922200
11
644.100876
21
47.232026
0
LINE
8
Layer 1
10
644.368000
20
49.255600
11
644.101611
21
48.612444
0
LINE
8
Layer 1
10
644.791000
20
49.807900
11
644.367215
21
49.255620
0
LINE
8
Layer 1
10
645.344000
20
50.231600
11
644.791720
21
49.807815
0
LINE
8
Layer 1
10
645.987000
20
50.498000
11
645.343844
21
50.231611
0
LINE
8
Layer 1
10
646.677000
20
50.588900
11
645.986826
21
50.498024
0
LINE
8
Layer 1
10
647.367000
20
50.498000
11
646.676826
21
50.588876
0
LINE
8
Layer 1
10
648.986000
20
49.255600
11
648.562215
21
49.807880
0
LINE
8
Layer 1
10
649.253000
20
48.612400
11
648.986582
21
49.255556
0
LINE
8
Layer 1
10
649.344000
20
47.922200
11
649.253153
21
48.612402
0
LINE
8
Layer 1
10
649.253000
20
47.232000
11
649.343847
21
47.922174
0
LINE
8
Layer 1
10
750.920000
20
-290.742000
11
750.920000
21
-112.077000
0
LINE
8
Layer 1
10
85.844800
20
-187.783000
11
79.658140
21
-187.780178
0
LINE
8
Layer 1
10
15.013600
20
-309.362000
11
14.370451
21
-309.628389
0
LINE
8
Layer 1
10
90.502100
20
-198.658000
11
96.688800
21
-198.658000
0
LINE
8
Layer 1
10
17.037200
20
-309.628000
11
16.394051
21
-309.361611
0
LINE
8
Layer 1
10
13.394400
20
-310.604000
11
13.127999
21
-311.247156
0
LINE
8
Layer 1
10
119.946000
20
-263.271000
11
119.946000
21
-319.938000
0
LINE
8
Layer 1
10
53.386000
20
-185.213000
11
47.199300
21
-185.213000
0
LINE
8
Layer 1
10
96.688800
20
-177.224000
11
96.688800
21
-187.784000
0
LINE
8
Layer 1
10
13.037200
20
-311.938000
11
13.128064
21
-312.628174
0
LINE
8
Layer 1
10
75.586200
20
-211.973000
11
69.399500
21
-211.973000
0
LINE
8
Layer 1
10
58.036700
20
-187.805000
11
58.036700
21
-177.245000
0
LINE
8
Layer 1
10
25.866000
20
-193.698000
11
24.959334
21
-193.455063
0
LINE
8
Layer 1
10
36.360300
20
-185.213000
11
36.361993
21
-177.245000
0
LINE
8
Layer 1
10
111.093000
20
-191.896000
11
110.850060
21
-192.802666
0
LINE
8
Layer 1
10
42.548700
20
-177.246000
11
42.547007
21
-185.214000
0
LINE
8
Layer 1
10
13.128000
20
-312.628000
11
13.394401
21
-313.271156
0
LINE
8
Layer 1
10
47.199300
20
-185.213000
11
47.199300
21
-177.245000
0
LINE
8
Layer 1
10
78.544800
20
-325.271000
11
35.878200
21
-325.271282
0
LINE
8
Layer 1
10
64.223300
20
-187.805000
11
58.036700
21
-187.805000
0
LINE
8
Layer 1
10
69.399500
20
-211.972000
11
69.402322
21
-198.724000
0
LINE
8
Layer 1
10
18.013200
20
-313.271000
11
18.279601
21
-312.627844
0
LINE
8
Layer 1
10
85.699300
20
-198.725000
11
85.699300
21
-211.973000
0
LINE
8
Layer 1
10
35.878100
20
-163.939000
11
-5.523100
21
-163.939000
0
LINE
8
Layer 1
10
27.436400
20
-192.791000
11
26.772675
21
-193.454730
0
LINE
8
Layer 1
10
68.871800
20
-187.805000
11
68.874058
21
-177.245000
0
LINE
8
Layer 1
10
69.402300
20
-198.724000
11
75.589000
21
-198.724000
0
LINE
8
Layer 1
10
79.512600
20
-198.725000
11
85.699300
21
-198.725000
0
LINE
8
Layer 1
10
18.013200
20
-310.604000
11
17.589417
21
-310.051720
0
LINE
8
Layer 1
10
35.878100
20
-158.605000
11
78.544700
21
-158.605000
0
LINE
8
Layer 1
10
107.466000
20
-191.896000
11
107.708940
21
-190.989334
0
LINE
8
Layer 1
10
18.279600
20
-311.248000
11
18.013199
21
-310.604844
0
LINE
8
Layer 1
10
17.589400
20
-313.823000
11
18.013183
21
-313.270720
0
LINE
8
Layer 1
10
-0.189772
20
-263.271000
11
-0.189772
21
-220.605000
0
LINE
8
Layer 1
10
125.279000
20
-220.605000
11
125.279000
21
-263.271000
0
LINE
8
Layer 1
10
26.772700
20
-193.455000
11
25.866034
21
-193.697937
0
LINE
8
Layer 1
10
-5.523100
20
-263.271000
11
-0.189770
21
-263.270972
0
LINE
8
Layer 1
10
109.279000
20
-190.083000
11
110.185664
21
-190.325937
0
LINE
8
Layer 1
10
96.688800
20
-198.658000
11
96.688800
21
-211.906000
0
LINE
8
Layer 1
10
35.878100
20
-163.939000
11
35.878100
21
-158.605000
0
LINE
8
Layer 1
10
14.370500
20
-314.247000
11
15.013649
21
-314.513389
0
LINE
8
Layer 1
10
90.502100
20
-187.784000
11
90.502100
21
-177.224000
0
LINE
8
Layer 1
10
107.709000
20
-190.989000
11
108.372727
21
-190.325270
0
LINE
8
Layer 1
10
108.373000
20
-193.466000
11
107.709273
21
-192.802270
0
LINE
8
Layer 1
10
17.037200
20
-314.247000
11
17.589484
21
-313.823215
0
LINE
8
Layer 1
10
18.370500
20
-311.938000
11
18.279636
21
-311.247798
0
LINE
8
Layer 1
10
-5.523100
20
-163.939000
11
-5.523100
21
-220.605000
0
LINE
8
Layer 1
10
15.703800
20
-314.604000
11
16.393983
21
-314.513125
0
LINE
8
Layer 1
10
13.128000
20
-311.248000
11
13.037136
21
-311.938202
0
LINE
8
Layer 1
10
119.946000
20
-263.271000
11
125.279000
21
-263.271000
0
LINE
8
Layer 1
10
15.703800
20
-309.271000
11
15.013616
21
-309.361875
0
LINE
8
Layer 1
10
90.502100
20
-177.224000
11
96.688800
21
-177.224000
0
LINE
8
Layer 1
10
24.295600
20
-190.978000
11
24.959325
21
-190.314270
0
LINE
8
Layer 1
10
85.699300
20
-211.973000
11
79.512600
21
-211.973000
0
LINE
8
Layer 1
10
16.394000
20
-309.362000
11
15.703817
21
-309.271125
0
LINE
8
Layer 1
10
110.850000
20
-190.989000
11
111.092940
21
-191.895666
0
LINE
8
Layer 1
10
107.709000
20
-192.803000
11
107.466060
21
-191.896334
0
LINE
8
Layer 1
10
13.394400
20
-313.271000
11
13.818183
21
-313.823280
0
LINE
8
Layer 1
10
17.589400
20
-310.052000
11
17.037116
21
-309.628215
0
LINE
8
Layer 1
10
35.878100
20
-319.938000
11
-5.523100
21
-319.938000
0
LINE
8
Layer 1
10
18.279600
20
-312.628000
11
18.370464
21
-311.937826
0
LINE
8
Layer 1
10
24.959300
20
-190.314000
11
25.865966
21
-190.071063
0
LINE
8
Layer 1
10
79.658200
20
-187.781000
11
79.662603
21
-177.221000
0
LINE
8
Layer 1
10
13.818200
20
-313.823000
11
14.370484
21
-314.246785
0
LINE
8
Layer 1
10
79.512600
20
-211.973000
11
79.512600
21
-198.725000
0
LINE
8
Layer 1
10
119.946000
20
-319.938000
11
78.544800
21
-319.938198
0
LINE
8
Layer 1
10
109.279000
20
-193.709000
11
108.372334
21
-193.466063
0
LINE
8
Layer 1
10
79.662600
20
-177.221000
11
85.849260
21
-177.223822
0
LINE
8
Layer 1
10
110.186000
20
-193.466000
11
109.279336
21
-193.708937
0
LINE
8
Layer 1
10
110.850000
20
-192.803000
11
110.186273
21
-193.466730
0
LINE
8
Layer 1
10
75.060600
20
-177.246000
11
75.058342
21
-187.806000
0
LINE
8
Layer 1
10
119.946000
20
-163.939000
11
119.946000
21
-220.605000
0
LINE
8
Layer 1
10
108.373000
20
-190.326000
11
109.279666
21
-190.083063
0
LINE
8
Layer 1
10
26.772700
20
-190.314000
11
27.436425
21
-190.977730
0
LINE
8
Layer 1
10
14.370500
20
-309.628000
11
13.818216
21
-310.051785
0
LINE
8
Layer 1
10
119.946000
20
-163.939000
11
78.544700
21
-163.939000
0
LINE
8
Layer 1
10
78.544700
20
-163.939000
11
78.544700
21
-158.605000
0
LINE
8
Layer 1
10
-5.523100
20
-220.605000
11
-0.189770
21
-220.604972
0
LINE
8
Layer 1
10
-5.523100
20
-263.271000
11
-5.523100
21
-319.938000
0
LINE
8
Layer 1
10
35.878100
20
-319.938000
11
35.878120
21
-325.271350
0
LINE
8
Layer 1
10
78.544700
20
-319.938000
11
78.544720
21
-325.271350
0
LINE
8
Layer 1
10
119.946000
20
-220.605000
11
125.279000
21
-220.605000
0
LINE
8
Layer 1
10
85.849200
20
-177.223000
11
85.844797
21
-187.783000
0
LINE
8
Layer 1
10
75.058400
20
-187.806000
11
68.871800
21
-187.806000
0
LINE
8
Layer 1
10
42.547000
20
-185.214000
11
36.360300
21
-185.214000
0
LINE
8
Layer 1
10
25.866000
20
-190.071000
11
26.772666
21
-190.313937
0
LINE
8
Layer 1
10
27.436400
20
-190.978000
11
27.679340
21
-191.884666
0
LINE
8
Layer 1
10
27.679300
20
-191.885000
11
27.436360
21
-192.791666
0
LINE
8
Layer 1
10
24.959300
20
-193.455000
11
24.295575
21
-192.791270
0
LINE
8
Layer 1
10
24.295600
20
-192.791000
11
24.052659
21
-191.884334
0
LINE
8
Layer 1
10
24.052700
20
-191.885000
11
24.295641
21
-190.978334
0
LINE
8
Layer 1
10
75.589000
20
-198.725000
11
75.586178
21
-211.973000
0
LINE
8
Layer 1
10
96.688800
20
-211.906000
11
90.502100
21
-211.906000
0
LINE
8
Layer 1
10
90.502100
20
-211.906000
11
90.502100
21
-198.658000
0
LINE
8
Layer 1
10
96.688800
20
-187.784000
11
90.502100
21
-187.784000
0
LINE
8
Layer 1
10
110.186000
20
-190.326000
11
110.849727
21
-190.989730
0
LINE
8
Layer 1
10
64.223300
20
-177.245000
11
64.223300
21
-187.805000
0
LINE
8
Layer 1
10
53.386000
20
-177.245000
11
53.386000
21
-185.213000
0
LINE
8
Layer 1
10
15.013600
20
-314.514000
11
15.703784
21
-314.604875
0
LINE
8
Layer 1
10
13.818200
20
-310.052000
11
13.394417
21
-310.604280
0
LINE
8
Layer 1
10
16.394000
20
-314.514000
11
17.037149
21
-314.247611
0
LINE
8
Layer 1
10
53.386000
20
-177.245000
11
47.199300
21
-177.245000
0
LINE
8
Layer 1
10
58.036700
20
-177.245000
11
64.223300
21
-177.245000
0
LINE
8
Layer 1
10
42.548700
20
-177.246000
11
36.362000
21
-177.246000
0
LINE
8
Layer 1
10
68.874000
20
-177.245000
11
75.060600
21
-177.245000
 0 
ENDSEC
 0 
EOF