  0
SECTION
  2
HEADER
  9
$ACADVER
  1
AC1014
  9
$HANDSEED
  5
FFFF
  9
$MEASUREMENT
 70
     1
  0
ENDSEC
  0
SECTION
  2
TABLES
  0
TABLE
  2
VPORT
  5
8
330
0
100
AcDbSymbolTable
 70
     4
  0
VPORT
  5
2E
330
8
100
AcDbSymbolTableRecord
100
AcDbViewportTableRecord
  2
*ACTIVE
 70
     0
 10
0.0
 20
0.0
 11
1.0
 21
1.0
 12
210.0
 22
148.5
 13
0.0
 23
0.0
 14
10.0
 24
10.0
 15
10.0
 25
10.0
 16
0.0
 26
0.0
 36
1.0
 17
0.0
 27
0.0
 37
0.0
 40
341.0
 41
1.24
 42
50.0
 43
0.0
 44
0.0
 50
0.0
 51
0.0
 71
     0
 72
   100
 73
     1
 74
     3
 75
     0
 76
     0
 77
     0
 78
     0
  0
ENDTAB
  0
TABLE
  2
LTYPE
  5
5
330
0
100
AcDbSymbolTable
 70
     1
  0
LTYPE
  5
14
330
5
100
AcDbSymbolTableRecord
100
AcDbLinetypeTableRecord
  2
BYBLOCK
 70
     0
  3

 72
    65
 73
     0
 40
0.0
  0
LTYPE
  5
15
330
5
100
AcDbSymbolTableRecord
100
AcDbLinetypeTableRecord
  2
BYLAYER
 70
     0
  3

 72
    65
 73
     0
 40
0.0
  0
LTYPE
  5
16
330
5
100
AcDbSymbolTableRecord
100
AcDbLinetypeTableRecord
  2
CONTINUOUS
 70
     0
  3
Solid line
 72
    65
 73
     0
 40
0.0
  0
ENDTAB
  0
TABLE
  2
LAYER
  5
2
100
AcDbSymbolTable
 70
2
  0
LAYER
  5
50
100
AcDbSymbolTableRecord
100
AcDbLayerTableRecord
  2
0
 70
0
  6
CONTINUOUS
  0
LAYER
  5
51
100
AcDbSymbolTableRecord
100
AcDbLayerTableRecord
  2
Calque_1
 70
0
  6
CONTINUOUS
  0
ENDTAB
  0
TABLE
  2
STYLE
  5
3
330
0
100
AcDbSymbolTable
 70
     1
  0
STYLE
  5
11
330
3
100
AcDbSymbolTableRecord
100
AcDbTextStyleTableRecord
  2
STANDARD
 70
     0
 40
0.0
 41
1.0
 50
0.0
 71
     0
 42
2.5
  3
txt
  4

  0
ENDTAB
  0
TABLE
  2
VIEW
  5
6
330
0
100
AcDbSymbolTable
 70
     0
  0
ENDTAB
  0
TABLE
  2
UCS
  5
7
330
0
100
AcDbSymbolTable
 70
     0
  0
ENDTAB
  0
TABLE
  2
APPID
  5
9
330
0
100
AcDbSymbolTable
 70
     2
  0
APPID
  5
12
330
9
100
AcDbSymbolTableRecord
100
AcDbRegAppTableRecord
  2
ACAD
 70
     0
  0
ENDTAB
  0
TABLE
  2
DIMSTYLE
  5
A
330
0
100
AcDbSymbolTable
 70
     1
  0
DIMSTYLE
105
27
330
A
100
AcDbSymbolTableRecord
100
AcDbDimStyleTableRecord
  2
ISO-25
 70
     0
  3

  4

  5

  6

  7

 40
1.0
 41
2.5
 42
0.625
 43
3.75
 44
1.25
 45
0.0
 46
0.0
 47
0.0
 48
0.0
140
2.5
141
2.5
142
0.0
143
0.03937007874016
144
1.0
145
0.0
146
1.0
147
0.625
 71
     0
 72
     0
 73
     0
 74
     0
 75
     0
 76
     0
 77
     1
 78
     8
170
     0
171
     3
172
     1
173
     0
174
     0
175
     0
176
     0
177
     0
178
     0
270
     2
271
     2
272
     2
273
     2
274
     3
340
11
275
     0
280
     0
281
     0
282
     0
283
     0
284
     8
285
     0
286
     0
287
     3
288
     0
  0
ENDTAB
  0
TABLE
  2
BLOCK_RECORD
  5
1
330
0
100
AcDbSymbolTable
 70
     1
  0
BLOCK_RECORD
  5
1F
330
1
100
AcDbSymbolTableRecord
100
AcDbBlockTableRecord
  2
*MODEL_SPACE
  0
BLOCK_RECORD
  5
1B
330
1
100
AcDbSymbolTableRecord
100
AcDbBlockTableRecord
  2
*PAPER_SPACE
  0
ENDTAB
  0
ENDSEC
  0
SECTION
  2
BLOCKS
  0
BLOCK
  5
20
330
1F
100
AcDbEntity
  8
0
100
AcDbBlockBegin
  2
*MODEL_SPACE
 70
     0
 10
0.0
 20
0.0
 30
0.0
  3
*MODEL_SPACE
  1

  0
ENDBLK
  5
21
330
1F
100
AcDbEntity
  8
0
100
AcDbBlockEnd
  0
BLOCK
  5
1C
330
1B
100
AcDbEntity
 67
     1
  8
0
100
AcDbBlockBegin
  2
*PAPER_SPACE
  1

  0
ENDBLK
  5
1D
330
1B
100
AcDbEntity
 67
     1
  8
0
100
AcDbBlockEnd
  0
ENDSEC
  0
SECTION
  2
ENTITIES
  0
LINE
  5
100
100
AcDbEntity
  8
Calque_1
 62
1
100
AcDbLine
 10
10.807790
 20
144.504298
 30
0.0
 11
12.196136
 21
136.556251
 31
0.0
  0
LINE
  5
101
100
AcDbEntity
  8
Calque_1
 62
1
100
AcDbLine
 10
266.713823
 20
88.308430
 30
0.0
 11
270.914669
 21
95.196954
 31
0.0
  0
LINE
  5
102
100
AcDbEntity
  8
Calque_1
 62
1
100
AcDbLine
 10
22.236768
 20
105.954740
 30
0.0
 11
25.827037
 21
98.729163
 31
0.0
  0
LINE
  5
103
100
AcDbEntity
  8
Calque_1
 62
1
100
AcDbLine
 10
246.170257
 20
63.504647
 30
0.0
 11
251.834220
 21
69.250834
 31
0.0
  0
LINE
  5
104
100
AcDbEntity
  8
Calque_1
 62
1
100
AcDbLine
 10
251.834220
 20
69.250834
 30
0.0
 11
257.157727
 21
75.313780
 31
0.0
  0
LINE
  5
105
100
AcDbEntity
  8
Calque_1
 62
1
100
AcDbLine
 10
159.423924
 20
24.982499
 30
0.0
 11
167.451303
 21
25.795034
 31
0.0
  0
LINE
  5
106
100
AcDbEntity
  8
Calque_1
 62
1
100
AcDbLine
 10
289.336786
 20
164.540057
 30
0.0
 11
289.102303
 21
172.673392
 31
0.0
  0
LINE
  5
107
100
AcDbEntity
  8
Calque_1
 62
1
100
AcDbLine
 10
246.170257
 20
265.712019
 30
0.0
 11
240.184654
 21
271.122345
 31
0.0
  0
LINE
  5
108
100
AcDbEntity
  8
Calque_1
 62
1
100
AcDbLine
 10
278.092229
 20
219.574538
 30
0.0
 11
274.711675
 21
226.900577
 31
0.0
  0
LINE
  5
109
100
AcDbEntity
  8
Calque_1
 62
1
100
AcDbLine
 10
88.866562
 20
38.357752
 30
0.0
 11
96.240561
 21
35.083114
 31
0.0
  0
LINE
  5
10a
100
AcDbEntity
  8
Calque_1
 62
1
100
AcDbLine
 10
257.157727
 20
75.313780
 30
0.0
 11
262.123092
 21
81.673350
 31
0.0
  0
LINE
  5
10b
100
AcDbEntity
  8
Calque_1
 62
1
100
AcDbLine
 10
227.329058
 20
48.351952
 30
0.0
 11
233.897291
 21
53.037822
 31
0.0
  0
LINE
  5
10c
100
AcDbEntity
  8
Calque_1
 62
1
100
AcDbLine
 10
206.161545
 20
292.549361
 30
0.0
 11
198.696240
 21
295.610136
 31
0.0
  0
LINE
  5
10d
100
AcDbEntity
  8
Calque_1
 62
1
100
AcDbLine
 10
143.295502
 20
24.750063
 30
0.0
 11
151.363064
 21
24.633779
 31
0.0
  0
LINE
  5
10e
100
AcDbEntity
  8
Calque_1
 62
1
100
AcDbLine
 10
151.363064
 20
24.633779
 30
0.0
 11
159.423924
 21
24.982499
 31
0.0
  0
LINE
  5
10f
100
AcDbEntity
  8
Calque_1
 62
1
100
AcDbLine
 10
74.745111
 20
46.152923
 30
0.0
 11
81.693470
 21
42.051781
 31
0.0
  0
LINE
  5
110
100
AcDbEntity
  8
Calque_1
 62
1
100
AcDbLine
 10
198.696240
 20
295.610136
 30
0.0
 11
191.067000
 21
298.235726
 31
0.0
  0
LINE
  5
111
100
AcDbEntity
  8
Calque_1
 62
1
100
AcDbLine
 10
233.897291
 20
53.037822
 30
0.0
 11
240.184654
 21
58.094321
 31
0.0
  0
LINE
  5
112
100
AcDbEntity
  8
Calque_1
 62
1
100
AcDbLine
 10
213.438114
 20
289.063586
 30
0.0
 11
206.161545
 21
292.549361
 31
0.0
  0
LINE
  5
113
100
AcDbEntity
  8
Calque_1
 62
1
100
AcDbLine
 10
287.246816
 20
140.520260
 30
0.0
 11
288.405531
 21
148.505031
 31
0.0
  0
LINE
  5
114
100
AcDbEntity
  8
Calque_1
 62
1
100
AcDbLine
 10
157.645275
 20
161.127280
 30
0.0
 11
158.016122
 21
162.194926
 31
0.0
  0
LINE
  5
115
100
AcDbEntity
  8
Calque_1
 62
1
100
AcDbLine
 10
81.693470
 20
42.051781
 30
0.0
 11
88.866562
 21
38.357752
 31
0.0
  0
LINE
  5
116
100
AcDbEntity
  8
Calque_1
 62
1
100
AcDbLine
 10
285.630008
 20
132.615525
 30
0.0
 11
287.246816
 21
140.520260
 31
0.0
  0
LINE
  5
117
100
AcDbEntity
  8
Calque_1
 62
1
100
AcDbLine
 10
159.423924
 20
304.234158
 30
0.0
 11
151.363064
 21
304.582871
 31
0.0
  0
LINE
  5
118
100
AcDbEntity
  8
Calque_1
 62
1
100
AcDbLine
 10
240.184654
 20
58.094321
 30
0.0
 11
246.170257
 21
63.504647
 31
0.0
  0
LINE
  5
119
100
AcDbEntity
  8
Calque_1
 62
1
100
AcDbLine
 10
9.879659
 20
152.519125
 30
0.0
 11
10.807790
 21
144.504298
 31
0.0
  0
LINE
  5
11a
100
AcDbEntity
  8
Calque_1
 62
1
100
AcDbLine
 10
19.068738
 20
113.375155
 30
0.0
 11
22.236768
 21
105.954740
 31
0.0
  0
LINE
  5
11b
100
AcDbEntity
  8
Calque_1
 62
1
100
AcDbLine
 10
9.414813
 20
160.574461
 30
0.0
 11
9.389678
 21
304.581042
 31
0.0
  0
LINE
  5
11c
100
AcDbEntity
  8
Calque_1
 62
1
100
AcDbLine
 10
16.333479
 20
120.965777
 30
0.0
 11
19.068738
 21
113.375155
 31
0.0
  0
LINE
  5
11d
100
AcDbEntity
  8
Calque_1
 62
1
100
AcDbLine
 10
257.157727
 20
253.902886
 30
0.0
 11
251.834220
 21
259.965832
 31
0.0
  0
LINE
  5
11e
100
AcDbEntity
  8
Calque_1
 62
1
100
AcDbLine
 10
262.123092
 20
81.673350
 30
0.0
 11
266.713823
 21
88.308430
 31
0.0
  0
LINE
  5
11f
100
AcDbEntity
  8
Calque_1
 62
1
100
AcDbLine
 10
278.092229
 20
109.642127
 30
0.0
 11
281.045099
 21
117.150755
 31
0.0
  0
LINE
  5
120
100
AcDbEntity
  8
Calque_1
 62
1
100
AcDbLine
 10
288.405531
 20
148.505031
 30
0.0
 11
289.102303
 21
156.543274
 31
0.0
  0
LINE
  5
121
100
AcDbEntity
  8
Calque_1
 62
1
100
AcDbLine
 10
266.713823
 20
240.908236
 30
0.0
 11
262.123092
 21
247.543316
 31
0.0
  0
LINE
  5
122
100
AcDbEntity
  8
Calque_1
 62
1
100
AcDbLine
 10
127.247408
 20
26.374444
 30
0.0
 11
135.248041
 21
25.330929
 31
0.0
  0
LINE
  5
123
100
AcDbEntity
  8
Calque_1
 62
1
100
AcDbLine
 10
227.329058
 20
280.864714
 30
0.0
 11
220.501771
 21
285.164373
 31
0.0
  0
LINE
  5
124
100
AcDbEntity
  8
Calque_1
 62
1
100
AcDbLine
 10
135.248041
 20
25.330929
 30
0.0
 11
143.295502
 21
24.750063
 31
0.0
  0
LINE
  5
125
100
AcDbEntity
  8
Calque_1
 62
1
100
AcDbLine
 10
12.196136
 20
136.556251
 30
0.0
 11
14.040071
 21
128.701364
 31
0.0
  0
LINE
  5
126
100
AcDbEntity
  8
Calque_1
 62
1
100
AcDbLine
 10
14.040071
 20
128.701364
 30
0.0
 11
16.333479
 21
120.965777
 31
0.0
  0
LINE
  5
127
100
AcDbEntity
  8
Calque_1
 62
1
100
AcDbLine
 10
251.834220
 20
259.965832
 30
0.0
 11
246.170257
 21
265.712019
 31
0.0
  0
LINE
  5
128
100
AcDbEntity
  8
Calque_1
 62
1
100
AcDbLine
 10
39.005273
 20
78.457793
 30
0.0
 11
44.151847
 21
72.243929
 31
0.0
  0
LINE
  5
129
100
AcDbEntity
  8
Calque_1
 62
1
100
AcDbLine
 10
220.501771
 20
285.164373
 30
0.0
 11
213.438114
 21
289.063586
 31
0.0
  0
LINE
  5
12a
100
AcDbEntity
  8
Calque_1
 62
1
100
AcDbLine
 10
283.560477
 20
124.817047
 30
0.0
 11
285.630008
 21
132.615525
 31
0.0
  0
LINE
  5
12b
100
AcDbEntity
  8
Calque_1
 62
1
100
AcDbLine
 10
281.045099
 20
117.150755
 30
0.0
 11
283.560477
 21
124.817047
 31
0.0
  0
LINE
  5
12c
100
AcDbEntity
  8
Calque_1
 62
1
100
AcDbLine
 10
103.790969
 20
32.238768
 30
0.0
 11
111.492705
 21
29.834131
 31
0.0
  0
LINE
  5
12d
100
AcDbEntity
  8
Calque_1
 62
1
100
AcDbLine
 10
191.067000
 20
30.980940
 30
0.0
 11
198.696240
 21
33.606529
 31
0.0
  0
LINE
  5
12e
100
AcDbEntity
  8
Calque_1
 62
1
100
AcDbLine
 10
285.630008
 20
196.601140
 30
0.0
 11
283.560477
 21
204.399618
 31
0.0
  0
LINE
  5
12f
100
AcDbEntity
  8
Calque_1
 62
1
100
AcDbLine
 10
281.045099
 20
212.065911
 30
0.0
 11
278.092229
 21
219.574538
 31
0.0
  0
LINE
  5
130
100
AcDbEntity
  8
Calque_1
 62
1
100
AcDbLine
 10
44.151847
 20
72.243929
 30
0.0
 11
49.647865
 21
66.336928
 31
0.0
  0
LINE
  5
131
100
AcDbEntity
  8
Calque_1
 62
1
100
AcDbLine
 10
240.184654
 20
271.122345
 30
0.0
 11
233.897291
 21
276.178843
 31
0.0
  0
LINE
  5
132
100
AcDbEntity
  8
Calque_1
 62
1
100
AcDbLine
 10
183.299166
 20
28.799242
 30
0.0
 11
191.067000
 21
30.980940
 31
0.0
  0
LINE
  5
133
100
AcDbEntity
  8
Calque_1
 62
1
100
AcDbLine
 10
9.414813
 20
160.574461
 30
0.0
 11
9.879659
 21
152.519125
 31
0.0
  0
LINE
  5
134
100
AcDbEntity
  8
Calque_1
 62
1
100
AcDbLine
 10
175.418540
 20
302.147964
 30
0.0
 11
167.451303
 21
303.421624
 31
0.0
  0
LINE
  5
135
100
AcDbEntity
  8
Calque_1
 62
1
100
AcDbLine
 10
34.225240
 20
84.957804
 30
0.0
 11
39.005273
 21
78.457793
 31
0.0
  0
LINE
  5
136
100
AcDbEntity
  8
Calque_1
 62
1
100
AcDbLine
 10
213.438114
 20
40.153080
 30
0.0
 11
220.501771
 21
44.052293
 31
0.0
  0
LINE
  5
137
100
AcDbEntity
  8
Calque_1
 62
1
100
AcDbLine
 10
270.914669
 20
95.196954
 30
0.0
 11
274.711675
 21
102.316089
 31
0.0
  0
LINE
  5
138
100
AcDbEntity
  8
Calque_1
 62
1
100
AcDbLine
 10
283.560477
 20
204.399618
 30
0.0
 11
281.045099
 21
212.065911
 31
0.0
  0
LINE
  5
139
100
AcDbEntity
  8
Calque_1
 62
1
100
AcDbLine
 10
289.102303
 20
156.543274
 30
0.0
 11
289.336786
 21
164.540057
 31
0.0
  0
LINE
  5
13a
100
AcDbEntity
  8
Calque_1
 62
1
100
AcDbLine
 10
198.696240
 20
33.606529
 30
0.0
 11
206.161545
 21
36.667305
 31
0.0
  0
LINE
  5
13b
100
AcDbEntity
  8
Calque_1
 62
1
100
AcDbLine
 10
55.475068
 20
60.756344
 30
0.0
 11
61.614100
 21
55.520775
 31
0.0
  0
LINE
  5
13c
100
AcDbEntity
  8
Calque_1
 62
1
100
AcDbLine
 10
274.711675
 20
226.900577
 30
0.0
 11
270.914669
 21
234.019685
 31
0.0
  0
LINE
  5
13d
100
AcDbEntity
  8
Calque_1
 62
1
100
AcDbLine
 10
191.067000
 20
298.235726
 30
0.0
 11
183.299166
 21
300.417424
 31
0.0
  0
LINE
  5
13e
100
AcDbEntity
  8
Calque_1
 62
1
100
AcDbLine
 10
119.320187
 20
27.877196
 30
0.0
 11
127.247408
 21
26.374444
 31
0.0
  0
LINE
  5
13f
100
AcDbEntity
  8
Calque_1
 62
1
100
AcDbLine
 10
111.492705
 20
29.834131
 30
0.0
 11
119.320187
 21
27.877196
 31
0.0
  0
LINE
  5
140
100
AcDbEntity
  8
Calque_1
 62
1
100
AcDbLine
 10
262.123092
 20
247.543316
 30
0.0
 11
257.157727
 21
253.902886
 31
0.0
  0
LINE
  5
141
100
AcDbEntity
  8
Calque_1
 62
1
100
AcDbLine
 10
206.161545
 20
36.667305
 30
0.0
 11
213.438114
 21
40.153080
 31
0.0
  0
LINE
  5
142
100
AcDbEntity
  8
Calque_1
 62
1
100
AcDbLine
 10
175.418540
 20
27.068710
 30
0.0
 11
183.299166
 21
28.799242
 31
0.0
  0
LINE
  5
143
100
AcDbEntity
  8
Calque_1
 62
1
100
AcDbLine
 10
144.677417
 20
172.302896
 30
0.0
 11
143.749841
 21
171.657128
 31
0.0
  0
LINE
  5
144
100
AcDbEntity
  8
Calque_1
 62
1
100
AcDbLine
 10
287.246816
 20
188.696406
 30
0.0
 11
285.630008
 21
196.601140
 31
0.0
  0
LINE
  5
145
100
AcDbEntity
  8
Calque_1
 62
1
100
AcDbLine
 10
141.547971
 20
169.102156
 30
0.0
 11
141.046234
 21
168.089385
 31
0.0
  0
LINE
  5
146
100
AcDbEntity
  8
Calque_1
 62
1
100
AcDbLine
 10
158.250233
 20
163.300645
 30
0.0
 11
158.343914
 21
164.426974
 31
0.0
  0
LINE
  5
147
100
AcDbEntity
  8
Calque_1
 62
1
100
AcDbLine
 10
147.481533
 20
155.803527
 30
0.0
 11
148.599764
 21
155.639300
 31
0.0
  0
LINE
  5
148
100
AcDbEntity
  8
Calque_1
 62
1
100
AcDbLine
 10
143.470381
 20
157.790730
 30
0.0
 11
144.371183
 21
157.108106
 31
0.0
  0
LINE
  5
149
100
AcDbEntity
  8
Calque_1
 62
1
100
AcDbLine
 10
142.910518
 20
170.900183
 30
0.0
 11
142.172683
 21
170.044019
 31
0.0
  0
LINE
  5
14a
100
AcDbEntity
  8
Calque_1
 62
1
100
AcDbLine
 10
148.961746
 20
173.600120
 30
0.0
 11
147.837802
 21
173.481084
 31
0.0
  0
LINE
  5
14b
100
AcDbEntity
  8
Calque_1
 62
1
100
AcDbLine
 10
61.614100
 20
55.520775
 30
0.0
 11
68.044567
 21
50.647553
 31
0.0
  0
LINE
  5
14c
100
AcDbEntity
  8
Calque_1
 62
1
100
AcDbLine
 10
141.046234
 20
168.089385
 30
0.0
 11
140.675387
 21
167.021740
 31
0.0
  0
LINE
  5
14d
100
AcDbEntity
  8
Calque_1
 62
1
100
AcDbLine
 10
142.662236
 20
158.580854
 30
0.0
 11
143.470381
 21
157.790730
 31
0.0
  0
LINE
  5
14e
100
AcDbEntity
  8
Calque_1
 62
1
100
AcDbLine
 10
167.451303
 20
303.421624
 30
0.0
 11
159.423924
 21
304.234158
 31
0.0
  0
LINE
  5
14f
100
AcDbEntity
  8
Calque_1
 62
1
100
AcDbLine
 10
158.016122
 20
162.194926
 30
0.0
 11
158.250233
 21
163.300645
 31
0.0
  0
LINE
  5
150
100
AcDbEntity
  8
Calque_1
 62
1
100
AcDbLine
 10
156.518826
 20
159.172621
 30
0.0
 11
157.143538
 21
160.114510
 31
0.0
  0
LINE
  5
151
100
AcDbEntity
  8
Calque_1
 62
1
100
AcDbLine
 10
145.350436
 20
156.543777
 30
0.0
 11
146.392698
 21
156.106606
 31
0.0
  0
LINE
  5
152
100
AcDbEntity
  8
Calque_1
 62
1
100
AcDbLine
 10
142.172683
 20
170.044019
 30
0.0
 11
141.547971
 21
169.102156
 31
0.0
  0
LINE
  5
153
100
AcDbEntity
  8
Calque_1
 62
1
100
AcDbLine
 10
68.044567
 20
50.647553
 30
0.0
 11
74.745111
 21
46.152923
 31
0.0
  0
LINE
  5
154
100
AcDbEntity
  8
Calque_1
 62
1
100
AcDbLine
 10
288.405531
 20
180.711635
 30
0.0
 11
287.246816
 21
188.696406
 31
0.0
  0
LINE
  5
155
100
AcDbEntity
  8
Calque_1
 62
1
100
AcDbLine
 10
270.914669
 20
234.019685
 30
0.0
 11
266.713823
 21
240.908236
 31
0.0
  0
LINE
  5
156
100
AcDbEntity
  8
Calque_1
 62
1
100
AcDbLine
 10
157.143538
 20
160.114510
 30
0.0
 11
157.645275
 21
161.127280
 31
0.0
  0
LINE
  5
157
100
AcDbEntity
  8
Calque_1
 62
1
100
AcDbLine
 10
153.341073
 20
172.672889
 30
0.0
 11
152.298812
 21
173.110059
 31
0.0
  0
LINE
  5
158
100
AcDbEntity
  8
Calque_1
 62
1
100
AcDbLine
 10
143.749841
 20
171.657128
 30
0.0
 11
142.910518
 21
170.900183
 31
0.0
  0
LINE
  5
159
100
AcDbEntity
  8
Calque_1
 62
1
100
AcDbLine
 10
155.221128
 20
171.425936
 30
0.0
 11
154.320327
 21
172.108560
 31
0.0
  0
LINE
  5
15a
100
AcDbEntity
  8
Calque_1
 62
1
100
AcDbLine
 10
151.209979
 20
173.413139
 30
0.0
 11
150.091743
 21
173.577339
 31
0.0
  0
LINE
  5
15b
100
AcDbEntity
  8
Calque_1
 62
1
100
AcDbLine
 10
156.029273
 20
170.635811
 30
0.0
 11
155.221128
 21
171.425936
 31
0.0
  0
LINE
  5
15c
100
AcDbEntity
  8
Calque_1
 62
1
100
AcDbLine
 10
154.014093
 20
156.913770
 30
0.0
 11
154.941668
 21
157.559537
 31
0.0
  0
LINE
  5
15d
100
AcDbEntity
  8
Calque_1
 62
1
100
AcDbLine
 10
146.737642
 20
173.222137
 30
0.0
 11
145.678612
 21
172.827326
 31
0.0
  0
LINE
  5
15e
100
AcDbEntity
  8
Calque_1
 62
1
100
AcDbLine
 10
145.678612
 20
172.827326
 30
0.0
 11
144.677417
 21
172.302896
 31
0.0
  0
LINE
  5
15f
100
AcDbEntity
  8
Calque_1
 62
1
100
AcDbLine
 10
233.897291
 20
276.178843
 30
0.0
 11
227.329058
 21
280.864714
 31
0.0
  0
LINE
  5
160
100
AcDbEntity
  8
Calque_1
 62
1
100
AcDbLine
 10
154.320327
 20
172.108560
 30
0.0
 11
153.341073
 21
172.672889
 31
0.0
  0
LINE
  5
161
100
AcDbEntity
  8
Calque_1
 62
1
100
AcDbLine
 10
140.347595
 20
164.789691
 30
0.0
 11
140.395818
 21
163.660477
 31
0.0
  0
LINE
  5
162
100
AcDbEntity
  8
Calque_1
 62
1
100
AcDbLine
 10
151.363064
 20
304.582871
 30
0.0
 11
9.389572
 21
304.581019
 31
0.0
  0
LINE
  5
163
100
AcDbEntity
  8
Calque_1
 62
1
100
AcDbLine
 10
220.501771
 20
44.052293
 30
0.0
 11
227.329058
 21
48.351952
 31
0.0
  0
LINE
  5
164
100
AcDbEntity
  8
Calque_1
 62
1
100
AcDbLine
 10
25.827037
 20
98.729163
 30
0.0
 11
29.827625
 21
91.722424
 31
0.0
  0
LINE
  5
165
100
AcDbEntity
  8
Calque_1
 62
1
100
AcDbLine
 10
183.299166
 20
300.417424
 30
0.0
 11
175.418540
 21
302.147964
 31
0.0
  0
LINE
  5
166
100
AcDbEntity
  8
Calque_1
 62
1
100
AcDbLine
 10
154.941668
 20
157.559537
 30
0.0
 11
155.780991
 21
158.316457
 31
0.0
  0
LINE
  5
167
100
AcDbEntity
  8
Calque_1
 62
1
100
AcDbLine
 10
152.298812
 20
173.110059
 30
0.0
 11
151.209979
 21
173.413139
 31
0.0
  0
LINE
  5
168
100
AcDbEntity
  8
Calque_1
 62
1
100
AcDbLine
 10
141.959496
 20
159.466070
 30
0.0
 11
142.662236
 21
158.580854
 31
0.0
  0
LINE
  5
169
100
AcDbEntity
  8
Calque_1
 62
1
100
AcDbLine
 10
151.953867
 20
155.994529
 30
0.0
 11
153.012898
 21
156.389340
 31
0.0
  0
LINE
  5
16a
100
AcDbEntity
  8
Calque_1
 62
1
100
AcDbLine
 10
150.853707
 20
155.735582
 30
0.0
 11
151.953867
 21
155.994529
 31
0.0
  0
LINE
  5
16b
100
AcDbEntity
  8
Calque_1
 62
1
100
AcDbLine
 10
155.780991
 20
158.316457
 30
0.0
 11
156.518826
 21
159.172621
 31
0.0
  0
LINE
  5
16c
100
AcDbEntity
  8
Calque_1
 62
1
100
AcDbLine
 10
158.343914
 20
164.426974
 30
0.0
 11
158.295691
 21
165.556188
 31
0.0
  0
LINE
  5
16d
100
AcDbEntity
  8
Calque_1
 62
1
100
AcDbLine
 10
29.827625
 20
91.722424
 30
0.0
 11
34.225240
 21
84.957804
 31
0.0
  0
LINE
  5
16e
100
AcDbEntity
  8
Calque_1
 62
1
100
AcDbLine
 10
96.240561
 20
35.083114
 30
0.0
 11
103.790969
 21
32.238768
 31
0.0
  0
LINE
  5
16f
100
AcDbEntity
  8
Calque_1
 62
1
100
AcDbLine
 10
49.647865
 20
66.336928
 30
0.0
 11
55.475068
 21
60.756344
 31
0.0
  0
LINE
  5
170
100
AcDbEntity
  8
Calque_1
 62
1
100
AcDbLine
 10
167.451303
 20
25.795034
 30
0.0
 11
175.418540
 21
27.068710
 31
0.0
  0
LINE
  5
171
100
AcDbEntity
  8
Calque_1
 62
1
100
AcDbLine
 10
274.711675
 20
102.316089
 30
0.0
 11
278.092229
 21
109.642127
 31
0.0
  0
LINE
  5
172
100
AcDbEntity
  8
Calque_1
 62
1
100
AcDbLine
 10
289.102303
 20
172.673392
 30
0.0
 11
288.405531
 21
180.711635
 31
0.0
  0
LINE
  5
173
100
AcDbEntity
  8
Calque_1
 62
1
100
AcDbLine
 10
153.012898
 20
156.389340
 30
0.0
 11
154.014093
 21
156.913770
 31
0.0
  0
LINE
  5
174
100
AcDbEntity
  8
Calque_1
 62
1
100
AcDbLine
 10
149.729764
 20
155.616546
 30
0.0
 11
150.853707
 21
155.735582
 31
0.0
  0
LINE
  5
175
100
AcDbEntity
  8
Calque_1
 62
1
100
AcDbLine
 10
148.599764
 20
155.639300
 30
0.0
 11
149.729764
 21
155.616546
 31
0.0
  0
LINE
  5
176
100
AcDbEntity
  8
Calque_1
 62
1
100
AcDbLine
 10
146.392698
 20
156.106606
 30
0.0
 11
147.481533
 21
155.803527
 31
0.0
  0
LINE
  5
177
100
AcDbEntity
  8
Calque_1
 62
1
100
AcDbLine
 10
144.371183
 20
157.108106
 30
0.0
 11
145.350436
 21
156.543777
 31
0.0
  0
LINE
  5
178
100
AcDbEntity
  8
Calque_1
 62
1
100
AcDbLine
 10
141.373241
 20
160.432353
 30
0.0
 11
141.959496
 21
159.466070
 31
0.0
  0
LINE
  5
179
100
AcDbEntity
  8
Calque_1
 62
1
100
AcDbLine
 10
140.912718
 20
161.464491
 30
0.0
 11
141.373241
 21
160.432353
 31
0.0
  0
LINE
  5
17a
100
AcDbEntity
  8
Calque_1
 62
1
100
AcDbLine
 10
140.585188
 20
162.546239
 30
0.0
 11
140.912718
 21
161.464491
 31
0.0
  0
LINE
  5
17b
100
AcDbEntity
  8
Calque_1
 62
1
100
AcDbLine
 10
140.395818
 20
163.660477
 30
0.0
 11
140.585188
 21
162.546239
 31
0.0
  0
LINE
  5
17c
100
AcDbEntity
  8
Calque_1
 62
1
100
AcDbLine
 10
140.441276
 20
165.916021
 30
0.0
 11
140.347595
 21
164.789691
 31
0.0
  0
LINE
  5
17d
100
AcDbEntity
  8
Calque_1
 62
1
100
AcDbLine
 10
140.675387
 20
167.021740
 30
0.0
 11
140.441276
 21
165.916021
 31
0.0
  0
LINE
  5
17e
100
AcDbEntity
  8
Calque_1
 62
1
100
AcDbLine
 10
147.837802
 20
173.481084
 30
0.0
 11
146.737642
 21
173.222137
 31
0.0
  0
LINE
  5
17f
100
AcDbEntity
  8
Calque_1
 62
1
100
AcDbLine
 10
150.091743
 20
173.577339
 30
0.0
 11
148.961746
 21
173.600093
 31
0.0
  0
LINE
  5
180
100
AcDbEntity
  8
Calque_1
 62
1
100
AcDbLine
 10
156.732014
 20
169.750596
 30
0.0
 11
156.029273
 21
170.635811
 31
0.0
  0
LINE
  5
181
100
AcDbEntity
  8
Calque_1
 62
1
100
AcDbLine
 10
157.318269
 20
168.784312
 30
0.0
 11
156.732014
 21
169.750596
 31
0.0
  0
LINE
  5
182
100
AcDbEntity
  8
Calque_1
 62
1
100
AcDbLine
 10
157.778791
 20
167.752174
 30
0.0
 11
157.318269
 21
168.784312
 31
0.0
  0
LINE
  5
183
100
AcDbEntity
  8
Calque_1
 62
1
100
AcDbLine
 10
158.106321
 20
166.670427
 30
0.0
 11
157.778791
 21
167.752174
 31
0.0
  0
LINE
  5
184
100
AcDbEntity
  8
Calque_1
 62
1
100
AcDbLine
 10
158.295691
 20
165.556188
 30
0.0
 11
158.106321
 21
166.670427
 31
0.0
  0
LINE
  5
185
100
AcDbEntity
  8
Calque_1
 62
1
100
AcDbLine
 10
148.933983
 20
187.819763
 30
0.0
 11
148.548070
 21
187.659981
 31
0.0
  0
LINE
  5
186
100
AcDbEntity
  8
Calque_1
 62
1
100
AcDbLine
 10
149.348100
 20
187.874241
 30
0.0
 11
148.933983
 21
187.819763
 31
0.0
  0
LINE
  5
187
100
AcDbEntity
  8
Calque_1
 62
1
100
AcDbLine
 10
149.762202
 20
187.819657
 30
0.0
 11
149.348100
 21
187.874241
 31
0.0
  0
LINE
  5
188
100
AcDbEntity
  8
Calque_1
 62
1
100
AcDbLine
 10
150.148067
 20
187.659743
 30
0.0
 11
149.762202
 21
187.819657
 31
0.0
  0
LINE
  5
189
100
AcDbEntity
  8
Calque_1
 62
1
100
AcDbLine
 10
150.479399
 20
187.405426
 30
0.0
 11
150.148067
 21
187.659743
 31
0.0
  0
LINE
  5
18a
100
AcDbEntity
  8
Calque_1
 62
1
100
AcDbLine
 10
150.733618
 20
187.074036
 30
0.0
 11
150.479399
 21
187.405426
 31
0.0
  0
LINE
  5
18b
100
AcDbEntity
  8
Calque_1
 62
1
100
AcDbLine
 10
150.893403
 20
186.688115
 30
0.0
 11
150.733618
 21
187.074036
 31
0.0
  0
LINE
  5
18c
100
AcDbEntity
  8
Calque_1
 62
1
100
AcDbLine
 10
150.947859
 20
186.273990
 30
0.0
 11
150.893403
 21
186.688115
 31
0.0
  0
LINE
  5
18d
100
AcDbEntity
  8
Calque_1
 62
1
100
AcDbLine
 10
150.893278
 20
185.859891
 30
0.0
 11
150.947859
 21
186.273990
 31
0.0
  0
LINE
  5
18e
100
AcDbEntity
  8
Calque_1
 62
1
100
AcDbLine
 10
150.733377
 20
185.474023
 30
0.0
 11
150.893278
 21
185.859891
 31
0.0
  0
LINE
  5
18f
100
AcDbEntity
  8
Calque_1
 62
1
100
AcDbLine
 10
150.479060
 20
185.142686
 30
0.0
 11
150.733377
 21
185.474023
 31
0.0
  0
LINE
  5
190
100
AcDbEntity
  8
Calque_1
 62
1
100
AcDbLine
 10
150.147652
 20
184.888474
 30
0.0
 11
150.479060
 21
185.142686
 31
0.0
  0
LINE
  5
191
100
AcDbEntity
  8
Calque_1
 62
1
100
AcDbLine
 10
149.761739
 20
184.728693
 30
0.0
 11
150.147652
 21
184.888474
 31
0.0
  0
LINE
  5
192
100
AcDbEntity
  8
Calque_1
 62
1
100
AcDbLine
 10
149.347619
 20
184.674241
 30
0.0
 11
149.761739
 21
184.728693
 31
0.0
  0
LINE
  5
193
100
AcDbEntity
  8
Calque_1
 62
1
100
AcDbLine
 10
148.933517
 20
184.728825
 30
0.0
 11
149.347619
 21
184.674241
 31
0.0
  0
LINE
  5
194
100
AcDbEntity
  8
Calque_1
 62
1
100
AcDbLine
 10
148.547652
 20
184.888712
 30
0.0
 11
148.933517
 21
184.728825
 31
0.0
  0
LINE
  5
195
100
AcDbEntity
  8
Calque_1
 62
1
100
AcDbLine
 10
148.216320
 20
185.143030
 30
0.0
 11
148.547652
 21
184.888712
 31
0.0
  0
LINE
  5
196
100
AcDbEntity
  8
Calque_1
 62
1
100
AcDbLine
 10
147.962101
 20
185.474446
 30
0.0
 11
148.216320
 21
185.143030
 31
0.0
  0
LINE
  5
197
100
AcDbEntity
  8
Calque_1
 62
1
100
AcDbLine
 10
147.802319
 20
185.860367
 30
0.0
 11
147.962101
 21
185.474446
 31
0.0
  0
LINE
  5
198
100
AcDbEntity
  8
Calque_1
 62
1
100
AcDbLine
 10
147.747863
 20
186.274466
 30
0.0
 11
147.802319
 21
185.860367
 31
0.0
  0
LINE
  5
199
100
AcDbEntity
  8
Calque_1
 62
1
100
AcDbLine
 10
147.802443
 20
186.688565
 30
0.0
 11
147.747863
 21
186.274466
 31
0.0
  0
LINE
  5
19a
100
AcDbEntity
  8
Calque_1
 62
1
100
AcDbLine
 10
147.962341
 20
187.074433
 30
0.0
 11
147.802443
 21
186.688565
 31
0.0
  0
LINE
  5
19b
100
AcDbEntity
  8
Calque_1
 62
1
100
AcDbLine
 10
148.216661
 20
187.405770
 30
0.0
 11
147.962341
 21
187.074433
 31
0.0
  0
LINE
  5
19c
100
AcDbEntity
  8
Calque_1
 62
1
100
AcDbLine
 10
148.548070
 20
187.659981
 30
0.0
 11
148.216661
 21
187.405770
 31
0.0
  0
LINE
  5
19d
100
AcDbEntity
  8
Calque_1
 62
1
100
AcDbLine
 10
170.218368
 20
165.994761
 30
0.0
 11
169.886792
 21
165.740523
 31
0.0
  0
LINE
  5
19e
100
AcDbEntity
  8
Calque_1
 62
1
100
AcDbLine
 10
170.604447
 20
166.154543
 30
0.0
 11
170.218368
 21
165.994761
 31
0.0
  0
LINE
  5
19f
100
AcDbEntity
  8
Calque_1
 62
1
100
AcDbLine
 10
171.018723
 20
166.208941
 30
0.0
 11
170.604447
 21
166.154543
 31
0.0
  0
LINE
  5
1a0
100
AcDbEntity
  8
Calque_1
 62
1
100
AcDbLine
 10
171.432960
 20
166.154252
 30
0.0
 11
171.018723
 21
166.208941
 31
0.0
  0
LINE
  5
1a1
100
AcDbEntity
  8
Calque_1
 62
1
100
AcDbLine
 10
171.818931
 20
165.994232
 30
0.0
 11
171.432960
 21
166.154252
 31
0.0
  0
LINE
  5
1a2
100
AcDbEntity
  8
Calque_1
 62
1
100
AcDbLine
 10
172.150331
 20
165.739756
 30
0.0
 11
171.818931
 21
165.994232
 31
0.0
  0
LINE
  5
1a3
100
AcDbEntity
  8
Calque_1
 62
1
100
AcDbLine
 10
172.404577
 20
165.408180
 30
0.0
 11
172.150331
 21
165.739756
 31
0.0
  0
LINE
  5
1a4
100
AcDbEntity
  8
Calque_1
 62
1
100
AcDbLine
 10
172.564343
 20
165.022101
 30
0.0
 11
172.404577
 21
165.408180
 31
0.0
  0
LINE
  5
1a5
100
AcDbEntity
  8
Calque_1
 62
1
100
AcDbLine
 10
172.618739
 20
164.607817
 30
0.0
 11
172.564343
 21
165.022101
 31
0.0
  0
LINE
  5
1a6
100
AcDbEntity
  8
Calque_1
 62
1
100
AcDbLine
 10
172.564060
 20
164.193586
 30
0.0
 11
172.618739
 21
164.607817
 31
0.0
  0
LINE
  5
1a7
100
AcDbEntity
  8
Calque_1
 62
1
100
AcDbLine
 10
172.404030
 20
163.807612
 30
0.0
 11
172.564060
 21
164.193586
 31
0.0
  0
LINE
  5
1a8
100
AcDbEntity
  8
Calque_1
 62
1
100
AcDbLine
 10
172.149556
 20
163.476195
 30
0.0
 11
172.404030
 21
163.807612
 31
0.0
  0
LINE
  5
1a9
100
AcDbEntity
  8
Calque_1
 62
1
100
AcDbLine
 10
171.817983
 20
163.221958
 30
0.0
 11
172.149556
 21
163.476195
 31
0.0
  0
LINE
  5
1aa
100
AcDbEntity
  8
Calque_1
 62
1
100
AcDbLine
 10
171.431904
 20
163.062202
 30
0.0
 11
171.817983
 21
163.221958
 31
0.0
  0
LINE
  5
1ab
100
AcDbEntity
  8
Calque_1
 62
1
100
AcDbLine
 10
171.017628
 20
163.007804
 30
0.0
 11
171.431904
 21
163.062202
 31
0.0
  0
LINE
  5
1ac
100
AcDbEntity
  8
Calque_1
 62
1
100
AcDbLine
 10
170.603389
 20
163.062493
 30
0.0
 11
171.017628
 21
163.007804
 31
0.0
  0
LINE
  5
1ad
100
AcDbEntity
  8
Calque_1
 62
1
100
AcDbLine
 10
170.217420
 20
163.222513
 30
0.0
 11
170.603389
 21
163.062493
 31
0.0
  0
LINE
  5
1ae
100
AcDbEntity
  8
Calque_1
 62
1
100
AcDbLine
 10
169.886020
 20
163.476989
 30
0.0
 11
170.217420
 21
163.222513
 31
0.0
  0
LINE
  5
1af
100
AcDbEntity
  8
Calque_1
 62
1
100
AcDbLine
 10
169.631774
 20
163.808565
 30
0.0
 11
169.886020
 21
163.476989
 31
0.0
  0
LINE
  5
1b0
100
AcDbEntity
  8
Calque_1
 62
1
100
AcDbLine
 10
169.472008
 20
164.194644
 30
0.0
 11
169.631774
 21
163.808565
 31
0.0
  0
LINE
  5
1b1
100
AcDbEntity
  8
Calque_1
 62
1
100
AcDbLine
 10
169.417612
 20
164.608902
 30
0.0
 11
169.472008
 21
164.194644
 31
0.0
  0
LINE
  5
1b2
100
AcDbEntity
  8
Calque_1
 62
1
100
AcDbLine
 10
169.472291
 20
165.023159
 30
0.0
 11
169.417612
 21
164.608902
 31
0.0
  0
LINE
  5
1b3
100
AcDbEntity
  8
Calque_1
 62
1
100
AcDbLine
 10
169.632322
 20
165.409133
 30
0.0
 11
169.472291
 21
165.023159
 31
0.0
  0
LINE
  5
1b4
100
AcDbEntity
  8
Calque_1
 62
1
100
AcDbLine
 10
169.886792
 20
165.740523
 30
0.0
 11
169.632322
 21
165.409133
 31
0.0
  0
LINE
  5
1b5
100
AcDbEntity
  8
Calque_1
 62
1
100
AcDbLine
 10
126.134448
 20
165.022418
 30
0.0
 11
126.079928
 21
164.608320
 31
0.0
  0
LINE
  5
1b6
100
AcDbEntity
  8
Calque_1
 62
1
100
AcDbLine
 10
126.294288
 20
165.408313
 30
0.0
 11
126.134448
 21
165.022418
 31
0.0
  0
LINE
  5
1b7
100
AcDbEntity
  8
Calque_1
 62
1
100
AcDbLine
 10
126.548557
 20
165.739677
 30
0.0
 11
126.294288
 21
165.408313
 31
0.0
  0
LINE
  5
1b8
100
AcDbEntity
  8
Calque_1
 62
1
100
AcDbLine
 10
126.879926
 20
165.993941
 30
0.0
 11
126.548557
 21
165.739677
 31
0.0
  0
LINE
  5
1b9
100
AcDbEntity
  8
Calque_1
 62
1
100
AcDbLine
 10
127.265815
 20
166.153802
 30
0.0
 11
126.879926
 21
165.993941
 31
0.0
  0
LINE
  5
1ba
100
AcDbEntity
  8
Calque_1
 62
1
100
AcDbLine
 10
127.679925
 20
166.208306
 30
0.0
 11
127.265815
 21
166.153802
 31
0.0
  0
LINE
  5
1bb
100
AcDbEntity
  8
Calque_1
 62
1
100
AcDbLine
 10
128.094034
 20
166.153802
 30
0.0
 11
127.679925
 21
166.208306
 31
0.0
  0
LINE
  5
1bc
100
AcDbEntity
  8
Calque_1
 62
1
100
AcDbLine
 10
128.479923
 20
165.993941
 30
0.0
 11
128.094034
 21
166.153802
 31
0.0
  0
LINE
  5
1bd
100
AcDbEntity
  8
Calque_1
 62
1
100
AcDbLine
 10
128.811295
 20
165.739677
 30
0.0
 11
128.479923
 21
165.993941
 31
0.0
  0
LINE
  5
1be
100
AcDbEntity
  8
Calque_1
 62
1
100
AcDbLine
 10
129.065564
 20
165.408313
 30
0.0
 11
128.811295
 21
165.739677
 31
0.0
  0
LINE
  5
1bf
100
AcDbEntity
  8
Calque_1
 62
1
100
AcDbLine
 10
129.225404
 20
165.022418
 30
0.0
 11
129.065564
 21
165.408313
 31
0.0
  0
LINE
  5
1c0
100
AcDbEntity
  8
Calque_1
 62
1
100
AcDbLine
 10
129.279924
 20
164.608320
 30
0.0
 11
129.225404
 21
165.022418
 31
0.0
  0
LINE
  5
1c1
100
AcDbEntity
  8
Calque_1
 62
1
100
AcDbLine
 10
129.225407
 20
164.194194
 30
0.0
 11
129.279924
 21
164.608320
 31
0.0
  0
LINE
  5
1c2
100
AcDbEntity
  8
Calque_1
 62
1
100
AcDbLine
 10
129.065564
 20
163.808326
 30
0.0
 11
129.225407
 21
164.194194
 31
0.0
  0
LINE
  5
1c3
100
AcDbEntity
  8
Calque_1
 62
1
100
AcDbLine
 10
128.811297
 20
163.476936
 30
0.0
 11
129.065564
 21
163.808326
 31
0.0
  0
LINE
  5
1c4
100
AcDbEntity
  8
Calque_1
 62
1
100
AcDbLine
 10
128.479926
 20
163.222672
 30
0.0
 11
128.811297
 21
163.476936
 31
0.0
  0
LINE
  5
1c5
100
AcDbEntity
  8
Calque_1
 62
1
100
AcDbLine
 10
128.094037
 20
163.062837
 30
0.0
 11
128.479926
 21
163.222672
 31
0.0
  0
LINE
  5
1c6
100
AcDbEntity
  8
Calque_1
 62
1
100
AcDbLine
 10
127.679927
 20
163.008307
 30
0.0
 11
128.094037
 21
163.062837
 31
0.0
  0
LINE
  5
1c7
100
AcDbEntity
  8
Calque_1
 62
1
100
AcDbLine
 10
127.265818
 20
163.062837
 30
0.0
 11
127.679927
 21
163.008307
 31
0.0
  0
LINE
  5
1c8
100
AcDbEntity
  8
Calque_1
 62
1
100
AcDbLine
 10
126.879929
 20
163.222672
 30
0.0
 11
127.265818
 21
163.062837
 31
0.0
  0
LINE
  5
1c9
100
AcDbEntity
  8
Calque_1
 62
1
100
AcDbLine
 10
126.548557
 20
163.476936
 30
0.0
 11
126.879929
 21
163.222672
 31
0.0
  0
LINE
  5
1ca
100
AcDbEntity
  8
Calque_1
 62
1
100
AcDbLine
 10
126.294288
 20
163.808326
 30
0.0
 11
126.548557
 21
163.476936
 31
0.0
  0
LINE
  5
1cb
100
AcDbEntity
  8
Calque_1
 62
1
100
AcDbLine
 10
126.134448
 20
164.194194
 30
0.0
 11
126.294288
 21
163.808326
 31
0.0
  0
LINE
  5
1cc
100
AcDbEntity
  8
Calque_1
 62
1
100
AcDbLine
 10
126.079928
 20
164.608320
 30
0.0
 11
126.134448
 21
164.194194
 31
0.0
  0
LINE
  5
1cd
100
AcDbEntity
  8
Calque_1
 62
1
100
AcDbLine
 10
150.891262
 20
142.517438
 30
0.0
 11
150.945779
 21
142.931564
 31
0.0
  0
LINE
  5
1ce
100
AcDbEntity
  8
Calque_1
 62
1
100
AcDbLine
 10
150.731422
 20
142.131544
 30
0.0
 11
150.891262
 21
142.517438
 31
0.0
  0
LINE
  5
1cf
100
AcDbEntity
  8
Calque_1
 62
1
100
AcDbLine
 10
150.477153
 20
141.800180
 30
0.0
 11
150.731422
 21
142.131544
 31
0.0
  0
LINE
  5
1d0
100
AcDbEntity
  8
Calque_1
 62
1
100
AcDbLine
 10
150.145784
 20
141.545916
 30
0.0
 11
150.477153
 21
141.800180
 31
0.0
  0
LINE
  5
1d1
100
AcDbEntity
  8
Calque_1
 62
1
100
AcDbLine
 10
149.759895
 20
141.386081
 30
0.0
 11
150.145784
 21
141.545916
 31
0.0
  0
LINE
  5
1d2
100
AcDbEntity
  8
Calque_1
 62
1
100
AcDbLine
 10
149.345785
 20
141.331551
 30
0.0
 11
149.759895
 21
141.386081
 31
0.0
  0
LINE
  5
1d3
100
AcDbEntity
  8
Calque_1
 62
1
100
AcDbLine
 10
148.931673
 20
141.386081
 30
0.0
 11
149.345785
 21
141.331551
 31
0.0
  0
LINE
  5
1d4
100
AcDbEntity
  8
Calque_1
 62
1
100
AcDbLine
 10
148.545784
 20
141.545916
 30
0.0
 11
148.931673
 21
141.386081
 31
0.0
  0
LINE
  5
1d5
100
AcDbEntity
  8
Calque_1
 62
1
100
AcDbLine
 10
148.214415
 20
141.800180
 30
0.0
 11
148.545784
 21
141.545916
 31
0.0
  0
LINE
  5
1d6
100
AcDbEntity
  8
Calque_1
 62
1
100
AcDbLine
 10
147.960145
 20
142.131544
 30
0.0
 11
148.214415
 21
141.800180
 31
0.0
  0
LINE
  5
1d7
100
AcDbEntity
  8
Calque_1
 62
1
100
AcDbLine
 10
147.800303
 20
142.517438
 30
0.0
 11
147.960145
 21
142.131544
 31
0.0
  0
LINE
  5
1d8
100
AcDbEntity
  8
Calque_1
 62
1
100
AcDbLine
 10
147.745786
 20
142.931537
 30
0.0
 11
147.800303
 21
142.517438
 31
0.0
  0
LINE
  5
1d9
100
AcDbEntity
  8
Calque_1
 62
1
100
AcDbLine
 10
147.800303
 20
143.345662
 30
0.0
 11
147.745786
 21
142.931537
 31
0.0
  0
LINE
  5
1da
100
AcDbEntity
  8
Calque_1
 62
1
100
AcDbLine
 10
147.960143
 20
143.731557
 30
0.0
 11
147.800303
 21
143.345662
 31
0.0
  0
LINE
  5
1db
100
AcDbEntity
  8
Calque_1
 62
1
100
AcDbLine
 10
148.214412
 20
144.062921
 30
0.0
 11
147.960143
 21
143.731557
 31
0.0
  0
LINE
  5
1dc
100
AcDbEntity
  8
Calque_1
 62
1
100
AcDbLine
 10
148.545781
 20
144.317185
 30
0.0
 11
148.214412
 21
144.062921
 31
0.0
  0
LINE
  5
1dd
100
AcDbEntity
  8
Calque_1
 62
1
100
AcDbLine
 10
148.931670
 20
144.477019
 30
0.0
 11
148.545781
 21
144.317185
 31
0.0
  0
LINE
  5
1de
100
AcDbEntity
  8
Calque_1
 62
1
100
AcDbLine
 10
149.345780
 20
144.531550
 30
0.0
 11
148.931670
 21
144.477019
 31
0.0
  0
LINE
  5
1df
100
AcDbEntity
  8
Calque_1
 62
1
100
AcDbLine
 10
149.759892
 20
144.477019
 30
0.0
 11
149.345780
 21
144.531550
 31
0.0
  0
LINE
  5
1e0
100
AcDbEntity
  8
Calque_1
 62
1
100
AcDbLine
 10
150.145781
 20
144.317185
 30
0.0
 11
149.759892
 21
144.477019
 31
0.0
  0
LINE
  5
1e1
100
AcDbEntity
  8
Calque_1
 62
1
100
AcDbLine
 10
150.477150
 20
144.062921
 30
0.0
 11
150.145781
 21
144.317185
 31
0.0
  0
LINE
  5
1e2
100
AcDbEntity
  8
Calque_1
 62
1
100
AcDbLine
 10
150.731420
 20
143.731557
 30
0.0
 11
150.477150
 21
144.062921
 31
0.0
  0
LINE
  5
1e3
100
AcDbEntity
  8
Calque_1
 62
1
100
AcDbLine
 10
150.891262
 20
143.345662
 30
0.0
 11
150.731420
 21
143.731557
 31
0.0
  0
LINE
  5
1e4
100
AcDbEntity
  8
Calque_1
 62
1
100
AcDbLine
 10
150.945779
 20
142.931564
 30
0.0
 11
150.891262
 21
143.345662
 31
0.0
  0
LINE
  5
1e5
100
AcDbEntity
  8
Calque_1
 62
1
100
AcDbLine
 10
150.664868
 20
438.115367
 30
0.0
 11
149.809783
 21
437.376286
 31
0.0
  0
LINE
  5
1e6
100
AcDbEntity
  8
Calque_1
 62
1
100
AcDbLine
 10
138.917494
 20
451.706575
 30
0.0
 11
139.858467
 21
452.332660
 31
0.0
  0
LINE
  5
1e7
100
AcDbEntity
  8
Calque_1
 62
1
100
AcDbLine
 10
135.866227
 20
441.575990
 30
0.0
 11
135.561565
 21
442.664382
 31
0.0
  0
LINE
  5
1e8
100
AcDbEntity
  8
Calque_1
 62
1
100
AcDbLine
 10
135.395714
 20
443.782375
 30
0.0
 11
135.371293
 21
444.912340
 31
0.0
  0
LINE
  5
1e9
100
AcDbEntity
  8
Calque_1
 62
1
100
AcDbLine
 10
150.381362
 20
451.233722
 30
0.0
 11
151.172677
 21
450.426731
 31
0.0
  0
LINE
  5
1ea
100
AcDbEntity
  8
Calque_1
 62
1
100
AcDbLine
 10
135.371296
 20
444.912340
 30
0.0
 11
135.488689
 21
446.036452
 31
0.0
  0
LINE
  5
1eb
100
AcDbEntity
  8
Calque_1
 62
1
100
AcDbLine
 10
144.558094
 20
435.543543
 30
0.0
 11
143.428827
 21
435.590120
 31
0.0
  0
LINE
  5
1ec
100
AcDbEntity
  8
Calque_1
 62
1
100
AcDbLine
 10
136.304901
 20
440.534367
 30
0.0
 11
135.866227
 21
441.575990
 31
0.0
  0
LINE
  5
1ed
100
AcDbEntity
  8
Calque_1
 62
1
100
AcDbLine
 10
152.861047
 20
447.506870
 30
0.0
 11
153.165712
 21
446.418479
 31
0.0
  0
LINE
  5
1ee
100
AcDbEntity
  8
Calque_1
 62
1
100
AcDbLine
 10
147.495179
 20
452.979039
 30
0.0
 11
148.528000
 21
452.520019
 31
0.0
  0
LINE
  5
1ef
100
AcDbEntity
  8
Calque_1
 62
1
100
AcDbLine
 10
151.420580
 20
438.955793
 30
0.0
 11
150.664868
 21
438.115367
 31
0.0
  0
LINE
  5
1f0
100
AcDbEntity
  8
Calque_1
 62
1
100
AcDbLine
 10
152.065001
 20
439.884305
 30
0.0
 11
151.420580
 21
438.955793
 31
0.0
  0
LINE
  5
1f1
100
AcDbEntity
  8
Calque_1
 62
1
100
AcDbLine
 10
135.561565
 20
442.664382
 30
0.0
 11
135.395714
 21
443.782375
 31
0.0
  0
LINE
  5
1f2
100
AcDbEntity
  8
Calque_1
 62
1
100
AcDbLine
 10
140.870492
 20
452.835870
 30
0.0
 11
141.937605
 21
453.208274
 31
0.0
  0
LINE
  5
1f3
100
AcDbEntity
  8
Calque_1
 62
1
100
AcDbLine
 10
151.172677
 20
450.426731
 30
0.0
 11
151.856610
 21
449.526924
 31
0.0
  0
LINE
  5
1f4
100
AcDbEntity
  8
Calque_1
 62
1
100
AcDbLine
 10
152.587965
 20
440.886265
 30
0.0
 11
152.065001
 21
439.884305
 31
0.0
  0
LINE
  5
1f5
100
AcDbEntity
  8
Calque_1
 62
1
100
AcDbLine
 10
149.495144
 20
451.935172
 30
0.0
 11
150.381362
 21
451.233722
 31
0.0
  0
LINE
  5
1f6
100
AcDbEntity
  8
Calque_1
 62
1
100
AcDbLine
 10
137.554598
 20
438.656129
 30
0.0
 11
136.870664
 21
439.555936
 31
0.0
  0
LINE
  5
1f7
100
AcDbEntity
  8
Calque_1
 62
1
100
AcDbLine
 10
153.355981
 20
444.170520
 30
0.0
 11
153.238586
 21
443.046408
 31
0.0
  0
LINE
  5
1f8
100
AcDbEntity
  8
Calque_1
 62
1
100
AcDbLine
 10
135.746048
 20
447.136991
 30
0.0
 11
136.139309
 21
448.196595
 31
0.0
  0
LINE
  5
1f9
100
AcDbEntity
  8
Calque_1
 62
1
100
AcDbLine
 10
136.870664
 20
439.555936
 30
0.0
 11
136.304901
 21
440.534367
 31
0.0
  0
LINE
  5
1fa
100
AcDbEntity
  8
Calque_1
 62
1
100
AcDbLine
 10
276.209123
 20
415.588728
 30
0.0
 11
277.658157
 21
423.232697
 31
0.0
  0
LINE
  5
1fb
100
AcDbEntity
  8
Calque_1
 62
1
100
AcDbLine
 10
138.345912
 20
437.849138
 30
0.0
 11
137.554598
 21
438.656129
 31
0.0
  0
LINE
  5
1fc
100
AcDbEntity
  8
Calque_1
 62
1
100
AcDbLine
 10
142.314303
 20
435.777868
 30
0.0
 11
141.232095
 21
436.103821
 31
0.0
  0
LINE
  5
1fd
100
AcDbEntity
  8
Calque_1
 62
1
100
AcDbLine
 10
279.224509
 20
438.707366
 30
0.0
 11
279.336624
 21
446.486656
 31
0.0
  0
LINE
  5
1fe
100
AcDbEntity
  8
Calque_1
 62
1
100
AcDbLine
 10
128.835733
 20
578.632353
 30
0.0
 11
121.136280
 21
577.515040
 31
0.0
  0
LINE
  5
1ff
100
AcDbEntity
  8
Calque_1
 62
1
100
AcDbLine
 10
264.371873
 20
506.343654
 30
0.0
 11
260.611995
 21
513.154916
 31
0.0
  0
LINE
  5
200
100
AcDbEntity
  8
Calque_1
 62
1
100
AcDbLine
 10
217.937202
 20
557.715728
 30
0.0
 11
211.294806
 21
561.766469
 31
0.0
  0
LINE
  5
201
100
AcDbEntity
  8
Calque_1
 62
1
100
AcDbLine
 10
197.365797
 20
568.687561
 30
0.0
 11
190.125459
 21
571.534921
 31
0.0
  0
LINE
  5
202
100
AcDbEntity
  8
Calque_1
 62
1
100
AcDbLine
 10
147.856782
 20
436.246990
 30
0.0
 11
146.789669
 21
435.874587
 31
0.0
  0
LINE
  5
203
100
AcDbEntity
  8
Calque_1
 62
1
100
AcDbLine
 10
139.232130
 20
437.147686
 30
0.0
 11
138.345912
 21
437.849138
 31
0.0
  0
LINE
  5
204
100
AcDbEntity
  8
Calque_1
 62
1
100
AcDbLine
 10
244.504793
 20
354.024910
 30
0.0
 11
249.553298
 21
359.944584
 31
0.0
  0
LINE
  5
205
100
AcDbEntity
  8
Calque_1
 62
1
100
AcDbLine
 10
148.868807
 20
436.750200
 30
0.0
 11
147.856782
 21
436.246990
 31
0.0
  0
LINE
  5
206
100
AcDbEntity
  8
Calque_1
 62
1
100
AcDbLine
 10
258.586413
 20
372.606399
 30
0.0
 11
262.541016
 21
379.306482
 31
0.0
  0
LINE
  5
207
100
AcDbEntity
  8
Calque_1
 62
1
100
AcDbLine
 10
41.655574
 20
532.134494
 30
0.0
 11
36.779756
 21
526.071789
 31
0.0
  0
LINE
  5
208
100
AcDbEntity
  8
Calque_1
 62
1
100
AcDbLine
 10
262.541016
 20
379.306482
 30
0.0
 11
266.103044
 21
386.223266
 31
0.0
  0
LINE
  5
209
100
AcDbEntity
  8
Calque_1
 62
1
100
AcDbLine
 10
152.139280
 20
579.304332
 30
0.0
 11
144.430684
 21
579.530366
 31
0.0
  0
LINE
  5
20a
100
AcDbEntity
  8
Calque_1
 62
1
100
AcDbLine
 10
70.790073
 20
557.715728
 30
0.0
 11
64.392079
 21
553.289032
 31
0.0
  0
LINE
  5
20b
100
AcDbEntity
  8
Calque_1
 62
1
100
AcDbLine
 10
141.937605
 20
453.208274
 30
0.0
 11
143.042980
 21
453.443996
 31
0.0
  0
LINE
  5
20c
100
AcDbEntity
  8
Calque_1
 62
1
100
AcDbLine
 10
148.528000
 20
452.520019
 30
0.0
 11
149.495144
 21
451.935172
 31
0.0
  0
LINE
  5
20d
100
AcDbEntity
  8
Calque_1
 62
1
100
AcDbLine
 10
145.684297
 20
435.638864
 30
0.0
 11
144.558094
 21
435.543543
 31
0.0
  0
LINE
  5
20e
100
AcDbEntity
  8
Calque_1
 62
1
100
AcDbLine
 10
193.766145
 20
318.919444
 30
0.0
 11
200.921422
 21
321.974272
 31
0.0
  0
LINE
  5
20f
100
AcDbEntity
  8
Calque_1
 62
1
100
AcDbLine
 10
149.809783
 20
437.376286
 30
0.0
 11
148.868807
 21
436.750200
 31
0.0
  0
LINE
  5
210
100
AcDbEntity
  8
Calque_1
 62
1
100
AcDbLine
 10
276.988725
 20
469.682587
 30
0.0
 11
275.320008
 21
477.281624
 31
0.0
  0
LINE
  5
211
100
AcDbEntity
  8
Calque_1
 62
1
100
AcDbLine
 10
146.789669
 20
435.874587
 30
0.0
 11
145.684297
 21
435.638864
 31
0.0
  0
LINE
  5
212
100
AcDbEntity
  8
Calque_1
 62
1
100
AcDbLine
 10
178.987576
 20
314.070458
 30
0.0
 11
186.446760
 21
316.281920
 31
0.0
  0
LINE
  5
213
100
AcDbEntity
  8
Calque_1
 62
1
100
AcDbLine
 10
269.260665
 20
393.333778
 30
0.0
 11
272.003394
 21
400.614399
 31
0.0
  0
LINE
  5
214
100
AcDbEntity
  8
Calque_1
 62
1
100
AcDbLine
 10
275.320008
 20
477.281624
 30
0.0
 11
273.216268
 21
484.771901
 31
0.0
  0
LINE
  5
215
100
AcDbEntity
  8
Calque_1
 62
1
100
AcDbLine
 10
143.428827
 20
435.590120
 30
0.0
 11
142.314303
 21
435.777868
 31
0.0
  0
LINE
  5
216
100
AcDbEntity
  8
Calque_1
 62
1
100
AcDbLine
 10
146.412974
 20
453.304992
 30
0.0
 11
147.495179
 21
452.979039
 31
0.0
  0
LINE
  5
217
100
AcDbEntity
  8
Calque_1
 62
1
100
AcDbLine
 10
136.139309
 20
448.196595
 30
0.0
 11
136.662276
 21
449.198553
 31
0.0
  0
LINE
  5
218
100
AcDbEntity
  8
Calque_1
 62
1
100
AcDbLine
 10
136.662276
 20
449.198553
 30
0.0
 11
137.306694
 21
450.127067
 31
0.0
  0
LINE
  5
219
100
AcDbEntity
  8
Calque_1
 62
1
100
AcDbLine
 10
163.749320
 20
310.953681
 30
0.0
 11
171.413377
 21
312.292410
 31
0.0
  0
LINE
  5
21a
100
AcDbEntity
  8
Calque_1
 62
1
100
AcDbLine
 10
13.407267
 20
477.281624
 30
0.0
 11
11.738552
 21
469.682587
 31
0.0
  0
LINE
  5
21b
100
AcDbEntity
  8
Calque_1
 62
1
100
AcDbLine
 10
153.238586
 20
443.046408
 30
0.0
 11
152.981228
 21
441.945870
 31
0.0
  0
LINE
  5
21c
100
AcDbEntity
  8
Calque_1
 62
1
100
AcDbLine
 10
153.331560
 20
445.300486
 30
0.0
 11
153.355981
 21
444.170520
 31
0.0
  0
LINE
  5
21d
100
AcDbEntity
  8
Calque_1
 62
1
100
AcDbLine
 10
144.169180
 20
453.539317
 30
0.0
 11
145.298447
 21
453.492737
 31
0.0
  0
LINE
  5
21e
100
AcDbEntity
  8
Calque_1
 62
1
100
AcDbLine
 10
36.779756
 20
526.071789
 30
0.0
 11
32.261321
 21
519.738251
 31
0.0
  0
LINE
  5
21f
100
AcDbEntity
  8
Calque_1
 62
1
100
AcDbLine
 10
204.430067
 20
565.427803
 30
0.0
 11
197.365797
 21
568.687561
 31
0.0
  0
LINE
  5
220
100
AcDbEntity
  8
Calque_1
 62
1
100
AcDbLine
 10
152.981228
 20
441.945870
 30
0.0
 11
152.587965
 21
440.886265
 31
0.0
  0
LINE
  5
221
100
AcDbEntity
  8
Calque_1
 62
1
100
AcDbLine
 10
278.664400
 20
430.947453
 30
0.0
 11
279.224509
 21
438.707366
 31
0.0
  0
LINE
  5
222
100
AcDbEntity
  8
Calque_1
 62
1
100
AcDbLine
 10
266.103044
 20
386.223266
 30
0.0
 11
269.260665
 21
393.333778
 31
0.0
  0
LINE
  5
223
100
AcDbEntity
  8
Calque_1
 62
1
100
AcDbLine
 10
236.313840
 20
543.367799
 30
0.0
 11
230.467532
 21
548.501087
 31
0.0
  0
LINE
  5
224
100
AcDbEntity
  8
Calque_1
 62
1
100
AcDbLine
 10
171.413377
 20
312.292410
 30
0.0
 11
178.987576
 21
314.070458
 31
0.0
  0
LINE
  5
225
100
AcDbEntity
  8
Calque_1
 62
1
100
AcDbLine
 10
278.216871
 20
462.000036
 30
0.0
 11
276.988725
 21
469.682587
 31
0.0
  0
LINE
  5
226
100
AcDbEntity
  8
Calque_1
 62
1
100
AcDbLine
 10
227.435866
 20
338.143611
 30
0.0
 11
233.427676
 21
343.106289
 31
0.0
  0
LINE
  5
227
100
AcDbEntity
  8
Calque_1
 62
1
100
AcDbLine
 10
46.872576
 20
537.906221
 30
0.0
 11
41.655574
 21
532.134494
 31
0.0
  0
LINE
  5
228
100
AcDbEntity
  8
Calque_1
 62
1
100
AcDbLine
 10
135.488689
 20
446.036452
 30
0.0
 11
135.746048
 21
447.136991
 31
0.0
  0
LINE
  5
229
100
AcDbEntity
  8
Calque_1
 62
1
100
AcDbLine
 10
145.298447
 20
453.492737
 30
0.0
 11
146.412974
 21
453.304992
 31
0.0
  0
LINE
  5
22a
100
AcDbEntity
  8
Calque_1
 62
1
100
AcDbLine
 10
138.062406
 20
450.967494
 30
0.0
 11
138.917494
 21
451.706575
 31
0.0
  0
LINE
  5
22b
100
AcDbEntity
  8
Calque_1
 62
1
100
AcDbLine
 10
279.336624
 20
446.486656
 30
0.0
 11
279.000373
 21
454.259488
 31
0.0
  0
LINE
  5
22c
100
AcDbEntity
  8
Calque_1
 62
1
100
AcDbLine
 10
249.553298
 20
359.944584
 30
0.0
 11
254.252377
 21
366.145280
 31
0.0
  0
LINE
  5
22d
100
AcDbEntity
  8
Calque_1
 62
1
100
AcDbLine
 10
151.856610
 20
449.526924
 30
0.0
 11
152.422374
 21
448.548493
 31
0.0
  0
LINE
  5
22e
100
AcDbEntity
  8
Calque_1
 62
1
100
AcDbLine
 10
139.858467
 20
452.332660
 30
0.0
 11
140.870492
 21
452.835870
 31
0.0
  0
LINE
  5
22f
100
AcDbEntity
  8
Calque_1
 62
1
100
AcDbLine
 10
267.733093
 20
499.327091
 30
0.0
 11
264.371873
 21
506.343654
 31
0.0
  0
LINE
  5
230
100
AcDbEntity
  8
Calque_1
 62
1
100
AcDbLine
 10
274.322112
 20
408.040937
 30
0.0
 11
276.209123
 21
415.588728
 31
0.0
  0
LINE
  5
231
100
AcDbEntity
  8
Calque_1
 62
1
100
AcDbLine
 10
143.042980
 20
453.443996
 30
0.0
 11
144.169180
 21
453.539317
 31
0.0
  0
LINE
  5
232
100
AcDbEntity
  8
Calque_1
 62
1
100
AcDbLine
 10
152.422374
 20
448.548493
 30
0.0
 11
152.861047
 21
447.506870
 31
0.0
  0
LINE
  5
233
100
AcDbEntity
  8
Calque_1
 62
1
100
AcDbLine
 10
141.232095
 20
436.103821
 30
0.0
 11
140.199277
 21
436.562841
 31
0.0
  0
LINE
  5
234
100
AcDbEntity
  8
Calque_1
 62
1
100
AcDbLine
 10
140.199277
 20
436.562841
 30
0.0
 11
139.232130
 21
437.147686
 31
0.0
  0
LINE
  5
235
100
AcDbEntity
  8
Calque_1
 62
1
100
AcDbLine
 10
153.165712
 20
446.418479
 30
0.0
 11
153.331560
 21
445.300486
 31
0.0
  0
LINE
  5
236
100
AcDbEntity
  8
Calque_1
 62
1
100
AcDbLine
 10
105.994172
 20
573.960420
 30
0.0
 11
98.601817
 21
571.534921
 31
0.0
  0
LINE
  5
237
100
AcDbEntity
  8
Calque_1
 62
1
100
AcDbLine
 10
137.306694
 20
450.127067
 30
0.0
 11
138.062406
 21
450.967494
 31
0.0
  0
LINE
  5
238
100
AcDbEntity
  8
Calque_1
 62
1
100
AcDbLine
 10
273.216268
 20
484.771901
 30
0.0
 11
270.684492
 21
492.128536
 31
0.0
  0
LINE
  5
239
100
AcDbEntity
  8
Calque_1
 62
1
100
AcDbLine
 10
254.252377
 20
366.145280
 30
0.0
 11
258.586413
 21
372.606399
 31
0.0
  0
LINE
  5
23a
100
AcDbEntity
  8
Calque_1
 62
1
100
AcDbLine
 10
52.413435
 20
543.367799
 30
0.0
 11
46.872576
 21
537.906221
 31
0.0
  0
LINE
  5
23b
100
AcDbEntity
  8
Calque_1
 62
1
100
AcDbLine
 10
211.294806
 20
561.766469
 30
0.0
 11
204.430067
 21
565.427803
 31
0.0
  0
LINE
  5
23c
100
AcDbEntity
  8
Calque_1
 62
1
100
AcDbLine
 10
256.465953
 20
519.738251
 30
0.0
 11
251.947521
 21
526.071789
 31
0.0
  0
LINE
  5
23d
100
AcDbEntity
  8
Calque_1
 62
1
100
AcDbLine
 10
159.891541
 20
578.632353
 30
0.0
 11
152.139280
 21
579.304332
 31
0.0
  0
LINE
  5
23e
100
AcDbEntity
  8
Calque_1
 62
1
100
AcDbLine
 10
230.467532
 20
548.501087
 30
0.0
 11
224.335197
 21
553.289032
 31
0.0
  0
LINE
  5
23f
100
AcDbEntity
  8
Calque_1
 62
1
100
AcDbLine
 10
59.386795
 20
309.592224
 30
0.0
 11
148.253360
 21
309.610481
 31
0.0
  0
LINE
  5
240
100
AcDbEntity
  8
Calque_1
 62
1
100
AcDbLine
 10
148.253360
 20
309.610470
 30
0.0
 11
156.020866
 21
310.058716
 31
0.0
  0
LINE
  5
241
100
AcDbEntity
  8
Calque_1
 62
1
100
AcDbLine
 10
156.020866
 20
310.058716
 30
0.0
 11
163.749320
 21
310.953681
 31
0.0
  0
LINE
  5
242
100
AcDbEntity
  8
Calque_1
 62
1
100
AcDbLine
 10
186.446760
 20
316.281920
 30
0.0
 11
193.766145
 21
318.919444
 31
0.0
  0
LINE
  5
243
100
AcDbEntity
  8
Calque_1
 62
1
100
AcDbLine
 10
200.921422
 20
321.974272
 30
0.0
 11
207.888821
 21
325.436256
 31
0.0
  0
LINE
  5
244
100
AcDbEntity
  8
Calque_1
 62
1
100
AcDbLine
 10
207.888821
 20
325.436256
 30
0.0
 11
214.645194
 21
329.293895
 31
0.0
  0
LINE
  5
245
100
AcDbEntity
  8
Calque_1
 62
1
100
AcDbLine
 10
214.645194
 20
329.293895
 30
0.0
 11
221.168099
 21
333.534377
 31
0.0
  0
LINE
  5
246
100
AcDbEntity
  8
Calque_1
 62
1
100
AcDbLine
 10
221.168099
 20
333.534377
 30
0.0
 11
227.435866
 21
338.143611
 31
0.0
  0
LINE
  5
247
100
AcDbEntity
  8
Calque_1
 62
1
100
AcDbLine
 10
233.427676
 20
343.106289
 30
0.0
 11
239.123627
 21
348.405923
 31
0.0
  0
LINE
  5
248
100
AcDbEntity
  8
Calque_1
 62
1
100
AcDbLine
 10
239.123627
 20
348.405923
 30
0.0
 11
244.504793
 21
354.024910
 31
0.0
  0
LINE
  5
249
100
AcDbEntity
  8
Calque_1
 62
1
100
AcDbLine
 10
272.003394
 20
400.614399
 30
0.0
 11
274.322112
 21
408.040937
 31
0.0
  0
LINE
  5
24a
100
AcDbEntity
  8
Calque_1
 62
1
100
AcDbLine
 10
277.658157
 20
423.232697
 30
0.0
 11
278.664400
 21
430.947453
 31
0.0
  0
LINE
  5
24b
100
AcDbEntity
  8
Calque_1
 62
1
100
AcDbLine
 10
279.000373
 20
454.259488
 30
0.0
 11
278.216871
 21
462.000036
 31
0.0
  0
LINE
  5
24c
100
AcDbEntity
  8
Calque_1
 62
1
100
AcDbLine
 10
270.684492
 20
492.128536
 30
0.0
 11
267.733093
 21
499.327091
 31
0.0
  0
LINE
  5
24d
100
AcDbEntity
  8
Calque_1
 62
1
100
AcDbLine
 10
260.611995
 20
513.154916
 30
0.0
 11
256.465953
 21
519.738251
 31
0.0
  0
LINE
  5
24e
100
AcDbEntity
  8
Calque_1
 62
1
100
AcDbLine
 10
251.947521
 20
526.071789
 30
0.0
 11
247.071703
 21
532.134494
 31
0.0
  0
LINE
  5
24f
100
AcDbEntity
  8
Calque_1
 62
1
100
AcDbLine
 10
247.071703
 20
532.134494
 30
0.0
 11
241.854700
 21
537.906221
 31
0.0
  0
LINE
  5
250
100
AcDbEntity
  8
Calque_1
 62
1
100
AcDbLine
 10
241.854700
 20
537.906221
 30
0.0
 11
236.313840
 21
543.367799
 31
0.0
  0
LINE
  5
251
100
AcDbEntity
  8
Calque_1
 62
1
100
AcDbLine
 10
224.335197
 20
553.289032
 30
0.0
 11
217.937202
 21
557.715728
 31
0.0
  0
LINE
  5
252
100
AcDbEntity
  8
Calque_1
 62
1
100
AcDbLine
 10
190.125459
 20
571.534921
 30
0.0
 11
182.733103
 21
573.960420
 31
0.0
  0
LINE
  5
253
100
AcDbEntity
  8
Calque_1
 62
1
100
AcDbLine
 10
182.733103
 20
573.960420
 30
0.0
 11
175.213289
 21
575.956003
 31
0.0
  0
LINE
  5
254
100
AcDbEntity
  8
Calque_1
 62
1
100
AcDbLine
 10
175.213289
 20
575.956003
 30
0.0
 11
167.590994
 21
577.515040
 31
0.0
  0
LINE
  5
255
100
AcDbEntity
  8
Calque_1
 62
1
100
AcDbLine
 10
167.590994
 20
577.515040
 30
0.0
 11
159.891541
 21
578.632353
 31
0.0
  0
LINE
  5
256
100
AcDbEntity
  8
Calque_1
 62
1
100
AcDbLine
 10
144.430684
 20
579.530366
 30
0.0
 11
136.586769
 21
579.304227
 31
0.0
  0
LINE
  5
257
100
AcDbEntity
  8
Calque_1
 62
1
100
AcDbLine
 10
136.586769
 20
579.304227
 30
0.0
 11
128.835733
 21
578.632353
 31
0.0
  0
LINE
  5
258
100
AcDbEntity
  8
Calque_1
 62
1
100
AcDbLine
 10
121.136280
 20
577.515040
 30
0.0
 11
113.513986
 21
575.956003
 31
0.0
  0
LINE
  5
259
100
AcDbEntity
  8
Calque_1
 62
1
100
AcDbLine
 10
113.513986
 20
575.956003
 30
0.0
 11
105.994172
 21
573.960420
 31
0.0
  0
LINE
  5
25a
100
AcDbEntity
  8
Calque_1
 62
1
100
AcDbLine
 10
98.601817
 20
571.534921
 30
0.0
 11
91.361478
 21
568.687561
 31
0.0
  0
LINE
  5
25b
100
AcDbEntity
  8
Calque_1
 62
1
100
AcDbLine
 10
91.361478
 20
568.687561
 30
0.0
 11
84.297207
 21
565.427803
 31
0.0
  0
LINE
  5
25c
100
AcDbEntity
  8
Calque_1
 62
1
100
AcDbLine
 10
84.297207
 20
565.427803
 30
0.0
 11
77.432471
 21
561.766469
 31
0.0
  0
LINE
  5
25d
100
AcDbEntity
  8
Calque_1
 62
1
100
AcDbLine
 10
77.432471
 20
561.766469
 30
0.0
 11
70.790073
 21
557.715728
 31
0.0
  0
LINE
  5
25e
100
AcDbEntity
  8
Calque_1
 62
1
100
AcDbLine
 10
64.392079
 20
553.289032
 30
0.0
 11
58.259743
 21
548.501087
 31
0.0
  0
LINE
  5
25f
100
AcDbEntity
  8
Calque_1
 62
1
100
AcDbLine
 10
58.259743
 20
548.501087
 30
0.0
 11
52.413435
 21
543.367799
 31
0.0
  0
LINE
  5
260
100
AcDbEntity
  8
Calque_1
 62
1
100
AcDbLine
 10
32.261321
 20
519.738251
 30
0.0
 11
28.115279
 21
513.154916
 31
0.0
  0
LINE
  5
261
100
AcDbEntity
  8
Calque_1
 62
1
100
AcDbLine
 10
28.115279
 20
513.154916
 30
0.0
 11
24.355404
 21
506.343654
 31
0.0
  0
LINE
  5
262
100
AcDbEntity
  8
Calque_1
 62
1
100
AcDbLine
 10
24.355404
 20
506.343654
 30
0.0
 11
20.994181
 21
499.327091
 31
0.0
  0
LINE
  5
263
100
AcDbEntity
  8
Calque_1
 62
1
100
AcDbLine
 10
20.994181
 20
499.327091
 30
0.0
 11
18.042782
 21
492.128536
 31
0.0
  0
LINE
  5
264
100
AcDbEntity
  8
Calque_1
 62
1
100
AcDbLine
 10
18.042782
 20
492.128536
 30
0.0
 11
15.511008
 21
484.771901
 31
0.0
  0
LINE
  5
265
100
AcDbEntity
  8
Calque_1
 62
1
100
AcDbLine
 10
15.511008
 20
484.771901
 30
0.0
 11
13.407267
 21
477.281624
 31
0.0
  0
LINE
  5
266
100
AcDbEntity
  8
Calque_1
 62
1
100
AcDbLine
 10
11.738552
 20
469.682587
 30
0.0
 11
10.510403
 21
462.000036
 31
0.0
  0
LINE
  5
267
100
AcDbEntity
  8
Calque_1
 62
1
100
AcDbLine
 10
10.510403
 20
462.000036
 30
0.0
 11
9.726901
 21
454.259488
 31
0.0
  0
LINE
  5
268
100
AcDbEntity
  8
Calque_1
 62
1
100
AcDbLine
 10
9.726901
 20
454.259488
 30
0.0
 11
9.389092
 21
446.450641
 31
0.0
  0
LINE
  5
269
100
AcDbEntity
  8
Calque_1
 62
1
100
AcDbLine
 10
9.389092
 20
304.580967
 30
0.0
 11
59.386795
 21
304.580967
 31
0.0
  0
LINE
  5
26a
100
AcDbEntity
  8
Calque_1
 62
1
100
AcDbLine
 10
59.386795
 20
309.592224
 30
0.0
 11
59.386795
 21
304.580967
 31
0.0
  0
LINE
  5
26b
100
AcDbEntity
  8
Calque_1
 62
1
100
AcDbLine
 10
169.048925
 20
443.720851
 30
0.0
 11
169.208765
 21
444.106740
 31
0.0
  0
LINE
  5
26c
100
AcDbEntity
  8
Calque_1
 62
1
100
AcDbLine
 10
168.794656
 20
443.389482
 30
0.0
 11
169.048925
 21
443.720851
 31
0.0
  0
LINE
  5
26d
100
AcDbEntity
  8
Calque_1
 62
1
100
AcDbLine
 10
168.463284
 20
443.135213
 30
0.0
 11
168.794656
 21
443.389482
 31
0.0
  0
LINE
  5
26e
100
AcDbEntity
  8
Calque_1
 62
1
100
AcDbLine
 10
168.077395
 20
442.975370
 30
0.0
 11
168.463284
 21
443.135213
 31
0.0
  0
LINE
  5
26f
100
AcDbEntity
  8
Calque_1
 62
1
100
AcDbLine
 10
167.663286
 20
442.920853
 30
0.0
 11
168.077395
 21
442.975370
 31
0.0
  0
LINE
  5
270
100
AcDbEntity
  8
Calque_1
 62
1
100
AcDbLine
 10
167.249176
 20
442.975370
 30
0.0
 11
167.663286
 21
442.920853
 31
0.0
  0
LINE
  5
271
100
AcDbEntity
  8
Calque_1
 62
1
100
AcDbLine
 10
166.863287
 20
443.135210
 30
0.0
 11
167.249176
 21
442.975370
 31
0.0
  0
LINE
  5
272
100
AcDbEntity
  8
Calque_1
 62
1
100
AcDbLine
 10
166.531916
 20
443.389479
 30
0.0
 11
166.863287
 21
443.135210
 31
0.0
  0
LINE
  5
273
100
AcDbEntity
  8
Calque_1
 62
1
100
AcDbLine
 10
166.277646
 20
443.720848
 30
0.0
 11
166.531916
 21
443.389479
 31
0.0
  0
LINE
  5
274
100
AcDbEntity
  8
Calque_1
 62
1
100
AcDbLine
 10
166.117806
 20
444.106737
 30
0.0
 11
166.277646
 21
443.720848
 31
0.0
  0
LINE
  5
275
100
AcDbEntity
  8
Calque_1
 62
1
100
AcDbLine
 10
166.063286
 20
444.520847
 30
0.0
 11
166.117806
 21
444.106737
 31
0.0
  0
LINE
  5
276
100
AcDbEntity
  8
Calque_1
 62
1
100
AcDbLine
 10
166.117806
 20
444.934959
 30
0.0
 11
166.063286
 21
444.520847
 31
0.0
  0
LINE
  5
277
100
AcDbEntity
  8
Calque_1
 62
1
100
AcDbLine
 10
166.277646
 20
445.320848
 30
0.0
 11
166.117806
 21
444.934959
 31
0.0
  0
LINE
  5
278
100
AcDbEntity
  8
Calque_1
 62
1
100
AcDbLine
 10
166.531916
 20
445.652217
 30
0.0
 11
166.277646
 21
445.320848
 31
0.0
  0
LINE
  5
279
100
AcDbEntity
  8
Calque_1
 62
1
100
AcDbLine
 10
166.863285
 20
445.906487
 30
0.0
 11
166.531916
 21
445.652217
 31
0.0
  0
LINE
  5
27a
100
AcDbEntity
  8
Calque_1
 62
1
100
AcDbLine
 10
167.249174
 20
446.066329
 30
0.0
 11
166.863285
 21
445.906487
 31
0.0
  0
LINE
  5
27b
100
AcDbEntity
  8
Calque_1
 62
1
100
AcDbLine
 10
167.663283
 20
446.120846
 30
0.0
 11
167.249174
 21
446.066329
 31
0.0
  0
LINE
  5
27c
100
AcDbEntity
  8
Calque_1
 62
1
100
AcDbLine
 10
168.077392
 20
446.066329
 30
0.0
 11
167.663283
 21
446.120846
 31
0.0
  0
LINE
  5
27d
100
AcDbEntity
  8
Calque_1
 62
1
100
AcDbLine
 10
168.463282
 20
445.906489
 30
0.0
 11
168.077392
 21
446.066329
 31
0.0
  0
LINE
  5
27e
100
AcDbEntity
  8
Calque_1
 62
1
100
AcDbLine
 10
168.794653
 20
445.652220
 30
0.0
 11
168.463282
 21
445.906489
 31
0.0
  0
LINE
  5
27f
100
AcDbEntity
  8
Calque_1
 62
1
100
AcDbLine
 10
169.048923
 20
445.320851
 30
0.0
 11
168.794653
 21
445.652220
 31
0.0
  0
LINE
  5
280
100
AcDbEntity
  8
Calque_1
 62
1
100
AcDbLine
 10
169.208763
 20
444.934962
 30
0.0
 11
169.048923
 21
445.320851
 31
0.0
  0
LINE
  5
281
100
AcDbEntity
  8
Calque_1
 62
1
100
AcDbLine
 10
169.263283
 20
444.520852
 30
0.0
 11
169.208763
 21
444.934962
 31
0.0
  0
LINE
  5
282
100
AcDbEntity
  8
Calque_1
 62
1
100
AcDbLine
 10
169.208765
 20
444.106740
 30
0.0
 11
169.263283
 21
444.520852
 31
0.0
  0
LINE
  5
283
100
AcDbEntity
  8
Calque_1
 62
1
100
AcDbLine
 10
123.257543
 20
444.110767
 30
0.0
 11
123.312100
 21
444.524871
 31
0.0
  0
LINE
  5
284
100
AcDbEntity
  8
Calque_1
 62
1
100
AcDbLine
 10
123.097669
 20
443.724894
 30
0.0
 11
123.257543
 21
444.110767
 31
0.0
  0
LINE
  5
285
100
AcDbEntity
  8
Calque_1
 62
1
100
AcDbLine
 10
122.843370
 20
443.393546
 30
0.0
 11
123.097669
 21
443.724894
 31
0.0
  0
LINE
  5
286
100
AcDbEntity
  8
Calque_1
 62
1
100
AcDbLine
 10
122.511975
 20
443.139306
 30
0.0
 11
122.843370
 21
443.393546
 31
0.0
  0
LINE
  5
287
100
AcDbEntity
  8
Calque_1
 62
1
100
AcDbLine
 10
122.126072
 20
442.979500
 30
0.0
 11
122.511975
 21
443.139306
 31
0.0
  0
LINE
  5
288
100
AcDbEntity
  8
Calque_1
 62
1
100
AcDbLine
 10
121.711958
 20
442.925020
 30
0.0
 11
122.126072
 21
442.979500
 31
0.0
  0
LINE
  5
289
100
AcDbEntity
  8
Calque_1
 62
1
100
AcDbLine
 10
121.297851
 20
442.979577
 30
0.0
 11
121.711958
 21
442.925020
 31
0.0
  0
LINE
  5
28a
100
AcDbEntity
  8
Calque_1
 62
1
100
AcDbLine
 10
120.911978
 20
443.139451
 30
0.0
 11
121.297851
 21
442.979577
 31
0.0
  0
LINE
  5
28b
100
AcDbEntity
  8
Calque_1
 62
1
100
AcDbLine
 10
120.580630
 20
443.393750
 30
0.0
 11
120.911978
 21
443.139451
 31
0.0
  0
LINE
  5
28c
100
AcDbEntity
  8
Calque_1
 62
1
100
AcDbLine
 10
120.326389
 20
443.725145
 30
0.0
 11
120.580630
 21
443.393750
 31
0.0
  0
LINE
  5
28d
100
AcDbEntity
  8
Calque_1
 62
1
100
AcDbLine
 10
120.166584
 20
444.111048
 30
0.0
 11
120.326389
 21
443.725145
 31
0.0
  0
LINE
  5
28e
100
AcDbEntity
  8
Calque_1
 62
1
100
AcDbLine
 10
120.112104
 20
444.525162
 30
0.0
 11
120.166584
 21
444.111048
 31
0.0
  0
LINE
  5
28f
100
AcDbEntity
  8
Calque_1
 62
1
100
AcDbLine
 10
120.166661
 20
444.939266
 30
0.0
 11
120.112104
 21
444.525162
 31
0.0
  0
LINE
  5
290
100
AcDbEntity
  8
Calque_1
 62
1
100
AcDbLine
 10
120.326535
 20
445.325142
 30
0.0
 11
120.166661
 21
444.939266
 31
0.0
  0
LINE
  5
291
100
AcDbEntity
  8
Calque_1
 62
1
100
AcDbLine
 10
120.580836
 20
445.656490
 30
0.0
 11
120.326535
 21
445.325142
 31
0.0
  0
LINE
  5
292
100
AcDbEntity
  8
Calque_1
 62
1
100
AcDbLine
 10
120.912229
 20
445.910728
 30
0.0
 11
120.580836
 21
445.656490
 31
0.0
  0
LINE
  5
293
100
AcDbEntity
  8
Calque_1
 62
1
100
AcDbLine
 10
121.298131
 20
446.070533
 30
0.0
 11
120.912229
 21
445.910728
 31
0.0
  0
LINE
  5
294
100
AcDbEntity
  8
Calque_1
 62
1
100
AcDbLine
 10
121.712246
 20
446.125016
 30
0.0
 11
121.298131
 21
446.070533
 31
0.0
  0
LINE
  5
295
100
AcDbEntity
  8
Calque_1
 62
1
100
AcDbLine
 10
122.126353
 20
446.070459
 30
0.0
 11
121.712246
 21
446.125016
 31
0.0
  0
LINE
  5
296
100
AcDbEntity
  8
Calque_1
 62
1
100
AcDbLine
 10
122.512226
 20
445.910585
 30
0.0
 11
122.126353
 21
446.070459
 31
0.0
  0
LINE
  5
297
100
AcDbEntity
  8
Calque_1
 62
1
100
AcDbLine
 10
122.843574
 20
445.656284
 30
0.0
 11
122.512226
 21
445.910585
 31
0.0
  0
LINE
  5
298
100
AcDbEntity
  8
Calque_1
 62
1
100
AcDbLine
 10
123.097814
 20
445.324891
 30
0.0
 11
122.843574
 21
445.656284
 31
0.0
  0
LINE
  5
299
100
AcDbEntity
  8
Calque_1
 62
1
100
AcDbLine
 10
123.257620
 20
444.938986
 30
0.0
 11
123.097814
 21
445.324891
 31
0.0
  0
LINE
  5
29a
100
AcDbEntity
  8
Calque_1
 62
1
100
AcDbLine
 10
123.312100
 20
444.524871
 30
0.0
 11
123.257620
 21
444.938986
 31
0.0
  0
LINE
  5
29b
100
AcDbEntity
  8
Calque_1
 62
1
100
AcDbLine
 10
9.389092
 20
446.450641
 30
0.0
 11
9.389092
 21
304.580967
 31
0.0
  0
ENDSEC
  0
SECTION
  2
OBJECTS
  0
DICTIONARY
  5
C
330
0
100
AcDbDictionary
  3
ACAD_GROUP
350
D
  3
ACAD_MLINESTYLE
350
17
  0
DICTIONARY
  5
D
330
C
100
AcDbDictionary
  0
DICTIONARY
  5
1A
330
C
100
AcDbDictionary
  0
DICTIONARY
  5
17
330
C
100
AcDbDictionary
  3
STANDARD
350
18
  0
DICTIONARY
  5
19
330
C
100
AcDbDictionary
  0
ENDSEC
  0
EOF
